<svg xmlns="http://www.w3.org/2000/svg" xmlns:xlink="http://www.w3.org/1999/xlink" width="1920" height="1003" viewBox="0 0 1920 1003">
  <defs>
    <linearGradient id="bg-overlay-18-a" x1="28.987%" x2="54.027%" y1="6.458%" y2="89.45%">
      <stop offset="0%" stop-color="#FFF"/>
      <stop offset="100%" stop-color="#FFF" stop-opacity=".2"/>
    </linearGradient>
    <linearGradient id="bg-overlay-18-b" x1="28.466%" x2="83.45%" y1="21.813%" y2="88.845%">
      <stop offset="0%" stop-color="#FFF" stop-opacity="0"/>
      <stop offset="100%" stop-color="#FFF" stop-opacity=".04"/>
    </linearGradient>
    <linearGradient id="bg-overlay-18-c" x1="0%" y1="100%" y2="0%">
      <stop offset="0%" stop-color="#FFF" stop-opacity=".511"/>
      <stop offset="100%" stop-color="#003FFF"/>
    </linearGradient>
    <polygon id="bg-overlay-18-d" points="117.467 396.428 208.272 396.428 208.272 487.234 117.467 487.234"/>
    <linearGradient id="bg-overlay-18-f" x1=".888%" x2="70.31%" y1="100%" y2="29.956%">
      <stop offset="0%" stop-color="#FFF"/>
      <stop offset="100%" stop-color="#FFF" stop-opacity="0"/>
    </linearGradient>
  </defs>
  <g fill="none" fill-rule="evenodd" transform="translate(-399 -300)">
    <polygon fill="url(#bg-overlay-18-a)" points="715.952 23.763 1221.293 23.763 1221.293 1554.978 715.952 1554.978" opacity=".048" transform="rotate(-30 968.623 789.37)"/>
    <path fill="url(#bg-overlay-18-b)" d="M2426.96966,463.385665 C2234.69506,779.857134 2090.3905,950.437788 1994.05597,975.127626 C1845.63973,1013.16563 1632.55719,744.425299 1554.47221,627.106331 C1476.38722,509.787363 1445.47221,426.225216 1555.47221,316.176421 C1628.80554,242.810557 1714.98058,166.75175 1813.99734,88 L2427.80712,88 L2441.41587,407.202474 C2442.25762,426.94622 2437.23065,446.496734 2426.96966,463.385665 Z"/>
    <path fill="url(#bg-overlay-18-b)" d="M979.969659,1235.38566 C787.695061,1551.85713 643.390498,1722.43779 547.055968,1747.12763 C398.63973,1785.16563 185.557191,1516.4253 107.472207,1399.10633 C29.3872224,1281.78736 -1.5277935,1198.22522 108.472207,1088.17642 C181.80554,1014.81056 267.980584,938.75175 366.997339,860 L980.807121,860 L994.415872,1179.20247 C995.257619,1198.94622 990.230655,1218.49673 979.969659,1235.38566 Z" transform="scale(1 -1) rotate(-5 -29382.622 0)"/>
    <g transform="translate(367 576)">
      <polygon fill="url(#bg-overlay-18-c)" points="0 459.798 142.824 316.973 0 174.149" opacity=".427"/>
      <path fill="#FFF" d="M168.7383 163.8878C168.3403 163.8878 167.9413 163.7358 167.6373 163.4318 167.0293 162.8238 167.0293 161.8368 167.6373 161.2298L182.5903 146.2768C183.1973 145.6678 184.1853 145.6678 184.7923 146.2768 185.4013 146.8838 185.4013 147.8698 184.7923 148.4788L169.8393 163.4318C169.5353 163.7358 169.1373 163.8878 168.7383 163.8878M46.4943 286.1328C46.0943 286.1328 45.6963 285.9798 45.3933 285.6758 44.7843 285.0678 44.7843 284.0818 45.3933 283.4728L148.2063 180.6598C148.8143 180.0518 149.8013 180.0518 150.4083 180.6598 151.0173 181.2678 151.0173 182.2538 150.4083 182.8628L47.5953 285.6758C47.2913 285.9798 46.8923 286.1328 46.4943 286.1328M28.8535 320.2575C28.4555 320.2575 28.0565 320.1055 27.7525 319.8015 27.1445 319.1935 27.1445 318.2065 27.7525 317.5995L128.9615 216.3905C129.5695 215.7815 130.5565 215.7815 131.1645 216.3905 131.7725 216.9985 131.7725 217.9845 131.1645 218.5925L29.9545 319.8015C29.6505 320.1055 29.2525 320.2575 28.8535 320.2575M289.293 221.3561C288.895 221.3561 288.496 221.2041 288.192 220.9001 287.584 220.2921 287.584 219.3051 288.192 218.6981L506.434.4571C507.041-.1519 508.028-.1519 508.636.4571 509.244 1.0641 509.244 2.0501 508.636 2.6591L290.394 220.9001C290.091 221.2041 289.692 221.3561 289.293 221.3561" opacity=".1"/>
      <polygon fill="#FFF" points="488.154 118.105 412.088 194.172 488.154 270.239" opacity=".1"/>
      <polygon fill="#FFF" points="234.187 12.974 196.154 51.007 234.187 89.042" opacity=".1"/>
      <path fill="#FFF" d="M428.4141 286.6325C428.0161 286.6325 427.6161 286.4805 427.3121 286.1755 426.7041 285.5685 426.7041 284.5815 427.3121 283.9735L475.1161 236.1715C475.7241 235.5625 476.7111 235.5625 477.3181 236.1715 477.9271 236.7785 477.9271 237.7645 477.3181 238.3725L429.5151 286.1755C429.2111 286.4805 428.8111 286.6325 428.4141 286.6325M147.3721 61.631C146.9741 61.631 146.5751 61.479 146.2711 61.175 145.6621 60.567 145.6621 59.58 146.2711 58.973L177.5891 27.654C178.1971 27.046 179.1841 27.046 179.7911 27.654 180.4001 28.262 180.4001 29.248 179.7911 29.857L148.4731 61.175C148.1691 61.479 147.7711 61.631 147.3721 61.631M466.7256 179.4884C466.3286 179.4884 465.9286 179.3364 465.6246 179.0324 465.0166 178.4244 465.0166 177.4374 465.6246 176.8304L562.4806 79.9744C563.0876 79.3654 564.0756 79.3654 564.6826 79.9744 565.2906 80.5814 565.2906 81.5684 564.6826 82.1764L467.8276 179.0324C467.5236 179.3364 467.1236 179.4884 466.7256 179.4884" opacity=".1"/>
      <polygon fill="#FFC300" points="409.462 312.21 381.44 340.232 409.462 368.254" opacity=".1"/>
      <polygon fill="#FFC300" points="100.787 146.552 123.925 169.689 100.787 192.827" opacity=".1"/>
      <mask id="bg-overlay-18-e" fill="#fff">
        <use xlink:href="#bg-overlay-18-d"/>
      </mask>
      <path fill="#FFF" d="M197.1572 409.1012C196.7592 409.1012 196.3602 408.9482 196.0562 408.6442 195.4482 408.0362 195.4482 407.0502 196.0562 406.4432L205.6142 396.8852C206.2212 396.2762 207.2082 396.2762 207.8162 396.8852 208.4242 397.4932 208.4242 398.4792 207.8162 399.0872L198.2582 408.6442C197.9542 408.9482 197.5562 409.1012 197.1572 409.1012M119.0252 487.2342C118.6252 487.2342 118.2272 487.0812 117.9242 486.7782 117.3152 486.1692 117.3152 485.1832 117.9242 484.5762L183.6372 418.8612C184.2452 418.2532 185.2322 418.2532 185.8402 418.8612 186.4482 419.4692 186.4482 420.4552 185.8402 421.0632L120.1262 486.7782C119.8222 487.0812 119.4232 487.2342 119.0252 487.2342M540.4219 138.3634C540.0249 138.3634 539.6249 138.2114 539.3209 137.9074 538.7129 137.2984 538.7129 136.3124 539.3209 135.7054L547.7189 127.3074C548.3259 126.6994 549.3139 126.6994 549.9209 127.3074 550.5289 127.9154 550.5289 128.9014 549.9209 129.5094L541.5239 137.9074C541.2199 138.2114 540.8199 138.3634 540.4219 138.3634M471.7719 207.0134C471.3739 207.0134 470.9749 206.8614 470.6709 206.5574 470.0629 205.9484 470.0629 204.9624 470.6709 204.3554L528.4079 146.6164C529.0159 146.0084 530.0029 146.0084 530.6099 146.6154 531.2189 147.2244 531.2189 148.2104 530.6099 148.8194L472.8729 206.5574C472.5689 206.8614 472.1699 207.0134 471.7719 207.0134M219.0771 411.9078C218.6781 411.9078 218.2801 411.7558 217.9761 411.4518 217.3681 410.8438 217.3681 409.8568 217.9761 409.2498L313.5821 313.6428C314.1891 313.0338 315.1771 313.0338 315.7841 313.6428 316.3921 314.2508 316.3921 315.2368 315.7841 315.8448L220.1781 411.4518C219.8741 411.7558 219.4751 411.9078 219.0771 411.9078" mask="url(#bg-overlay-18-e)" opacity=".1"/>
      <polygon fill="#FFF" points="491.883 437.546 477.872 451.558 491.883 465.568" mask="url(#bg-overlay-18-e)" opacity=".1"/>
      <polygon fill="#FFF" points="132.542 357.601 118.531 371.613 132.542 385.623" mask="url(#bg-overlay-18-e)" opacity=".1"/>
      <polygon fill="#FFF" points="280.481 154.442 294.492 168.453 280.481 182.464" mask="url(#bg-overlay-18-e)" opacity=".1"/>
      <polygon fill="#FFF" points="441.196 235.624 448.201 242.629 441.196 249.635" mask="url(#bg-overlay-18-e)" opacity=".1"/>
      <polygon fill="#FFF" points="537.424 322.574 544.43 329.58 537.424 336.585" mask="url(#bg-overlay-18-e)" opacity=".1"/>
      <polygon fill="#FFF" points="74.235 424.566 81.24 431.571 74.235 438.577" mask="url(#bg-overlay-18-e)" opacity=".1"/>
    </g>
    <g transform="translate(385 750)">
      <path fill="url(#bg-overlay-18-f)" fill-rule="nonzero" d="M3.43083698,281.535519 C1.80407445,281.221179 0.74014582,279.647604 1.05448588,278.020841 C1.36882593,276.394079 2.94240049,275.33015 4.56916302,275.64449 C10.4930575,276.789167 19.8951229,270.994578 34.2172125,257.593539 C41.7525479,250.5428 73.7537402,217.771336 80.9666376,210.736768 C113.625126,178.885715 140.610771,158.992329 168.583196,149.527629 C204.437058,137.39618 238.386877,144.749199 270.578702,175.291908 C334.524564,235.961965 378.58544,263.200315 420.159224,263.435727 C466.58061,263.69859 510.83676,228.494342 560.634428,149.093249 C613.499518,64.8012324 656.734089,23.0615187 703.335992,7.69808115 C720.142735,2.1573342 737.59594,-0.136263977 758.137029,0.00627901251 C773.399028,0.112188249 781.325246,0.762351502 817.709787,4.37073916 C819.157129,4.51427733 820.484237,4.64505622 821.762142,4.76994508 C823.41114,4.93110071 824.617274,6.39852026 824.456119,8.04751841 C824.294963,9.69651655 822.827544,10.9026512 821.178545,10.7414956 C819.89759,10.6163086 818.567682,10.4852538 817.11765,10.3414488 C780.956424,6.75520808 773.093179,6.1102103 758.095393,6.00613455 C738.164832,5.86782826 721.347184,8.07790531 705.214581,13.3964056 C660.196141,28.2378167 617.909389,69.0624826 565.717463,152.281156 C514.930574,233.259536 469.104035,269.712975 420.125249,269.435631 C376.543542,269.188848 331.43913,241.305387 266.449015,179.644572 C235.877062,150.638753 204.258683,143.790688 170.506246,155.211103 C143.595894,164.316442 117.221824,183.758986 85.155847,215.032175 C78.03394,221.978003 45.9720834,254.811591 38.3166373,261.974717 C22.5121974,276.762776 12.0620218,283.203326 3.43083698,281.535519 Z"/>
      <circle cx="200" cy="147" r="10" fill="#FFF" stroke="#FFF" stroke-opacity=".296" stroke-width="15"/>
    </g>
  </g>
</svg>
