<svg xmlns="http://www.w3.org/2000/svg" width="1920" height="963" viewBox="0 0 1920 963">
  <defs>
    <linearGradient id="bg-overlay-09-a" x1="28.987%" x2="54.027%" y1="6.458%" y2="89.45%">
      <stop offset="0%" stop-color="#FFF"/>
      <stop offset="100%" stop-color="#FFF" stop-opacity=".2"/>
    </linearGradient>
    <linearGradient id="bg-overlay-09-b" x1="0%" y1="100%" y2="0%">
      <stop offset="0%" stop-color="#FFF" stop-opacity=".15"/>
      <stop offset="100%" stop-color="#FFF" stop-opacity="0"/>
    </linearGradient>
    <linearGradient id="bg-overlay-09-c" x1="0%" y1="100%" y2="0%">
      <stop offset="0%" stop-color="#FFF" stop-opacity=".3"/>
      <stop offset="100%" stop-color="#FFF" stop-opacity="0"/>
    </linearGradient>
    <linearGradient id="bg-overlay-09-d" x1=".888%" x2="70.31%" y1="100%" y2="29.956%">
      <stop offset="0%" stop-color="#FFF"/>
      <stop offset="100%" stop-color="#FFF" stop-opacity="0"/>
    </linearGradient>
  </defs>
  <g fill="none" fill-rule="evenodd" transform="translate(-32 -300)">
    <polygon fill="url(#bg-overlay-09-a)" points="348.952 23.763 854.293 23.763 854.293 1554.978 348.952 1554.978" opacity=".048" transform="rotate(-30 601.623 789.37)"/>
    <g opacity=".511" transform="translate(1365 162)">
      <path fill="url(#bg-overlay-09-b)" d="M64.4151744,106.829051 C88.8972541,204.036345 169.153175,255.94469 305.182936,262.554087 C509.227579,272.468182 539.062723,311.665728 593.707687,551.93642 C645.173585,651.605395 683.431614,503.236272 708.481774,106.829051 L286.152243,31.8315154 L64.4151744,106.829051 Z"/>
      <path fill="url(#bg-overlay-09-c)" d="M106,116.394187 C132.570193,221.892436 219.671261,278.228121 367.303203,285.401243 C588.751117,296.160926 621.130946,338.70169 680.43666,599.465427 C736.292161,707.635318 777.813274,546.611571 805,116.394187 L346.649354,35 L106,116.394187 Z"/>
      <path fill="url(#bg-overlay-09-c)" d="M0.599117505,94.595874 C31.3050526,216.51529 131.963702,281.619819 302.575067,289.909462 C558.492114,302.343927 595.911975,351.506308 664.448828,652.858822 C728.998431,777.86573 776.982449,591.778081 808.400882,94.595874 L278.706375,0.532400462 L0.599117505,94.595874 Z"/>
      <path fill="url(#bg-overlay-09-b)" d="M154.424668,115.953706 C143.584696,63.0564731 172.758268,111.843388 241.945384,262.314451 C345.726057,488.021045 552.453019,342.542214 660.579891,572.885457 C732.664472,726.44762 738.934687,565.284451 679.390534,89.3959503 L328.927445,33.085482 L154.424668,115.953706 Z"/>
    </g>
    <g transform="translate(17 750)">
      <path fill="url(#bg-overlay-09-d)" fill-rule="nonzero" d="M3.43083698,281.535519 C1.80407445,281.221179 0.74014582,279.647604 1.05448588,278.020841 C1.36882593,276.394079 2.94240049,275.33015 4.56916302,275.64449 C10.4930575,276.789167 19.8951229,270.994578 34.2172125,257.593539 C41.7525479,250.5428 73.7537402,217.771336 80.9666376,210.736768 C113.625126,178.885715 140.610771,158.992329 168.583196,149.527629 C204.437058,137.39618 238.386877,144.749199 270.578702,175.291908 C334.524564,235.961965 378.58544,263.200315 420.159224,263.435727 C466.58061,263.69859 510.83676,228.494342 560.634428,149.093249 C613.499518,64.8012324 656.734089,23.0615187 703.335992,7.69808115 C720.142735,2.1573342 737.59594,-0.136263977 758.137029,0.00627901251 C773.399028,0.112188249 781.325246,0.762351502 817.709787,4.37073916 C819.157129,4.51427733 820.484237,4.64505622 821.762142,4.76994508 C823.41114,4.93110071 824.617274,6.39852026 824.456119,8.04751841 C824.294963,9.69651655 822.827544,10.9026512 821.178545,10.7414956 C819.89759,10.6163086 818.567682,10.4852538 817.11765,10.3414488 C780.956424,6.75520808 773.093179,6.1102103 758.095393,6.00613455 C738.164832,5.86782826 721.347184,8.07790531 705.214581,13.3964056 C660.196141,28.2378167 617.909389,69.0624826 565.717463,152.281156 C514.930574,233.259536 469.104035,269.712975 420.125249,269.435631 C376.543542,269.188848 331.43913,241.305387 266.449015,179.644572 C235.877062,150.638753 204.258683,143.790688 170.506246,155.211103 C143.595894,164.316442 117.221824,183.758986 85.155847,215.032175 C78.03394,221.978003 45.9720834,254.811591 38.3166373,261.974717 C22.5121974,276.762776 12.0620218,283.203326 3.43083698,281.535519 Z"/>
      <circle cx="200" cy="147" r="10" fill="#FFF" stroke="#FFF" stroke-opacity=".296" stroke-width="15"/>
    </g>
  </g>
</svg>
