<svg xmlns="http://www.w3.org/2000/svg" width="1920" height="405" viewBox="0 0 1920 405">
  <defs>
    <linearGradient id="bg-overlay-12-a" x1="100%" x2="0%" y1="0%" y2="100%">
      <stop offset="0%" stop-color="#FFF" stop-opacity=".07"/>
      <stop offset="100%" stop-color="#FFF" stop-opacity=".03"/>
    </linearGradient>
  </defs>
  <g fill="url(#bg-overlay-12-a)" fill-rule="evenodd" transform="translate(-120)">
    <path d="M30.9206691,193.423307 C49.3320016,154.07104 156.857411,127.634709 311.126644,159.634709 C465.395877,191.634709 775.3843,437.395477 1030.00833,331.371237 C1284.63237,225.346997 1402.18325,26.6454296 1693.49434,78.4422972 C1984.80543,130.239165 1941.58408,205.236811 2124.81595,96.5160668 C2125.5079,326.3952 2125.5079,448.560216 2124.81595,463.011112 L43.0784074,434.841252 C22.6990269,300.1308 18.6464475,219.658152 30.9206691,193.423307 Z"/>
    <path d="M78.0784074,230.968647 C232.34764,262.968647 484.333992,-67.7374238 921.277159,206.007274 C1358.22033,479.751973 1528.10529,-81.1625711 1833.82207,10.6541702 C2139.53886,102.470912 1976.58408,186.162993 2159.81595,77.4422493 C2160.5079,307.321383 2160.5079,429.486398 2159.81595,443.937295 L78.0784074,415.767435 C-24.7677479,271.23491 -24.7677479,209.635314 78.0784074,230.968647 Z"/>
  </g>
</svg>
