<svg xmlns="http://www.w3.org/2000/svg" width="65" height="190" viewBox="0 0 65 190">
  <defs>
    <linearGradient id="chart-01-a" x1="50%" x2="50%" y1="0%" y2="100%">
      <stop offset="0%" stop-color="#5F82EF"/>
      <stop offset="100%" stop-color="#86A3FA"/>
    </linearGradient>
    <linearGradient id="chart-01-b" x1="100%" x2="0%" y1="82.197%" y2="89.163%">
      <stop offset="0%" stop-color="#5E82F1"/>
      <stop offset="100%" stop-color="#4F75EA"/>
    </linearGradient>
    <linearGradient id="chart-01-c" x1="100%" x2="0%" y1="89.163%" y2="82.616%">
      <stop offset="0%" stop-color="#5E82F1"/>
      <stop offset="100%" stop-color="#4F75EA"/>
    </linearGradient>
  </defs>
  <g fill="none" fill-rule="evenodd">
    <polygon fill="url(#chart-01-a)" points="0 18.5 32 37 64 18.5 32 0"/>
    <polygon fill="url(#chart-01-b)" points="0 171.425 32 190 32 36.577 0 18"/>
    <polygon fill="url(#chart-01-c)" points="32 36.576 32 190 64 171.424 64 18"/>
    <g transform="translate(0 45)">
      <polygon fill="#84A0F6" points="0 18.5 32.04 37 64.08 18.5 32.04 .001"/>
      <polygon fill="#5E82F1" points="0 126.501 32.04 145 32.04 37.001 0 18.5"/>
      <polygon fill="#3B5FCF" points="32.04 37 32.04 145 64.08 126.5 64.08 18.5"/>
    </g>
  </g>
</svg>
