<svg xmlns="http://www.w3.org/2000/svg" viewBox="0 0 1920 437.21">
  <defs>
    <style>
      .a {
        fill: #001e40;
      }
    </style>
  </defs>
  <title>city</title>
  <g>
    <path class="a" d="M1914.47,322.23h-9.23V242a7.56,7.56,0,0,0-7.55-7.55H1893V192.34a7.53,7.53,0,0,0-6.2-7.4l-1.72-.32v-29a7.54,7.54,0,0,0-5.08-7.09l-1.4-.49V127.53a7.54,7.54,0,0,0-5.64-7.26l-1.56-.41V92.72h-1.05v27.14l-1.57.41a7.53,7.53,0,0,0-5.63,7.26V148l-1.41.49a7.54,7.54,0,0,0-5.08,7.09v29l-1.72.32a7.53,7.53,0,0,0-6.2,7.4v42.14h-4.69a7.56,7.56,0,0,0-7.55,7.55v80.2h-9.23a5.54,5.54,0,0,0-5.53,5.53V437.21h1V413.26h23.55v23.95h1.05V413.26h23v23.95h1.05V413.26h22.95v23.95h1.05V413.26H1919v23.95h1V327.76A5.54,5.54,0,0,0,1914.47,322.23Zm-16.78-86.7a6.51,6.51,0,0,1,6.5,6.5v54.72h-16.71V284.12h4.87v-1.05h-4.87V267.32h4.87v-1.05h-4.87V250.52h4.87v-1.05h-4.87V235.53Zm-26.29,61.22V284.12h4.15v-1.05h-4.15V267.32h4.15v-1.05h-4.15V250.52h4.15v-1.05h-4.15V235.53h15v61.22Zm15,1.05v24.43h-15V297.8Zm-15-63.32V220.17H1892v14.31Zm14-48.63a6.5,6.5,0,0,1,6.5,6.49v26.78H1871.4V185.85Zm-21.25-58.32a6.5,6.5,0,0,1,6.49-6.49h.36a6.5,6.5,0,0,1,6.5,6.49v20.54H1864.2Zm-6.49,28.09a6.51,6.51,0,0,1,6.5-6.5h13.32a6.51,6.51,0,0,1,6.5,6.5v11h-26.32ZM1837.55,242a6.51,6.51,0,0,1,6.5-6.5h10.21v13.94h-4.87v1.05h4.87v15.75h-4.87v1.05h4.87v15.75h-4.87v1.05h4.87v12.63h-16.71Zm8.79,101.52h-6.85v1.05h6.85v15.74h-6.85v1.05h6.85v15.75h-6.85v1.05h6.85v15.75h-6.85V395h6.85v17.22h-23.55V327.76a4.49,4.49,0,0,1,4.48-4.48h19.07Zm-8.79-21.32V297.8h16.71v24.43Zm32.8,23h-4.16v1h4.16V362h-4.16v1.05h4.16v15.75h-4.16v1.05h4.16v15.75h-4.16v1.05h4.16v15.54h-23V323.28h23Zm0-23h-15V297.8h15Zm0-72.76h-4.16v1.05h4.16v15.75h-4.16v1.05h4.16v15.75h-4.16v1.05h4.16v12.63h-15V235.53h15Zm0-15h-20.56V220.17h20.56Zm0-15.36h-20.56V192.34a6.5,6.5,0,0,1,6.5-6.49h14.06Zm-12.64-34.32V167.66H1884V184.8Zm36.64,227.41H1871.4V396.67h4.15v-1.05h-4.15V379.87h4.15v-1.05h-4.15V363.07h4.15V362h-4.15V346.28h4.15v-1h-4.15v-22h22.95Zm-6.87-90V297.8h16.71v24.43Zm31.47,90H1895.4V395h6.85v-1.05h-6.85V378.19h6.85v-1.05h-6.85V361.39h6.85v-1.05h-6.85V344.6h6.85v-1.05h-6.85V323.28h19.07a4.49,4.49,0,0,1,4.48,4.48Z"/>
    <path class="a" d="M1703.67,270.71v6.68h1v-5.63h72.4v5.63h1.05v-6.68Zm0,19.7v6.68h1v-5.63h72.4v5.63h1.05v-6.68Zm0,19.7v6.68h1v-5.63h72.4v5.63h1.05v-6.68Zm0,19.7v6.68h1v-5.63h72.4v5.63h1.05v-6.68Zm0,19.7v6.68h1v-5.63h72.4v5.63h1.05v-6.68Zm0,19.7v6.68h1v-5.63h72.4v5.63h1.05v-6.68Zm0,19.7v6.69h1V390h72.4v5.64h1.05v-6.69Zm0,19.7v6.69h1v-5.64h72.4v5.64h1.05v-6.69Zm0,0v6.69h1v-5.64h72.4v5.64h1.05v-6.69Zm0-19.7v6.69h1V390h72.4v5.64h1.05v-6.69Zm0-19.7v6.68h1v-5.63h72.4v5.63h1.05v-6.68Zm0-19.7v6.68h1v-5.63h72.4v5.63h1.05v-6.68Zm0-19.7v6.68h1v-5.63h72.4v5.63h1.05v-6.68Zm0-19.7v6.68h1v-5.63h72.4v5.63h1.05v-6.68Zm0-19.7v6.68h1v-5.63h72.4v5.63h1.05v-6.68Zm0-19.7v6.68h1v-5.63h72.4v5.63h1.05v-6.68ZM1731,424.53v12.68h1V425.58h17.76v11.63h1V424.53Zm-27.32-153.82v6.68h1v-5.63h72.4v5.63h1.05v-6.68Zm0,19.7v6.68h1v-5.63h72.4v5.63h1.05v-6.68Zm0,19.7v6.68h1v-5.63h72.4v5.63h1.05v-6.68Zm0,19.7v6.68h1v-5.63h72.4v5.63h1.05v-6.68Zm0,19.7v6.68h1v-5.63h72.4v5.63h1.05v-6.68Zm0,19.7v6.68h1v-5.63h72.4v5.63h1.05v-6.68Zm0,19.7v6.69h1V390h72.4v5.64h1.05v-6.69Zm0,19.7v6.69h1v-5.64h72.4v5.64h1.05v-6.69Zm74.5-160.41V227.39h-21.43V200h-1v27.42h-10.88v-15h-21.27V175.18h-1v52.21h-18.82V248.2h-19.75v189h1v-188h111.91v188h1v-189Zm-54.63-34.78h20.22v14h-20.22Zm53.58,34.78h-72.4V228.44h72.4Zm-73.45,22.51v6.68h1v-5.63h72.4v5.63h1.05v-6.68Zm0,19.7v6.68h1v-5.63h72.4v5.63h1.05v-6.68Zm0,19.7v6.68h1v-5.63h72.4v5.63h1.05v-6.68Zm0,19.7v6.68h1v-5.63h72.4v5.63h1.05v-6.68Zm0,19.7v6.68h1v-5.63h72.4v5.63h1.05v-6.68Zm0,19.7v6.68h1v-5.63h72.4v5.63h1.05v-6.68Zm0,19.7v6.69h1V390h72.4v5.64h1.05v-6.69Zm0,19.7v6.69h1v-5.64h72.4v5.64h1.05v-6.69Zm0,0v6.69h1v-5.64h72.4v5.64h1.05v-6.69Zm0-19.7v6.69h1V390h72.4v5.64h1.05v-6.69Zm0-19.7v6.68h1v-5.63h72.4v5.63h1.05v-6.68Zm0-19.7v6.68h1v-5.63h72.4v5.63h1.05v-6.68Zm0-19.7v6.68h1v-5.63h72.4v5.63h1.05v-6.68Zm0-19.7v6.68h1v-5.63h72.4v5.63h1.05v-6.68Zm0-19.7v6.68h1v-5.63h72.4v5.63h1.05v-6.68Zm0-19.7v6.68h1v-5.63h72.4v5.63h1.05v-6.68Z"/>
    <path class="a" d="M1655.09,168.82h-99.22c-1.84,0-3.28,1.85-3.28,4.2V437.21h1.05V426.73h17.43v10.48h1V426.73H1596v10.48h1V426.73h16.87v10.48h1V426.73h23.87v10.48h1.05V426.73h17.43v10.48h1V173C1658.36,170.67,1656.92,168.82,1655.09,168.82Zm-84,256.86h-17.43V404.25h17.43Zm0-22.48h-17.43V381.76h17.43Zm0-22.49h-17.43V359.28h17.43Zm0-22.48h-17.43V336.79h17.43Zm0-22.49h-17.43V314.31h17.43Zm0-22.48h-17.43V291.82h17.43Zm0-22.49h-17.43V269.34h17.43Zm0-22.48h-17.43V246.85h17.43Zm0-22.49h-17.43V224.37h17.43Zm0-22.48h-17.43V201.88h17.43Zm0-22.49h-17.43V173a3.83,3.83,0,0,1,.76-2.36l.63-.79h16ZM1596,425.68h-23.87V404.25H1596Zm0-22.48h-23.87V381.76H1596Zm0-22.49h-23.87V359.28H1596Zm0-22.48h-23.87V336.79H1596Zm0-22.49h-23.87V314.31H1596Zm0-22.48h-23.87V291.82H1596Zm0-22.49h-23.87V269.34H1596Zm0-22.48h-23.87V246.85H1596Zm0-22.49h-23.87V224.37H1596Zm0-22.48h-23.87V201.88H1596Zm0-22.49h-23.87v-31H1596Zm17.92,224.85H1597V404.25h16.87Zm0-22.48H1597V381.76h16.87Zm0-22.49H1597V359.28h16.87Zm0-22.48H1597V336.79h16.87Zm0-22.49H1597V314.31h16.87Zm0-22.48H1597V291.82h16.87Zm0-22.49H1597V269.34h16.87Zm0-22.48H1597V246.85h16.87Zm0-22.49H1597V224.37h16.87Zm0-22.48H1597V201.88h16.87Zm0-22.49H1597v-31h16.87Zm24.92,224.85H1615V404.25h23.87Zm0-22.48H1615V381.76h23.87Zm0-22.49H1615V359.28h23.87Zm0-22.48H1615V336.79h23.87Zm0-22.49H1615V314.31h23.87Zm0-22.48H1615V291.82h23.87Zm0-22.49H1615V269.34h23.87Zm0-22.48H1615V246.85h23.87Zm0-22.49H1615V224.37h23.87Zm0-22.48H1615V201.88h23.87Zm0-22.49H1615v-31h23.87Zm18.48,224.85h-17.43V404.25h17.43Zm0-22.48h-17.43V381.76h17.43Zm0-22.49h-17.43V359.28h17.43Zm0-22.48h-17.43V336.79h17.43Zm0-22.49h-17.43V314.31h17.43Zm0-22.48h-17.43V291.82h17.43Zm0-22.49h-17.43V269.34h17.43Zm0-22.48h-17.43V246.85h17.43Zm0-22.49h-17.43V224.37h17.43Zm0-22.48h-17.43V201.88h17.43Zm0-22.49h-17.43v-31h16l.63.77a3.83,3.83,0,0,1,.77,2.38Z"/>
    <path class="a" d="M1508.05,287.11h-16.32V139.29a25.11,25.11,0,0,0-22.79-25.09L1467,114V85.84h-1V207.1h-8.15a16.56,16.56,0,0,0-16.54,16.54V371.05h-11.82a20.55,20.55,0,0,0-18.4,11.26l-14.79,54.9h1.08l14.59-54.3.1-.2a19.52,19.52,0,0,1,17.42-10.61h94.06v26.75h-84.91v1h84.91v22.4h-48.75v1.05h48.75v13.86h1V303.66A16.57,16.57,0,0,0,1508.05,287.11ZM1467,175.5h6.1v-1.05H1467V152.51h9.72v-1H1467V115l2.35.28a24.17,24.17,0,0,1,21.29,24V207.1H1467Zm-24.69,48.14a15.51,15.51,0,0,1,15.49-15.49h32.84v27.63h-29.31v1.05h29.31v20.84h-15.89v1.05h15.89v28.39h-31.16V277h-1v10.07h-16.12Zm81.19,147.41h-19.22V354.27h-1v16.78h-60.92V342.9h35.85v-1h-35.85V319.7h53v-1.05h-53V288.16h65.7a15.52,15.52,0,0,1,15.49,15.5Zm-93.08,61.44v4.72h1v-4.72Z"/>
    <path class="a" d="M1375.46,239.3h-24.92l14.63-17.58a1.58,1.58,0,0,0-1.22-2.6H1335.4l-.3-1.76a15.5,15.5,0,0,0-7.78-11l-1.1-.6V186.43h-1v18.81l-2.47-.45a14.52,14.52,0,0,0-5.47,0l-2.47.45v-41h-1v41.56l-1.09.6a15.51,15.51,0,0,0-7.79,11l-.29,1.76H1276a1.54,1.54,0,0,0-1.43.91,1.56,1.56,0,0,0,.21,1.69l14.64,17.58h-24.92a3.27,3.27,0,0,0-3.27,3.27V437.21h1v-4.95h17.42v4.95h1v-4.95h23.87v4.95h1.05v-4.95h28.63v4.95h1v-4.95h23.87v4.95h1v-4.95h17.43v4.95h1V242.57A3.28,3.28,0,0,0,1375.46,239.3Zm-95.78,191.91h-17.42V415.46h17.42Zm0-16.8h-17.42V398.66h17.42Zm0-16.8h-17.42V381.86h17.42Zm0-16.8h-17.42V365.06h17.42Zm0-16.8h-17.42V348.26h17.42Zm0-16.8h-17.42V331.46h17.42Zm0-16.8h-17.42V314.66h17.42Zm0-16.8h-17.42V297.87h17.42Zm0-16.79h-17.42V281.07h17.42Zm0-16.8h-17.42V264.27h17.42Zm0-16.8h-17.42V242.57l.12-2.22,17.3,0Zm26.39-46.7a14.3,14.3,0,0,1,27.8,0l.63,2.6h-29.06Zm-1.47,214.69h-23.87V415.46h23.87Zm0-16.8h-23.87V398.66h23.87Zm0-16.8h-23.87V381.86h23.87Zm0-16.8h-23.87V365.06h23.87Zm0-16.8h-23.87V348.26h23.87Zm0-16.8h-23.87V331.46h23.87Zm0-16.8h-23.87V314.66h23.87Zm0-16.8h-23.87V297.87h23.87Zm0-16.79h-23.87V281.07h23.87Zm0-16.8h-23.87V264.27h23.87Zm0-16.8h-23.87V240.37l23.87,0Zm29.68,168h-28.63V415.46h28.63Zm0-16.8h-28.63V398.66h28.63Zm0-16.8h-28.63V381.86h28.63Zm0-16.8h-28.63V365.06h28.63Zm0-16.8h-28.63V348.26h28.63Zm0-16.8h-28.63V331.46h28.63Zm0-16.8h-28.63V314.66h28.63Zm0-16.8h-28.63V297.87h28.63Zm0-16.79h-28.63V281.07h28.63Zm0-16.8h-28.63V264.27h28.63Zm0-16.8h-28.63V240.4l28.63,0Zm-43.52-23.92-6.84-8.22h12.57V230H1283l-8.2-9.86h90.26l-8.21,9.86H1343v1.05h13l-6.85,8.22Zm68.44,191.91h-23.87V415.46h23.87Zm0-16.8h-23.87V398.66h23.87Zm0-16.8h-23.87V381.86h23.87Zm0-16.8h-23.87V365.06h23.87Zm0-16.8h-23.87V348.26h23.87Zm0-16.8h-23.87V331.46h23.87Zm0-16.8h-23.87V314.66h23.87Zm0-16.8h-23.87V297.87h23.87Zm0-16.79h-23.87V281.07h23.87Zm0-16.8h-23.87V264.27h23.87Zm0-16.8h-23.87V240.43l23.87,0Zm18.48,168h-17.43V415.46h17.43Zm0-16.8h-17.43V398.66h17.43Zm0-16.8h-17.43V381.86h17.43Zm0-16.8h-17.43V365.06h17.43Zm0-16.8h-17.43V348.26h17.43Zm0-16.8h-17.43V331.46h17.43Zm0-16.8h-17.43V314.66h17.43Zm0-16.8h-17.43V297.87h17.43Zm0-16.79h-17.43V281.07h17.43Zm0-16.8h-17.43V264.27h17.43Zm0-16.8h-17.43V240.45l17.43,0Z"/>
    <path class="a" d="M1150.83,140.17v1.05h27.91v-1.05Zm0,0v1.05h27.91v-1.05Zm0,0v1.05h27.91v-1.05Zm0,0v1.05h27.91v-1.05Zm0,0v1.05h27.91v-1.05Zm0,0v1.05h27.91v-1.05Zm0,0v1.05h27.91v-1.05Zm0,0v1.05h27.91v-1.05Zm62.93-.5h-14.27l-3.85-13V103.18h-24.45v-19h-12.82V47.65h-1v55.53h-23.39v23.51l-3.53,13h-12.91l-22.22,68.44v229.1h1V208.71h19.43l-.08,228.5h1V194.48h18.22l-.09,227.2h61.55V194.48h18.13V437.21h1V208.71h19.35v228.5h1V208.11Zm-55.39-54.43h11.77v17.94h-11.77Zm33.88,19-27,10.28-27.82-10.28Zm2.34.23v21.77h-57.28Zm-59.61,0,28.72,10.63L1135,126Zm-19.22,89.1v14.11h-19.23l21.73-66.94h11.86ZM1155,420.63H1135.9V394.39H1155Zm0-27.29H1135.9v-38H1155Zm0-39H1135.9V328.05H1155Zm0-27.29H1135.9V289H1155Zm0-39H1135.9V261.72H1155Zm0-27.29H1135.9v-38H1155Zm0-39.05H1135.9V195.38H1155Zm-19-27.29,9.82-38h12.46l-3.27,38Zm23.33-38h12.48l3.27,38h-19Zm15.8,264.29h-19.11V394.39h19.11Zm0-27.29h-19.11v-38h19.11Zm0-39h-19.11V328.05h19.11Zm0-27.29h-19.11V289h19.11Zm0-39h-19.11V261.72h19.11Zm0-27.29h-19.11v-38h19.11Zm0-39.05h-19.11V195.38h19.11Zm-2.27-65.28h10.81l11.45,38h-19Zm22.44,264.29h-19.12V394.39h19.12Zm0-27.29h-19.12v-38h19.12Zm0-39h-19.12V328.05h19.12Zm0-27.29h-19.12V289h19.12Zm0-39h-19.12V261.72h19.12Zm0-27.29h-19.12v-38h19.12Zm0-39.05h-19.12V195.38h19.12Zm.64-28.19-11.49-38.14h-39.45l-9.85,38.14h-18.32l18-66.15h59.86l19.63,66.15Zm19.59,14.23V193.88l-15.77-53.16H1213l21.73,66.94Zm-64.75-66.44h27.91v-1.05h-27.91Zm0-1.05v1.05h27.91v-1.05Zm0,0v1.05h27.91v-1.05Zm0,0v1.05h27.91v-1.05Zm0,0v1.05h27.91v-1.05Zm0,0v1.05h27.91v-1.05Zm0,0v1.05h27.91v-1.05Z"/>
    <path class="a" d="M1048.78,388.57l6-32.69-6.25,2.22V329.21l6.25-34.3-6.25,2.22V268.24l6.25-34.29-6.25,2.22V207.28l6.25-34.3L1033,180.72l-11.87-58.12h-9.49V81.53h-1.05V122.6h-9.49l-11.86,58.12L967.4,173l6.25,34.3v28.89L967.4,234l6.25,34.29v28.89l-6.25-2.22,6.25,34.3V358.1l-6.25-2.22,6,32.69-9.74,48.64h1.07l9.88-49.32,36,14.9v34.42h1.05V402.79l36-14.9,9.88,49.32h1.07Zm4.6-92.06-5.3,29.06-36.49,15.12V325.5l17.79-6.32-.36-1-17.43,6.2v-13ZM1047.44,327v31.49l-35.85,12.74V341.82Zm-35.85-16.73V280.86L1047.44,266v31.5Zm41.79-74.71-5.3,29.07-36.49,15.11V265l17.79-6.33-.36-1-17.43,6.2V250.39Zm-41.79,13.74V219.89l35.85-14.84v31.49Zm41.79-74.7-5.3,29.06-36.49,15.12V204.55l17.79-6.32-.36-1-17.43,6.19v-14Zm-42.84,212-17.43-6.19-.35,1,17.78,6.32v14l-36.48-15.12-5.3-29.07,41.78,14.85Zm0-15.33L974.7,358.47V327l35.84,14.84Zm0-46.82-17.43-6.2-.35,1,17.78,6.32v15.19l-36.48-15.12-5.3-29.06,41.78,14.85Zm0-14.14L974.7,297.51V266l35.84,14.85Zm0-46.34-17.43-6.2-.35,1,17.78,6.32v14.7l-36.48-15.11-5.3-29.07,41.78,14.85Zm0-14.63L974.7,236.54V205.05l35.84,14.84Zm0-45.85-17.43-6.19-.35,1,17.78,6.32v14.21l-36.48-15.12-5.3-29.06,41.78,14.85Zm.53-14.93-20.88-7.42,11.72-57.43h18.32L1032,181.08Zm.52,213.16v-14l17.79-6.32-.36-1-17.43,6.19V372.32l41.79-14.85-5.3,29.07Z"/>
    <path class="a" d="M920.19,178.34h-5.83V171a14.64,14.64,0,0,0-14.63-14.63h-3l-.19-1.89c-.66-6.61-4.79-10.88-11.33-11.72l-1.83-.23V109h-1v33.5l-1.84.23c-6.54.84-10.67,5.11-11.33,11.72l-.19,1.89h-3A14.65,14.65,0,0,0,851.34,171v7.38h-5.83C837,178.34,830,186.73,830,197V437.21h1.05V422.49h15.54v14.72h1V422.49h16.81v14.72h1V422.49h34.66v14.72h1.05V422.49H918v14.72h1.05V422.49h15.55v14.72h1.05V197C935.69,186.73,928.74,178.34,920.19,178.34Zm-2.15,1v25H901.23v-25ZM901.23,264v-25H918v25ZM918,265v32.41H901.23V265Zm-16.81-27.13V205.47H918v32.41Zm-30.94-83.95c.92-6.46,5.62-10.32,12.56-10.32s11.64,3.86,12.56,10.32l.35,2.4H870Zm-17.9,17A13.6,13.6,0,0,1,866,157.38h33.76A13.59,13.59,0,0,1,913.31,171v7.38H852.39Zm13.13,93v-25h34.66v25ZM900.18,265v32.41H865.52V265Zm-34.66-27.13V205.47h34.66v32.41Zm0-33.46v-25h34.66v25Zm-17.86-25h16.81v25H847.66Zm0,26.08h16.81v32.41H847.66Zm0,33.46h16.81v25H847.66Zm0,26.08h16.81v32.41H847.66Zm-16.59-68c0-9.25,5.68-16.81,13.23-17.58l2.31-.23v25.19H831.07Zm0,8.43h15.54v32.41H831.07Zm0,33.46h15.54v25H831.07Zm0,26.08h15.54v32.41H831.07Zm15.54,156.43H831.07V389h15.54Zm0-33.46H831.07V363h15.54Zm0-26.08H831.07V329.49h15.54Zm-15.54-33.46v-30h22.31v30Zm33.4,93H847.66V389h16.81Zm0-33.46H847.66V363h16.81Zm0-26.08H847.66V329.49h16.81Zm35.71,59.54H865.52V389h34.66Zm0-33.46H865.52V363h34.66Zm0-26.08H865.52V329.49h34.66Zm-45.75-33.46v-30h56.84v30Zm63.61,93H901.23V389H918ZM918,388H901.23V363H918Zm0-26.08H901.23V329.49H918Zm16.6,59.54H919.09V389h15.55Zm0-33.46H919.09V363h15.55Zm0-26.08H919.09V329.49h15.55Zm0-33.46H912.32v-30h22.32Zm0-31H919.09V265h15.55Zm0-33.46H919.09v-25h15.55Zm0-26.08H919.09V205.47h15.55Zm0-33.46H919.09V179.23l2.32.23c7.54.77,13.23,8.33,13.23,17.58Z"/>
    <path class="a" d="M808.92,378l-13.07-4.39-2.31-22,13-25.53-10.66-3.78-2.38-22.66,10.7-25.45L796,271.18l-2.47-23.4,8.38-22.91-13.82-6.37-20.31-83.69.84-.84a7.89,7.89,0,0,0-3.52-13.26l-1.54-.42V72.71h-1v47.58l-1.55.42a7.94,7.94,0,0,0-5.87,7.63,7.86,7.86,0,0,0,2.36,5.63l.84.84L738,218.5l-13.81,6.37,8.37,22.91-2.46,23.4-8.25,3.09,10.7,25.45-2.38,22.66-10.66,3.78,13,25.53-2.3,22L717.13,378l15.12,25.18-9.33,34H724L733.69,402l28.81-14.67v49.93h1V387.28L792.36,402,802,437.21h1.09l-9.33-34Zm-14.17-4.76-31.2-10.49V335.4l28.76,14.65Zm10.34-46.53-11.6,22.72-29.94-15.25V312ZM794.82,322l-31.27-11.08V283.52l28.76,14.65Zm8-47.12-9.52,22.64-29.77-15.17V260.16Zm-8-4.1L763.55,259v-27.4l28.76,14.65Zm5.69-45.35-7.37,20.15-29.66-15.11V208.34ZM762.5,386.1l-30.11,15.33L718.7,378.62l43.8-14.73Zm0-23.31-31.21,10.49,2.44-23.23L762.5,335.4Zm0-28.57-30,15.25L721,326.75,762.5,312Zm0-23.31L731.23,322l2.5-23.82,28.77-14.65Zm0-28.57-29.78,15.17-9.52-22.64,39.3-14.71Zm0-23.3-31.34,11.73,2.57-24.48,28.77-14.65Zm0-28.58-29.67,15.11-7.36-20.15,37-17.08Zm.52-95.23-.52,0v72l-23.32,10.75,20.31-83.68a6.9,6.9,0,1,1,7.06,0l20.32,83.68-23.32-10.75v-72A4.7,4.7,0,0,1,763,135.23Zm.53,250.87V363.89l43.79,14.73-13.69,22.81Z"/>
    <path class="a" d="M594.93,155.29V421.68h61.54V155.29ZM615.1,420.63H596V394.39H615.1Zm0-27.29H596v-38H615.1Zm0-39H596V328.05H615.1Zm0-27.29H596V289H615.1Zm0-39H596V261.72H615.1Zm0-27.29H596v-38H615.1Zm0-39.05H596V195.38H615.1Zm0-27.29H596v-38H615.1Zm20.16,226.3H616.15V394.39h19.11Zm0-27.29H616.15v-38h19.11Zm0-39H616.15V328.05h19.11Zm0-27.29H616.15V289h19.11Zm0-39H616.15V261.72h19.11Zm0-27.29H616.15v-38h19.11Zm0-39.05H616.15V195.38h19.11Zm0-27.29H616.15v-38h19.11Zm20.16,226.3H636.31V394.39h19.11Zm0-27.29H636.31v-38h19.11Zm0-39H636.31V328.05h19.11Zm0-27.29H636.31V289h19.11Zm0-39H636.31V261.72h19.11Zm0-27.29H636.31v-38h19.11Zm0-39.05H636.31V195.38h19.11Zm0-27.29H636.31v-38h19.11Zm-60.49-39V421.68h61.54V155.29ZM615.1,420.63H596V394.39H615.1Zm0-27.29H596v-38H615.1Zm0-39H596V328.05H615.1Zm0-27.29H596V289H615.1Zm0-39H596V261.72H615.1Zm0-27.29H596v-38H615.1Zm0-39.05H596V195.38H615.1Zm0-27.29H596v-38H615.1Zm20.16,226.3H616.15V394.39h19.11Zm0-27.29H616.15v-38h19.11Zm0-39H616.15V328.05h19.11Zm0-27.29H616.15V289h19.11Zm0-39H616.15V261.72h19.11Zm0-27.29H616.15v-38h19.11Zm0-39.05H616.15V195.38h19.11Zm0-27.29H616.15v-38h19.11Zm20.16,226.3H636.31V394.39h19.11Zm0-27.29H636.31v-38h19.11Zm0-39H636.31V328.05h19.11Zm0-27.29H636.31V289h19.11Zm0-39H636.31V261.72h19.11Zm0-27.29H636.31v-38h19.11Zm0-39.05H636.31V195.38h19.11Zm0-27.29H636.31v-38h19.11Zm-60.49-39V421.68h61.54V155.29ZM615.1,420.63H596V394.39H615.1Zm0-27.29H596v-38H615.1Zm0-39H596V328.05H615.1Zm0-27.29H596V289H615.1Zm0-39H596V261.72H615.1Zm0-27.29H596v-38H615.1Zm0-39.05H596V195.38H615.1Zm0-27.29H596v-38H615.1Zm20.16,226.3H616.15V394.39h19.11Zm0-27.29H616.15v-38h19.11Zm0-39H616.15V328.05h19.11Zm0-27.29H616.15V289h19.11Zm0-39H616.15V261.72h19.11Zm0-27.29H616.15v-38h19.11Zm0-39.05H616.15V195.38h19.11Zm0-27.29H616.15v-38h19.11Zm20.16,226.3H636.31V394.39h19.11Zm0-27.29H636.31v-38h19.11Zm0-39H636.31V328.05h19.11Zm0-27.29H636.31V289h19.11Zm0-39H636.31V261.72h19.11Zm0-27.29H636.31v-38h19.11Zm0-39.05H636.31V195.38h19.11Zm0-27.29H636.31v-38h19.11Zm-60.49-39V421.68h61.54V155.29ZM615.1,420.63H596V394.39H615.1Zm0-27.29H596v-38H615.1Zm0-39H596V328.05H615.1Zm0-27.29H596V289H615.1Zm0-39H596V261.72H615.1Zm0-27.29H596v-38H615.1Zm0-39.05H596V195.38H615.1Zm0-27.29H596v-38H615.1Zm20.16,226.3H616.15V394.39h19.11Zm0-27.29H616.15v-38h19.11Zm0-39H616.15V328.05h19.11Zm0-27.29H616.15V289h19.11Zm0-39H616.15V261.72h19.11Zm0-27.29H616.15v-38h19.11Zm0-39.05H616.15V195.38h19.11Zm0-27.29H616.15v-38h19.11Zm20.16,226.3H636.31V394.39h19.11Zm0-27.29H636.31v-38h19.11Zm0-39H636.31V328.05h19.11Zm0-27.29H636.31V289h19.11Zm0-39H636.31V261.72h19.11Zm0-27.29H636.31v-38h19.11Zm0-39.05H636.31V195.38h19.11Zm0-27.29H636.31v-38h19.11Zm-60.49-39V421.68h61.54V155.29ZM615.1,420.63H596V394.39H615.1Zm0-27.29H596v-38H615.1Zm0-39H596V328.05H615.1Zm0-27.29H596V289H615.1Zm0-39H596V261.72H615.1Zm0-27.29H596v-38H615.1Zm0-39.05H596V195.38H615.1Zm0-27.29H596v-38H615.1Zm20.16,226.3H616.15V394.39h19.11Zm0-27.29H616.15v-38h19.11Zm0-39H616.15V328.05h19.11Zm0-27.29H616.15V289h19.11Zm0-39H616.15V261.72h19.11Zm0-27.29H616.15v-38h19.11Zm0-39.05H616.15V195.38h19.11Zm0-27.29H616.15v-38h19.11Zm20.16,226.3H636.31V394.39h19.11Zm0-27.29H636.31v-38h19.11Zm0-39H636.31V328.05h19.11Zm0-27.29H636.31V289h19.11Zm0-39H636.31V261.72h19.11Zm0-27.29H636.31v-38h19.11Zm0-39.05H636.31V195.38h19.11Zm0-27.29H636.31v-38h19.11Zm20.24,13.33V126.23H659.08v-23H626.23V69.07H608.37V32.54h-1v70.64h-15v23H575.74v81.43H555.35V437.21h1V208.71h19.34v228.5h1V127.28h97.82V437.21h1V208.71H695v228.5h1V207.66ZM608.37,70.12h16.81v33.06H608.37ZM658,126.23H593.38v-22H658Zm-63.1,29.06V421.68h61.54V155.29ZM615.1,420.63H596V394.39H615.1Zm0-27.29H596v-38H615.1Zm0-39H596V328.05H615.1Zm0-27.29H596V289H615.1Zm0-39H596V261.72H615.1Zm0-27.29H596v-38H615.1Zm0-39.05H596V195.38H615.1Zm0-27.29H596v-38H615.1Zm20.16,226.3H616.15V394.39h19.11Zm0-27.29H616.15v-38h19.11Zm0-39H616.15V328.05h19.11Zm0-27.29H616.15V289h19.11Zm0-39H616.15V261.72h19.11Zm0-27.29H616.15v-38h19.11Zm0-39.05H616.15V195.38h19.11Zm0-27.29H616.15v-38h19.11Zm20.16,226.3H636.31V394.39h19.11Zm0-27.29H636.31v-38h19.11Zm0-39H636.31V328.05h19.11Zm0-27.29H636.31V289h19.11Zm0-39H636.31V261.72h19.11Zm0-27.29H636.31v-38h19.11Zm0-39.05H636.31V195.38h19.11Zm0-27.29H636.31v-38h19.11Zm-60.49-39V421.68h61.54V155.29ZM615.1,420.63H596V394.39H615.1Zm0-27.29H596v-38H615.1Zm0-39H596V328.05H615.1Zm0-27.29H596V289H615.1Zm0-39H596V261.72H615.1Zm0-27.29H596v-38H615.1Zm0-39.05H596V195.38H615.1Zm0-27.29H596v-38H615.1Zm20.16,226.3H616.15V394.39h19.11Zm0-27.29H616.15v-38h19.11Zm0-39H616.15V328.05h19.11Zm0-27.29H616.15V289h19.11Zm0-39H616.15V261.72h19.11Zm0-27.29H616.15v-38h19.11Zm0-39.05H616.15V195.38h19.11Zm0-27.29H616.15v-38h19.11Zm20.16,226.3H636.31V394.39h19.11Zm0-27.29H636.31v-38h19.11Zm0-39H636.31V328.05h19.11Zm0-27.29H636.31V289h19.11Zm0-39H636.31V261.72h19.11Zm0-27.29H636.31v-38h19.11Zm0-39.05H636.31V195.38h19.11Zm0-27.29H636.31v-38h19.11Zm-60.49-39V421.68h61.54V155.29ZM615.1,420.63H596V394.39H615.1Zm0-27.29H596v-38H615.1Zm0-39H596V328.05H615.1Zm0-27.29H596V289H615.1Zm0-39H596V261.72H615.1Zm0-27.29H596v-38H615.1Zm0-39.05H596V195.38H615.1Zm0-27.29H596v-38H615.1Zm20.16,226.3H616.15V394.39h19.11Zm0-27.29H616.15v-38h19.11Zm0-39H616.15V328.05h19.11Zm0-27.29H616.15V289h19.11Zm0-39H616.15V261.72h19.11Zm0-27.29H616.15v-38h19.11Zm0-39.05H616.15V195.38h19.11Zm0-27.29H616.15v-38h19.11Zm20.16,226.3H636.31V394.39h19.11Zm0-27.29H636.31v-38h19.11Zm0-39H636.31V328.05h19.11Zm0-27.29H636.31V289h19.11Zm0-39H636.31V261.72h19.11Zm0-27.29H636.31v-38h19.11Zm0-39.05H636.31V195.38h19.11Zm0-27.29H636.31v-38h19.11Zm-60.49-39V421.68h61.54V155.29ZM615.1,420.63H596V394.39H615.1Zm0-27.29H596v-38H615.1Zm0-39H596V328.05H615.1Zm0-27.29H596V289H615.1Zm0-39H596V261.72H615.1Zm0-27.29H596v-38H615.1Zm0-39.05H596V195.38H615.1Zm0-27.29H596v-38H615.1Zm20.16,226.3H616.15V394.39h19.11Zm0-27.29H616.15v-38h19.11Zm0-39H616.15V328.05h19.11Zm0-27.29H616.15V289h19.11Zm0-39H616.15V261.72h19.11Zm0-27.29H616.15v-38h19.11Zm0-39.05H616.15V195.38h19.11Zm0-27.29H616.15v-38h19.11Zm20.16,226.3H636.31V394.39h19.11Zm0-27.29H636.31v-38h19.11Zm0-39H636.31V328.05h19.11Zm0-27.29H636.31V289h19.11Zm0-39H636.31V261.72h19.11Zm0-27.29H636.31v-38h19.11Zm0-39.05H636.31V195.38h19.11Zm0-27.29H636.31v-38h19.11Z"/>
    <path class="a" d="M519.2,261.46V198.23L510,192.91V139.72l-9.82-5.67L484.42,72.77V50.23h-1.05V72.77L467.66,134l-9.83,5.68v53.19l-9.23,5.32v63.23L437,268.19v169H438V414.44l91.8-57.6v80.37h1.05v-169ZM483.9,75l15,58.36-15-8.64-15,8.64Zm-25,65.37,25-14.44,25,14.44v52l-25-14.44-25,14.44Zm-9.23,58.52,34.25-19.77,34.25,19.77v62L483.9,241.08l-34.25,19.77ZM438,297.92l45.9-26.5,45.41,26.22L438,354.94Zm91.8,57.68L438,413.2V385.31l91.8-57.61Zm0-29.14L438,384.07V356.18l91.8-57.61Zm0-29.75-45.9-26.5L438,296.71V268.79l45.9-26.5,45.9,26.5Z"/>
    <path class="a" d="M330.23,147.7v1.05h14.95V147.7Zm0,23.28V172h14.95V171Zm0,23.28v1.05h14.95v-1.05Zm46.56,0v1.05h14.94v-1.05Zm-46.56,23.28v1.05h14.95v-1.05Zm46.56,0v1.05h14.94v-1.05Zm-46.56,23.28v1.05h14.95v-1.05Zm46.56,0v1.05h14.94v-1.05ZM330.23,264.1v1h14.95v-1Zm46.56,0v1h14.94v-1Zm-46.56,23.28v1.05h14.95v-1.05Zm46.56,0v1.05h14.94v-1.05Zm-46.56,23.28v1h14.95v-1Zm46.56,0v1h14.94v-1Zm-46.56,23.28V335h14.95v-1.05Zm46.56,0V335h14.94v-1.05Zm-46.56,23.28v1h14.95v-1Zm46.56,0v1h14.94v-1ZM330.23,380.5v1.05h14.95V380.5Zm46.56,0v1.05h14.94V380.5Zm-46.56,23.28v1.05h14.95v-1.05Zm46.56,0v1.05h14.94v-1.05Zm0,0v1.05h14.94v-1.05Zm0-23.28v1.05h14.94V380.5Zm0-23.28v1h14.94v-1Zm0-23.28V335h14.94v-1.05Zm0-23.28v1h14.94v-1Zm0-23.28v1.05h14.94v-1.05Zm0-23.28v1h14.94v-1Zm0-23.28v1.05h14.94v-1.05Zm0-23.28v1.05h14.94v-1.05Zm0-23.28v1.05h14.94v-1.05ZM330.23,403.78v1.05h14.95v-1.05Zm0-23.28v1.05h14.95V380.5Zm0-23.28v1h14.95v-1Zm0-23.28V335h14.95v-1.05Zm0-23.28v1h14.95v-1Zm0-23.28v1.05h14.95v-1.05Zm0-23.28v1h14.95v-1Zm0-23.28v1.05h14.95v-1.05Zm0-23.28v1.05h14.95v-1.05Zm0-23.28v1.05h14.95v-1.05Zm0-23.28V172h14.95V171Zm0-23.28v1.05h14.95V147.7Zm0,0v1.05h14.95V147.7Zm0,23.28V172h14.95V171Zm0,23.28v1.05h14.95v-1.05Zm0,23.28v1.05h14.95v-1.05Zm0,23.28v1.05h14.95v-1.05Zm0,23.28v1h14.95v-1Zm0,23.28v1.05h14.95v-1.05Zm0,23.28v1h14.95v-1Zm0,23.28V335h14.95v-1.05Zm0,23.28v1h14.95v-1Zm0,23.28v1.05h14.95V380.5Zm0,23.28v1.05h14.95v-1.05Zm46.56-209.52v1.05h14.94v-1.05Zm0,23.28v1.05h14.94v-1.05Zm0,23.28v1.05h14.94v-1.05Zm0,23.28v1h14.94v-1Zm0,23.28v1.05h14.94v-1.05Zm0,23.28v1h14.94v-1Zm0,23.28V335h14.94v-1.05Zm0,23.28v1h14.94v-1Zm0,23.28v1.05h14.94V380.5Zm0,23.28v1.05h14.94v-1.05Zm0,0v1.05h14.94v-1.05Zm0-23.28v1.05h14.94V380.5Zm0-23.28v1h14.94v-1Zm0-23.28V335h14.94v-1.05Zm0-23.28v1h14.94v-1Zm0-23.28v1.05h14.94v-1.05Zm0-23.28v1h14.94v-1Zm0-23.28v1.05h14.94v-1.05Zm0-23.28v1.05h14.94v-1.05Zm0-23.28v1.05h14.94v-1.05ZM330.23,403.78v1.05h14.95v-1.05Zm0-23.28v1.05h14.95V380.5Zm0-23.28v1h14.95v-1Zm0-23.28V335h14.95v-1.05Zm0-23.28v1h14.95v-1Zm0-23.28v1.05h14.95v-1.05Zm0-23.28v1h14.95v-1Zm0-23.28v1.05h14.95v-1.05Zm0-23.28v1.05h14.95v-1.05Zm0-23.28v1.05h14.95v-1.05Zm0-23.28V172h14.95V171Zm0-23.28v1.05h14.95V147.7Zm0,0v1.05h14.95V147.7Zm0,23.28V172h14.95V171Zm0,23.28v1.05h14.95v-1.05Zm0,23.28v1.05h14.95v-1.05Zm0,23.28v1.05h14.95v-1.05Zm0,23.28v1h14.95v-1Zm0,23.28v1.05h14.95v-1.05Zm0,23.28v1h14.95v-1Zm0,23.28V335h14.95v-1.05Zm0,23.28v1h14.95v-1Zm0,23.28v1.05h14.95V380.5Zm0,23.28v1.05h14.95v-1.05Zm46.56-209.52v1.05h14.94v-1.05Zm0,23.28v1.05h14.94v-1.05Zm0,23.28v1.05h14.94v-1.05Zm0,23.28v1h14.94v-1Zm0,23.28v1.05h14.94v-1.05Zm0,23.28v1h14.94v-1Zm0,23.28V335h14.94v-1.05Zm0,23.28v1h14.94v-1Zm0,23.28v1.05h14.94V380.5Zm0,23.28v1.05h14.94v-1.05Zm0,0v1.05h14.94v-1.05Zm0-23.28v1.05h14.94V380.5Zm0-23.28v1h14.94v-1Zm0-23.28V335h14.94v-1.05Zm0-23.28v1h14.94v-1Zm0-23.28v1.05h14.94v-1.05Zm0-23.28v1h14.94v-1Zm0-23.28v1.05h14.94v-1.05Zm0-23.28v1.05h14.94v-1.05Zm0-23.28v1.05h14.94v-1.05ZM330.23,403.78v1.05h14.95v-1.05Zm0-23.28v1.05h14.95V380.5Zm0-23.28v1h14.95v-1Zm0-23.28V335h14.95v-1.05Zm0-23.28v1h14.95v-1Zm0-23.28v1.05h14.95v-1.05Zm0-23.28v1h14.95v-1Zm0-23.28v1.05h14.95v-1.05Zm0-23.28v1.05h14.95v-1.05Zm0-23.28v1.05h14.95v-1.05Zm0-23.28V172h14.95V171Zm0-23.28v1.05h14.95V147.7Zm0,0v1.05h14.95V147.7Zm0,23.28V172h14.95V171Zm0,23.28v1.05h14.95v-1.05Zm0,23.28v1.05h14.95v-1.05Zm0,23.28v1.05h14.95v-1.05Zm0,23.28v1h14.95v-1Zm0,23.28v1.05h14.95v-1.05Zm0,23.28v1h14.95v-1Zm0,23.28V335h14.95v-1.05Zm0,23.28v1h14.95v-1Zm0,23.28v1.05h14.95V380.5Zm0,23.28v1.05h14.95v-1.05Zm46.56-209.52v1.05h14.94v-1.05Zm0,23.28v1.05h14.94v-1.05Zm0,23.28v1.05h14.94v-1.05Zm0,23.28v1h14.94v-1Zm0,23.28v1.05h14.94v-1.05Zm0,23.28v1h14.94v-1Zm0,23.28V335h14.94v-1.05Zm0,23.28v1h14.94v-1Zm0,23.28v1.05h14.94V380.5Zm0,23.28v1.05h14.94v-1.05Zm0,1.05h14.94v-1.05H376.79Zm0-23.28h14.94V380.5H376.79Zm0-23.28h14.94v-1H376.79Zm0-23.28h14.94v-1.05H376.79Zm0-23.28h14.94v-1H376.79Zm0-23.28h14.94v-1.05H376.79Zm0-23.28h14.94v-1H376.79Zm0-23.28h14.94v-1.05H376.79Zm0-23.28h14.94v-1.05H376.79Zm0-24.33v1.05h14.94v-1.05ZM330.23,404.83h14.95v-1.05H330.23Zm0-23.28h14.95V380.5H330.23Zm0-23.28h14.95v-1H330.23Zm0-23.28h14.95v-1.05H330.23Zm0-23.28h14.95v-1H330.23Zm0-23.28h14.95v-1.05H330.23Zm0-23.28h14.95v-1H330.23Zm0-23.28h14.95v-1.05H330.23Zm0-23.28h14.95v-1.05H330.23Zm0-23.28h14.95v-1.05H330.23Zm0-23.28h14.95V171H330.23Zm0-23.28h14.95V147.7H330.23Zm51.45-9.6V98.72L345.47,69.27V35.06h-1.05V68.41l-35.15-28.6V0h-1V437.21h1v-396l71.36,58.05v39.12l-43.57-33.77-.64.83,73.42,56.9V437.21h1.05V161.79Zm-4.89,265.68h14.94v-1.05H376.79Zm0-23.28h14.94V380.5H376.79Zm0-23.28h14.94v-1H376.79Zm0-23.28h14.94v-1.05H376.79Zm0-23.28h14.94v-1H376.79Zm0-23.28h14.94v-1.05H376.79Zm0-23.28h14.94v-1H376.79Zm0-23.28h14.94v-1.05H376.79Zm0-23.28h14.94v-1.05H376.79Zm0-23.28h14.94v-1.05H376.79ZM362.4,437.21h1.05V165.93H362.4Zm-32.17-32.38h14.95v-1.05H330.23Zm0-23.28h14.95V380.5H330.23Zm0-23.28h14.95v-1H330.23Zm0-23.28h14.95v-1.05H330.23Zm0-23.28h14.95v-1H330.23Zm0-23.28h14.95v-1.05H330.23Zm0-23.28h14.95v-1H330.23Zm0-23.28h14.95v-1.05H330.23Zm0-23.28h14.95v-1.05H330.23Zm0-23.28h14.95v-1.05H330.23Zm0-23.28h14.95V171H330.23Zm0-23.28h14.95V147.7H330.23Zm0-1.05v1.05h14.95V147.7Zm0,23.28V172h14.95V171Zm0,23.28v1.05h14.95v-1.05Zm0,23.28v1.05h14.95v-1.05Zm0,23.28v1.05h14.95v-1.05Zm0,23.28v1h14.95v-1Zm0,23.28v1.05h14.95v-1.05Zm0,23.28v1h14.95v-1Zm0,23.28V335h14.95v-1.05Zm0,23.28v1h14.95v-1Zm0,23.28v1.05h14.95V380.5Zm0,23.28v1.05h14.95v-1.05Zm46.56-209.52v1.05h14.94v-1.05Zm0,23.28v1.05h14.94v-1.05Zm0,23.28v1.05h14.94v-1.05Zm0,23.28v1h14.94v-1Zm0,23.28v1.05h14.94v-1.05Zm0,23.28v1h14.94v-1Zm0,23.28V335h14.94v-1.05Zm0,23.28v1h14.94v-1Zm0,23.28v1.05h14.94V380.5Zm0,23.28v1.05h14.94v-1.05Zm0,0v1.05h14.94v-1.05Zm0-23.28v1.05h14.94V380.5Zm0-23.28v1h14.94v-1Zm0-23.28V335h14.94v-1.05Zm0-23.28v1h14.94v-1Zm0-23.28v1.05h14.94v-1.05Zm0-23.28v1h14.94v-1Zm0-23.28v1.05h14.94v-1.05Zm0-23.28v1.05h14.94v-1.05Zm0-23.28v1.05h14.94v-1.05ZM330.23,403.78v1.05h14.95v-1.05Zm0-23.28v1.05h14.95V380.5Zm0-23.28v1h14.95v-1Zm0-23.28V335h14.95v-1.05Zm0-23.28v1h14.95v-1Zm0-23.28v1.05h14.95v-1.05Zm0-23.28v1h14.95v-1Zm0-23.28v1.05h14.95v-1.05Zm0-23.28v1.05h14.95v-1.05Zm0-23.28v1.05h14.95v-1.05Zm0-23.28V172h14.95V171Zm0-23.28v1.05h14.95V147.7Zm0,0v1.05h14.95V147.7Zm0,23.28V172h14.95V171Zm0,23.28v1.05h14.95v-1.05Zm0,23.28v1.05h14.95v-1.05Zm0,23.28v1.05h14.95v-1.05Zm0,23.28v1h14.95v-1Zm0,23.28v1.05h14.95v-1.05Zm0,23.28v1h14.95v-1Zm0,23.28V335h14.95v-1.05Zm0,23.28v1h14.95v-1Zm0,23.28v1.05h14.95V380.5Zm0,23.28v1.05h14.95v-1.05Zm46.56-209.52v1.05h14.94v-1.05Zm0,23.28v1.05h14.94v-1.05Zm0,23.28v1.05h14.94v-1.05Zm0,23.28v1h14.94v-1Zm0,23.28v1.05h14.94v-1.05Zm0,23.28v1h14.94v-1Zm0,23.28V335h14.94v-1.05Zm0,23.28v1h14.94v-1Zm0,23.28v1.05h14.94V380.5Zm0,23.28v1.05h14.94v-1.05Zm0,0v1.05h14.94v-1.05Zm0-23.28v1.05h14.94V380.5Zm0-23.28v1h14.94v-1Zm0-23.28V335h14.94v-1.05Zm0-23.28v1h14.94v-1Zm0-23.28v1.05h14.94v-1.05Zm0-23.28v1h14.94v-1Zm0-23.28v1.05h14.94v-1.05Zm0-23.28v1.05h14.94v-1.05Zm0-23.28v1.05h14.94v-1.05ZM330.23,403.78v1.05h14.95v-1.05Zm0-23.28v1.05h14.95V380.5Zm0-23.28v1h14.95v-1Zm0-23.28V335h14.95v-1.05Zm0-23.28v1h14.95v-1Zm0-23.28v1.05h14.95v-1.05Zm0-23.28v1h14.95v-1Zm0-23.28v1.05h14.95v-1.05Zm0-23.28v1.05h14.95v-1.05Zm0-23.28v1.05h14.95v-1.05Zm0-23.28V172h14.95V171Zm0-23.28v1.05h14.95V147.7Zm0,0v1.05h14.95V147.7Zm0,23.28V172h14.95V171Zm0,23.28v1.05h14.95v-1.05Zm0,23.28v1.05h14.95v-1.05Zm0,23.28v1.05h14.95v-1.05Zm0,23.28v1h14.95v-1Zm0,23.28v1.05h14.95v-1.05Zm0,23.28v1h14.95v-1Zm0,23.28V335h14.95v-1.05Zm0,23.28v1h14.95v-1Zm0,23.28v1.05h14.95V380.5Zm0,23.28v1.05h14.95v-1.05Zm46.56-209.52v1.05h14.94v-1.05Zm0,23.28v1.05h14.94v-1.05Zm0,23.28v1.05h14.94v-1.05Zm0,23.28v1h14.94v-1Zm0,23.28v1.05h14.94v-1.05Zm0,23.28v1h14.94v-1Zm0,23.28V335h14.94v-1.05Zm0,23.28v1h14.94v-1Zm0,23.28v1.05h14.94V380.5Zm0,23.28v1.05h14.94v-1.05Zm0,0v1.05h14.94v-1.05Zm0-23.28v1.05h14.94V380.5Zm0-23.28v1h14.94v-1Zm0-23.28V335h14.94v-1.05Zm0-23.28v1h14.94v-1Zm0-23.28v1.05h14.94v-1.05Zm0-23.28v1h14.94v-1Zm0-23.28v1.05h14.94v-1.05Zm0-23.28v1.05h14.94v-1.05Zm0-23.28v1.05h14.94v-1.05ZM330.23,403.78v1.05h14.95v-1.05Zm0-23.28v1.05h14.95V380.5Zm0-23.28v1h14.95v-1Zm0-23.28V335h14.95v-1.05Zm0-23.28v1h14.95v-1Zm0-23.28v1.05h14.95v-1.05Zm0-23.28v1h14.95v-1Zm0-23.28v1.05h14.95v-1.05Zm0-23.28v1.05h14.95v-1.05Zm0-23.28v1.05h14.95v-1.05Zm0-23.28V172h14.95V171Zm0-23.28v1.05h14.95V147.7Z"/>
    <path class="a" d="M180.32,196.05v14.34h1.05V196.05Zm56.48,0v14.34h1V196.05Zm-56.48,29.73v14.33h1.05V225.78Zm56.48,0v14.33h1V225.78ZM180.32,255.5v14.34h1.05V255.5Zm56.48,0v14.34h1V255.5Zm-56.48,29.73v14.34h1.05V285.23Zm56.48,0v14.34h1V285.23ZM180.32,315v14.33h1.05V315Zm56.48,0v14.33h1V315Zm-56.48,29.73V359h1.05V344.69Zm56.48,0V359h1V344.69Zm-56.48,29.72v14.34h1.05V374.41Zm56.48,0v14.34h1V374.41Zm-56.48,29.73v14.33h1.05V404.14Zm56.48,0v14.33h1V404.14Zm0,0v14.33h1V404.14Zm0-29.73v14.34h1V374.41Zm0-29.72V359h1V344.69Zm0-29.73v14.33h1V315Zm0-29.73v14.34h1V285.23Zm0-29.73v14.34h1V255.5Zm0-29.72v14.33h1V225.78Zm0-29.73v14.34h1V196.05ZM180.32,404.14v14.33h1.05V404.14Zm0-29.73v14.34h1.05V374.41Zm0-29.72V359h1.05V344.69Zm0-29.73v14.33h1.05V315Zm0-29.73v14.34h1.05V285.23Zm0-29.73v14.34h1.05V255.5Zm0-29.72v14.33h1.05V225.78Zm0-29.73v14.34h1.05V196.05Zm0,0v14.34h1.05V196.05Zm0,29.73v14.33h1.05V225.78Zm0,29.72v14.34h1.05V255.5Zm0,29.73v14.34h1.05V285.23Zm0,29.73v14.33h1.05V315Zm0,29.73V359h1.05V344.69Zm0,29.72v14.34h1.05V374.41Zm0,29.73v14.33h1.05V404.14ZM236.8,196.05v14.34h1V196.05Zm0,29.73v14.33h1V225.78Zm0,29.72v14.34h1V255.5Zm0,29.73v14.34h1V285.23Zm0,29.73v14.33h1V315Zm0,29.73V359h1V344.69Zm0,29.72v14.34h1V374.41Zm0,29.73v14.33h1V404.14Zm0,0v14.33h1V404.14Zm0-29.73v14.34h1V374.41Zm0-29.72V359h1V344.69Zm0-29.73v14.33h1V315Zm0-29.73v14.34h1V285.23Zm0-29.73v14.34h1V255.5Zm0-29.72v14.33h1V225.78Zm0-29.73v14.34h1V196.05ZM180.32,404.14v14.33h1.05V404.14Zm0-29.73v14.34h1.05V374.41Zm0-29.72V359h1.05V344.69Zm0-29.73v14.33h1.05V315Zm0-29.73v14.34h1.05V285.23Zm0-29.73v14.34h1.05V255.5Zm0-29.72v14.33h1.05V225.78Zm0-29.73v14.34h1.05V196.05Zm0,0v14.34h1.05V196.05Zm0,29.73v14.33h1.05V225.78Zm0,29.72v14.34h1.05V255.5Zm0,29.73v14.34h1.05V285.23Zm0,29.73v14.33h1.05V315Zm0,29.73V359h1.05V344.69Zm0,29.72v14.34h1.05V374.41Zm0,29.73v14.33h1.05V404.14ZM236.8,196.05v14.34h1V196.05Zm0,29.73v14.33h1V225.78Zm0,29.72v14.34h1V255.5Zm0,29.73v14.34h1V285.23Zm0,29.73v14.33h1V315Zm0,29.73V359h1V344.69Zm0,29.72v14.34h1V374.41Zm0,29.73v14.33h1V404.14Zm0,0v14.33h1V404.14Zm0-29.73v14.34h1V374.41Zm0-29.72V359h1V344.69Zm0-29.73v14.33h1V315Zm0-29.73v14.34h1V285.23Zm0-29.73v14.34h1V255.5Zm0-29.72v14.33h1V225.78Zm0-29.73v14.34h1V196.05ZM180.32,404.14v14.33h1.05V404.14Zm0-29.73v14.34h1.05V374.41Zm0-29.72V359h1.05V344.69Zm0-29.73v14.33h1.05V315Zm0-29.73v14.34h1.05V285.23Zm0-29.73v14.34h1.05V255.5Zm0-29.72v14.33h1.05V225.78Zm0-29.73v14.34h1.05V196.05Zm0,0v14.34h1.05V196.05Zm0,29.73v14.33h1.05V225.78Zm0,29.72v14.34h1.05V255.5Zm0,29.73v14.34h1.05V285.23Zm0,29.73v14.33h1.05V315Zm0,29.73V359h1.05V344.69Zm0,29.72v14.34h1.05V374.41Zm0,29.73v14.33h1.05V404.14ZM236.8,196.05v14.34h1V196.05Zm0,29.73v14.33h1V225.78Zm0,29.72v14.34h1V255.5Zm0,29.73v14.34h1V285.23Zm0,29.73v14.33h1V315Zm0,29.73V359h1V344.69Zm0,29.72v14.34h1V374.41Zm0,29.73v14.33h1V404.14Zm0,14.33h1V404.14h-1Zm0-29.72h1V374.41h-1Zm0-29.73h1V344.69h-1Zm0-29.73h1V315h-1Zm0-29.72h1V285.23h-1Zm0-29.73h1V255.5h-1Zm0-29.73h1V225.78h-1Zm0-44.06v14.34h1V196.05ZM180.32,418.47h1.05V404.14h-1.05Zm0-29.72h1.05V374.41h-1.05Zm0-29.73h1.05V344.69h-1.05Zm0-29.73h1.05V315h-1.05Zm0-29.72h1.05V285.23h-1.05Zm0-29.73h1.05V255.5h-1.05Zm0-29.73h1.05V225.78h-1.05Zm0-29.72h1.05V196.05h-1.05Zm80.84-67-.25-.32-.1-.39c-5.57-20.44-15.48-34.56-29.2-54.11-6.49-9.24-13.84-19.71-22.08-32.73l-.45-.7-.44.7c-8.23,13-15.59,23.48-22.08,32.73-13.73,19.55-23.64,33.67-29.2,54.11l-.11.39-.24.32c-14.06,18.68-22.78,36.58-22.78,68V437.21h1.05V211.39c0-29.28,8.25-46,15.45-57.25l5.49-8.61-1.65,10.08a221.63,221.63,0,0,0-2.49,35.77V437.21h1V225c0-53.39,11.46-69.72,34.29-102.24,5.87-8.36,12.53-17.85,19.9-29.31l1.76-2.74,1.77,2.74c7.37,11.47,14,20.95,19.9,29.32C253.58,155.27,265,171.59,265,225V437.21h1V191.38a221.52,221.52,0,0,0-2.5-35.77l-1.65-10.08,5.5,8.62c7.19,11.27,15.45,28,15.45,57.24V437.21h1.05V211.39C283.94,179.94,275.22,162.05,261.16,143.36Zm3.41,30.92,1.12,19.09L260.45,175c-5.62-19.75-15.36-33.63-28.84-52.83-6.49-9.24-13.84-19.72-22.08-32.73l-.45-.7-.44.7c-8.23,13-15.59,23.48-22.08,32.73-13.48,19.2-23.22,33.07-28.85,52.83l-5.23,18.4,1.12-19.09C156,134,167.13,118,187.42,89.14c5.87-8.36,12.53-17.85,19.9-29.3l1.76-2.75,1.77,2.75c7.37,11.46,14,20.94,19.9,29.31C251,118,262.2,134,264.57,174.28ZM236.8,418.47h1V404.14h-1Zm0-29.72h1V374.41h-1Zm0-29.73h1V344.69h-1Zm0-29.73h1V315h-1Zm0-29.72h1V285.23h-1Zm0-29.73h1V255.5h-1Zm0-29.73h1V225.78h-1Zm0-29.72h1V196.05h-1ZM208.56,437.21h1.05V161.64h-1.05Zm-28.24-18.74h1.05V404.14h-1.05Zm0-29.72h1.05V374.41h-1.05Zm0-29.73h1.05V344.69h-1.05Zm0-29.73h1.05V315h-1.05Zm0-29.72h1.05V285.23h-1.05Zm0-29.73h1.05V255.5h-1.05Zm0-29.73h1.05V225.78h-1.05Zm0-29.72h1.05V196.05h-1.05Zm0-14.34v14.34h1.05V196.05Zm0,29.73v14.33h1.05V225.78Zm0,29.72v14.34h1.05V255.5Zm0,29.73v14.34h1.05V285.23Zm0,29.73v14.33h1.05V315Zm0,29.73V359h1.05V344.69Zm0,29.72v14.34h1.05V374.41Zm0,29.73v14.33h1.05V404.14ZM236.8,196.05v14.34h1V196.05Zm0,29.73v14.33h1V225.78Zm0,29.72v14.34h1V255.5Zm0,29.73v14.34h1V285.23Zm0,29.73v14.33h1V315Zm0,29.73V359h1V344.69Zm0,29.72v14.34h1V374.41Zm0,29.73v14.33h1V404.14Zm0,0v14.33h1V404.14Zm0-29.73v14.34h1V374.41Zm0-29.72V359h1V344.69Zm0-29.73v14.33h1V315Zm0-29.73v14.34h1V285.23Zm0-29.73v14.34h1V255.5Zm0-29.72v14.33h1V225.78Zm0-29.73v14.34h1V196.05ZM180.32,404.14v14.33h1.05V404.14Zm0-29.73v14.34h1.05V374.41Zm0-29.72V359h1.05V344.69Zm0-29.73v14.33h1.05V315Zm0-29.73v14.34h1.05V285.23Zm0-29.73v14.34h1.05V255.5Zm0-29.72v14.33h1.05V225.78Zm0-29.73v14.34h1.05V196.05Zm0,0v14.34h1.05V196.05Zm0,29.73v14.33h1.05V225.78Zm0,29.72v14.34h1.05V255.5Zm0,29.73v14.34h1.05V285.23Zm0,29.73v14.33h1.05V315Zm0,29.73V359h1.05V344.69Zm0,29.72v14.34h1.05V374.41Zm0,29.73v14.33h1.05V404.14ZM236.8,196.05v14.34h1V196.05Zm0,29.73v14.33h1V225.78Zm0,29.72v14.34h1V255.5Zm0,29.73v14.34h1V285.23Zm0,29.73v14.33h1V315Zm0,29.73V359h1V344.69Zm0,29.72v14.34h1V374.41Zm0,29.73v14.33h1V404.14Zm0,0v14.33h1V404.14Zm0-29.73v14.34h1V374.41Zm0-29.72V359h1V344.69Zm0-29.73v14.33h1V315Zm0-29.73v14.34h1V285.23Zm0-29.73v14.34h1V255.5Zm0-29.72v14.33h1V225.78Zm0-29.73v14.34h1V196.05ZM180.32,404.14v14.33h1.05V404.14Zm0-29.73v14.34h1.05V374.41Zm0-29.72V359h1.05V344.69Zm0-29.73v14.33h1.05V315Zm0-29.73v14.34h1.05V285.23Zm0-29.73v14.34h1.05V255.5Zm0-29.72v14.33h1.05V225.78Zm0-29.73v14.34h1.05V196.05Zm0,0v14.34h1.05V196.05Zm0,29.73v14.33h1.05V225.78Zm0,29.72v14.34h1.05V255.5Zm0,29.73v14.34h1.05V285.23Zm0,29.73v14.33h1.05V315Zm0,29.73V359h1.05V344.69Zm0,29.72v14.34h1.05V374.41Zm0,29.73v14.33h1.05V404.14ZM236.8,196.05v14.34h1V196.05Zm0,29.73v14.33h1V225.78Zm0,29.72v14.34h1V255.5Zm0,29.73v14.34h1V285.23Zm0,29.73v14.33h1V315Zm0,29.73V359h1V344.69Zm0,29.72v14.34h1V374.41Zm0,29.73v14.33h1V404.14Zm0,0v14.33h1V404.14Zm0-29.73v14.34h1V374.41Zm0-29.72V359h1V344.69Zm0-29.73v14.33h1V315Zm0-29.73v14.34h1V285.23Zm0-29.73v14.34h1V255.5Zm0-29.72v14.33h1V225.78Zm0-29.73v14.34h1V196.05ZM180.32,404.14v14.33h1.05V404.14Zm0-29.73v14.34h1.05V374.41Zm0-29.72V359h1.05V344.69Zm0-29.73v14.33h1.05V315Zm0-29.73v14.34h1.05V285.23Zm0-29.73v14.34h1.05V255.5Zm0-29.72v14.33h1.05V225.78Zm0-29.73v14.34h1.05V196.05Z"/>
    <path class="a" d="M102,232.26l0-.35-.25-1.53A338.94,338.94,0,0,0,75.6,144.7l-.76-1.65A343,343,0,0,0,54,104.69l-.33-.51V74.06h-1v30.12l-.32.51a340.53,340.53,0,0,0-20.83,38.36l-.15.31a339.42,339.42,0,0,0-26.75,87l-.16.93c0,.05-.12.87-.12.87A341.42,341.42,0,0,0,0,285.78V437.21H1.88c2.74-20.93,12.34-49.51,21.66-75.37l2.05-5.68,1.91,5.72c2.48,7.4,5,14.63,7.37,21.61,7.33,21.3,13.84,40.22,16.49,53.72h1.21l-1.45-6c-3.13-12.85-8.75-29.18-15.26-48.09-3.08-9-6.27-18.24-9.45-27.89l-.23-.7.25-.68c3-8.18,6.09-16.52,9.23-25C40.52,315.85,46,301,51.18,286.52l2-5.57,2,5.57c5.16,14.56,10.67,29.35,15.52,42.4,3.14,8.44,6.24,16.78,9.23,25l.25.68-.23.7c-3.2,9.73-6.53,19.38-9.45,27.89C64,402.06,58.33,418.39,55.2,431.24l-1.45,6H55c2.64-13.5,9.16-32.42,16.49-53.72,2.4-7,4.89-14.21,7.36-21.61l1.92-5.72,2,5.68c9.32,25.86,18.91,54.44,21.65,75.37h1.89V285.78A340.68,340.68,0,0,0,102,232.26Zm-77.21,123c-6.54,17.93-14.68,41-19.64,60.31l-4.13,16.1V285.78c0-2,.05-4.1.1-6.14l.58-26.06,3.63,24.35c4,26.73,12.5,54.61,19.48,75.92l.23.69ZM52.36,280c-5.75,16.45-12.1,33.5-17.69,48.54q-3.51,9.42-6.93,18.68L25.64,353l-1.87-5.81C12.46,311.86.15,266.88,5.39,232a338.66,338.66,0,0,1,17.67-66.22l4.42-11.64-.35,12.45c-.92,32.38,13,76.89,25.23,112l.24.69Zm-1.19-8c-15-44-30.78-98.34-18.83-128.26a340.34,340.34,0,0,1,19-35.55l1.79-2.9,1.79,2.9A341.42,341.42,0,0,1,74,143.81C85.93,173.63,70.19,228,55.15,272l-2,5.82Zm29.51,81-2.11-5.72q-3.41-9.24-6.92-18.68c-5.59-15-11.92-32-17.7-48.54l-.24-.69.24-.7c12.24-35.16,26.16-79.67,25.24-112l-.35-12.45,4.41,11.64A338,338,0,0,1,101,232.12c5.19,34.86-7.11,79.79-18.41,115Zm24.59,78.67-4.14-16.1c-5-19.33-13.1-42.39-19.63-60.31l-.25-.68.23-.69c7-21.3,15.5-49.17,19.48-75.9l3.62-24.34.59,26c0,2.05.1,4.09.1,6.14Z"/>
  </g>
  <path class="a" d="M53.75,437.21"/>
  <path class="a" d="M52.57,437.21"/>
</svg>
