<?xml version="1.0" encoding="utf-8"?>
<!-- Generator: Adobe Illustrator 22.1.0, SVG Export Plug-In . SVG Version: 6.00 Build 0)  -->
<svg version="1.1" id="Layer_1" xmlns="http://www.w3.org/2000/svg" xmlns:xlink="http://www.w3.org/1999/xlink" x="0px" y="0px"
	 viewBox="0 0 1920 601" style="enable-background:new 0 0 1920 601;" xml:space="preserve">
<style type="text/css">
	.st0{opacity:7.000000e-02;fill:url(#SVGID_1_);enable-background:new    ;}
	.st1{opacity:7.000000e-02;fill:url(#SVGID_2_);enable-background:new    ;}
	.st2{fill:#FFFFFF;}
</style>
<g transform="translate(-55 -1)">
	<linearGradient id="SVGID_1_" gradientUnits="userSpaceOnUse" x1="621.0419" y1="-24.0892" x2="1688.501" y2="858.1192">
		<stop  offset="0" style="stop-color:#000000"/>
		<stop  offset="1" style="stop-color:#FFFFFF"/>
	</linearGradient>
	<path class="st0" d="M1975,1v601H55V407.8c36-26.3,99.8-0.9,191.3,76.2c234.2,197.3,210.6-326.1,557.8-98.1
		c347.2,228,322.3-391,673.3-136.4c164.8,119.5,252.3,40.4,323.5-59.4c16.7-23.4,32.4-47.8,48.1-71.2
		C1887.7,61.2,1925.8,10.5,1975,1z"/>
	<linearGradient id="SVGID_2_" gradientUnits="userSpaceOnUse" x1="623.2235" y1="-8.5412" x2="1682.1085" y2="866.5811">
		<stop  offset="0" style="stop-color:#000000"/>
		<stop  offset="1" style="stop-color:#FFFFFF"/>
	</linearGradient>
	<path class="st1" d="M1975,28.5V602H55V428c37.7-7.8,94.8,20.5,171.3,84.9c234.2,197.3,210.6-326.1,557.8-98.1
		c347.2,228,322.3-391,673.3-136.4C1638,409.4,1725.7,302,1800.9,190c16.3-24.3,32.1-48.8,48.1-71.2
		C1886.3,66.8,1924.8,26.6,1975,28.5z"/>
	<path class="st2" d="M1975,61.5V602H55V462.6c37.5-12.4,96.6,15.4,177.3,83.3c234.2,197.3,210.6-326.1,557.8-98.1
		c347.2,228,322.3-391,673.3-136.4C1770.9,534.4,1809.1,66.3,1975,61.5z"/>
</g>
</svg>
