<svg xmlns="http://www.w3.org/2000/svg" width="92" height="92" viewBox="0 0 151 151">
  <g fill="none" fill-rule="evenodd" transform="translate(0 -.036)">
    <circle cx="75.5" cy="75.536" r="75.5" fill="transparent"/>
    <path fill="#FFF" fill-rule="nonzero" d="M127.8 22.936068L124.1 19.536068C124.1 19.536068 124.1 19.536068 124.1 19.536068 124.1 19.536068 124.1 19.536068 124.1 19.536068L124.1 19.536068 127.8 22.936068zM115.9 13.336068C113 11.436068 110 9.83606798 106.9 8.33606798 106.8 8.33606798 106.8 8.23606798 106.8 8.23606798 106.8 8.23606798 106.9 8.13606798 106.9 8.13606798L106.9 8.13606798C110 9.63606798 113 11.336068 115.8 13.136068 116 13.236068 116 13.336068 115.9 13.336068 116 13.336068 116 13.436068 115.9 13.336068zM97.4 4.73606798C94.1 3.73606798 90.8 2.93606798 87.4 2.43606798 87.3 2.43606798 87.2 2.33606798 87.2 2.23606798 87.2 2.13606798 87.4 2.03606798 87.5 2.03606798L87.5 2.03606798C90.9 2.63606798 94.2 3.43606798 97.5 4.43606798 97.6 4.43606798 97.6 4.53606798 97.6 4.63606798 97.6 4.73606798 97.5 4.73606798 97.4 4.73606798zM77.3 1.53606798C73.9 1.43606798 70.5 1.63606798 67.1 2.03606798 66.9 2.03606798 66.8 1.93606798 66.8 1.73606798 66.8 1.53606798 66.9 1.43606798 67.1 1.43606798L67.1 1.43606798C70.5 1.03606798 73.9.936067977 77.4 1.03606798 77.5 1.03606798 77.6 1.13606798 77.6 1.23606798 77.5 1.43606798 77.4 1.53606798 77.3 1.53606798zM57.1 3.93606798C53.8 4.83606798 50.6 5.93606798 47.4 7.23606798 47.2 7.33606798 47 7.23606798 46.9 7.03606798 46.8 6.83606798 46.9 6.63606798 47.1 6.53606798L47.1 6.53606798C50.3 5.23606798 53.6 4.13606798 56.9 3.33606798 57.1 3.33606798 57.3 3.43606798 57.3 3.53606798 57.3 3.73606798 57.2 3.93606798 57.1 3.93606798zM38.3 11.836068C35.4 13.536068 32.6 15.536068 29.9 17.636068 29.7 17.836068 29.4 17.736068 29.2 17.536068 29 17.336068 29.1 17.036068 29.3 16.836068L29.3 16.836068C32 14.736068 34.9 12.736068 37.8 11.036068 38 10.936068 38.3 11.036068 38.4 11.236068 38.6 11.436068 38.5 11.636068 38.3 11.836068zM22.4 24.436068C20.1 26.936068 17.9 29.536068 15.9 32.236068 15.7 32.436068 15.4 32.536068 15.1 32.336068 14.9 32.136068 14.8 31.836068 15 31.536068L15 31.536068C17 28.736068 19.3 26.136068 21.6 23.636068 21.8 23.436068 22.1 23.436068 22.3 23.636068 22.6 23.936068 22.6 24.236068 22.4 24.436068zM10.6 41.036068C9 44.036068 7.7 47.136068 6.5 50.336068 6.4 50.636068 6 50.836068 5.7 50.736068 5.4 50.636068 5.2 50.236068 5.3 49.936068L5.3 49.936068C6.5 46.736068 7.9 43.536068 9.5 40.536068 9.7 40.236068 10 40.136068 10.3 40.336068 10.7 40.336068 10.8 40.736068 10.6 41.036068zM3.8 60.036068C3.1 63.336068 2.7 66.736068 2.4 70.136068 2.4 70.536068 2 70.836068 1.6 70.836068 1.3 70.836068 1 70.436068 1 70.036068L1 70.036068C1.3 66.636068 1.7 63.136068 2.5 59.836068 2.6 59.436068 2.9 59.236068 3.3 59.336068 3.7 59.336068 3.9 59.736068 3.8 60.036068zM2.5 80.236068C2.7 83.636068 3.2 86.936068 3.9 90.236068 4 90.636068 3.7 91.136068 3.3 91.236068 2.9 91.336068 2.4 91.036068 2.3 90.636068L2.3 90.636068C1.7 87.236068 1.2 83.836068 1 80.436068 1 80.036068 1.3 79.636068 1.7 79.636068 2.1 79.536068 2.5 79.836068 2.5 80.236068zM6.8 100.036068C8 103.236068 9.3 106.336068 10.9 109.236068 11.1 109.636068 11 110.236068 10.5 110.436068 10.1 110.636068 9.5 110.536068 9.3 110.036068L9.3 110.036068C7.7 106.936068 6.3 103.836068 5.2 100.536068 5 100.136068 5.3 99.636068 5.7 99.436068 6.1 99.336068 6.6 99.636068 6.8 100.036068zM16.3 117.836068C18.3 120.536068 20.5 123.136068 22.8 125.536068 23.2 125.936068 23.2 126.536068 22.8 126.936068 22.4 127.336068 21.8 127.336068 21.4 126.936068L21.4 126.936068C19 124.436068 16.8 121.736068 14.8 118.936068 14.5 118.536068 14.6 117.936068 15 117.636068 15.4 117.336068 16 117.436068 16.3 117.836068zM30.3 132.336068C33 134.436068 35.7 136.336068 38.7 138.036068 39.2 138.336068 39.4 139.036068 39.1 139.536068 38.8 140.036068 38.1 140.236068 37.6 139.936068L37.6 139.936068C34.6 138.136068 31.8 136.236068 29 134.036068 28.6 133.636068 28.5 133.036068 28.8 132.536068 29.2 132.136068 29.9 132.036068 30.3 132.336068zM47.7 142.536068C50.8 143.836068 54 144.836068 57.3 145.636068 57.9 145.836068 58.3 146.436068 58.1 147.036068 57.9 147.636068 57.3 148.036068 56.7 147.836068L56.7 147.836068C53.3 146.936068 50 145.836068 46.8 144.536068 46.2 144.336068 46 143.636068 46.2 143.036068 46.5 142.536068 47.1 142.236068 47.7 142.536068zM67.2 147.436068C70.5 147.836068 73.9 147.936068 77.3 147.836068 78 147.836068 78.6 148.336068 78.6 149.036068 78.6 149.736068 78.1 150.336068 77.4 150.336068L77.4 150.336068C73.9 150.436068 70.4 150.236068 67 149.836068 66.3 149.736068 65.9 149.136068 65.9 148.536068 66 147.836068 66.6 147.336068 67.2 147.436068zM87.3 146.836068C90.6 146.236068 93.9 145.536068 97.1 144.436068 97.8 144.236068 98.6 144.636068 98.8 145.336068 99 146.036068 98.6 146.836068 97.9 147.036068L97.9 147.036068C94.6 148.036068 91.2 148.836068 87.7 149.436068 87 149.536068 86.3 149.036068 86.2 148.336068 86.1 147.636068 86.6 146.936068 87.3 146.836068zM106.4 140.836068C109.4 139.436068 112.4 137.736068 115.1 135.936068 115.8 135.536068 116.7 135.636068 117.1 136.336068 117.5 137.036068 117.4 137.936068 116.7 138.336068L116.7 138.336068C113.8 140.236068 110.7 141.936068 107.6 143.436068 106.9 143.736068 106.1 143.436068 105.8 142.736068 105.5 141.936068 105.8 141.136068 106.4 140.836068zM123.1 129.736068L126.7 126.336068 126.8 126.236068C127.4 125.636068 128.4 125.736068 128.9 126.336068 129.5 126.936068 129.4 127.936068 128.8 128.436068L128.8 128.436068 125.1 131.936068C124.5 132.536068 123.6 132.436068 123 131.836068 122.5 131.336068 122.5 130.436068 123.1 129.736068L123.1 129.736068z"/>
  </g>
</svg>
