<svg xmlns="http://www.w3.org/2000/svg" width="710" height="710" viewBox="0 0 710 710">
  <defs>
    <linearGradient id="process-light-a" x1="50%" x2="50%" y1="0%" y2="100%">
      <stop offset="0%" stop-color="#FFF"/>
      <stop offset="51.47%" stop-color="#FFF" stop-opacity="0"/>
      <stop offset="100%" stop-color="#FFF"/>
    </linearGradient>
    <linearGradient id="process-light-b" x1="50%" x2="50%" y1="0%" y2="100%">
      <stop offset="0%" stop-color="#B8BBC8"/>
      <stop offset="51.47%" stop-color="#FFF" stop-opacity="0"/>
      <stop offset="100%" stop-color="#B8BBC8"/>
    </linearGradient>
    <linearGradient id="process-light-c" x1="0%" y1="100%" y2="0%">
      <stop offset="0%" stop-color="#FFF"/>
      <stop offset="100%" stop-color="#383946"/>
    </linearGradient>
    <linearGradient id="process-light-d" x1="100%" x2="0%" y1="0%" y2="100%">
      <stop offset="0%" stop-color="#FFF"/>
      <stop offset="100%" stop-color="#383946"/>
    </linearGradient>
    <linearGradient id="process-light-e" x1="15.124%" y1="84.876%" y2="0%">
      <stop offset="0%" stop-color="#FFF"/>
      <stop offset="77.649%" stop-color="#383946"/>
      <stop offset="100%" stop-color="#E9E9EB"/>
    </linearGradient>
  </defs>
  <g fill="none" fill-rule="evenodd" transform="translate(1 1)">
    <circle cx="354" cy="354" r="354" stroke="url(#process-light-a)" opacity=".15"/>
    <ellipse cx="354" cy="354.5" stroke="url(#process-light-b)" stroke-width="3" rx="135" ry="136.5"/>
    <circle cx="354.5" cy="354.5" r="244.5" stroke="url(#process-light-a)" opacity=".2"/>
    <circle cx="354.5" cy="354.5" r="179.5" stroke="url(#process-light-a)" opacity=".5"/>
    <g transform="translate(26 184)">
      <g transform="translate(0 243)">
        <path stroke="url(#process-light-c)" d="M201.768867,53.3219276 L161.625969,93.4648257 C157.875241,97.2155532 152.788163,99.3226901 147.483833,99.3226901 L22.2635014,99.3226901 C18.9629723,99.3226901 15.8750147,100.951267 14.0109889,103.675032 L0.20928444,123.842462"/>
        <path stroke="url(#process-light-d)" d="M201.548635,53.5557504 L231.266611,23.8377741"/>
        <g fill="#FFF" transform="rotate(45 115.55 279.528)">
          <rect width="23" height="23" x="5" y="5" opacity=".03" transform="rotate(45 16.5 16.5)"/>
          <rect width="11" height="11" x="11" y="11" opacity=".1" transform="rotate(45 16.5 16.5)"/>
          <rect width="5" height="5" x="14" y="14" transform="rotate(45 16.5 16.5)"/>
        </g>
      </g>
      <g transform="translate(0 154)">
        <path stroke="url(#process-light-e)" d="M193.237276,17 L129.72934,17.1695581 C129.711541,17.1696056 129.693742,17.1696294 129.675943,17.1696294 L21.066763,17.1696294 C17.6451622,17.1696294 14.4610885,18.9190285 12.6262256,21.8070434 L0,41.6803153"/>
        <g fill="#FFF" transform="translate(177)">
          <rect width="23" height="23" x="5" y="5" opacity=".03" transform="rotate(45 16.5 16.5)"/>
          <rect width="11" height="11" x="11" y="11" opacity=".1" transform="rotate(45 16.5 16.5)"/>
          <rect width="5" height="5" x="14" y="14" transform="rotate(45 16.5 16.5)"/>
        </g>
      </g>
      <g transform="translate(1)">
        <path stroke="url(#process-light-d)" d="M231.217894,74.2178943 L202.998992,45.9989919"/>
        <path stroke="url(#process-light-c)" d="M203.155594,46.1530559 L163.387771,6.26773509 C159.635361,2.50423871 154.539343,0.388993963 149.224789,0.388993963 L21.1532949,0.388993963 C17.7316941,0.388993963 14.5476203,2.13839303 12.7127575,5.02640798 L0.0865318404,24.8996799"/>
        <g fill="#FFF" transform="rotate(45 55.195 304.528)">
          <rect width="23" height="23" x="5" y="5" opacity=".03" transform="rotate(45 16.5 16.5)"/>
          <rect width="11" height="11" x="11" y="11" opacity=".1" transform="rotate(45 16.5 16.5)"/>
          <rect width="5" height="5" x="14" y="14" transform="rotate(45 16.5 16.5)"/>
        </g>
      </g>
      <g transform="matrix(-1 0 0 1 656 243)">
        <path stroke="url(#process-light-c)" d="M201.768867,53.3219276 L161.625969,93.4648257 C157.875241,97.2155532 152.788163,99.3226901 147.483833,99.3226901 L22.2635014,99.3226901 C18.9629723,99.3226901 15.8750147,100.951267 14.0109889,103.675032 L0.20928444,123.842462"/>
        <path stroke="url(#process-light-d)" d="M201.548635,53.5557504 L230.397132,24.7072532"/>
        <g fill="#FFF" transform="rotate(-45 132.45 -239.528)">
          <rect width="23" height="23" x="5" y="5" opacity=".03" transform="rotate(45 16.5 16.5)"/>
          <rect width="11" height="11" x="11" y="11" opacity=".1" transform="rotate(45 16.5 16.5)"/>
          <rect width="5" height="5" x="14" y="14" transform="rotate(45 16.5 16.5)"/>
        </g>
      </g>
      <g transform="matrix(-1 0 0 1 656 154)">
        <path stroke="url(#process-light-e)" d="M193,17 L129.72944,17.1695576 C129.711574,17.1696054 129.693709,17.1696294 129.675843,17.1696294 L21.066763,17.1696294 C17.6451622,17.1696294 14.4610885,18.9190285 12.6262256,21.8070434 L0,41.6803153"/>
        <g fill="#FFF" transform="translate(177)">
          <rect width="23" height="23" x="5" y="5" opacity=".03" transform="rotate(45 16.5 16.5)"/>
          <rect width="11" height="11" x="11" y="11" opacity=".1" transform="rotate(45 16.5 16.5)"/>
          <rect width="5" height="5" x="14" y="14" transform="rotate(45 16.5 16.5)"/>
        </g>
      </g>
      <g transform="matrix(-1 0 0 1 655 0)">
        <path stroke="url(#process-light-d)" d="M231.359289,74.3592891 L202.998992,45.9989919"/>
        <path stroke="url(#process-light-c)" d="M203.155594,46.1530559 L163.387771,6.26773509 C159.635361,2.50423871 154.539343,0.388993963 149.224789,0.388993963 L21.1532949,0.388993963 C17.7316941,0.388993963 14.5476203,2.13839303 12.7127575,5.02640798 L0.0865318404,24.8996799"/>
        <g fill="#FFF" transform="rotate(45 55.195 304.528)">
          <rect width="23" height="23" x="5" y="5" opacity=".03" transform="rotate(45 16.5 16.5)"/>
          <rect width="11" height="11" x="11" y="11" opacity=".1" transform="rotate(45 16.5 16.5)"/>
          <rect width="5" height="5" x="14" y="14" transform="rotate(45 16.5 16.5)"/>
        </g>
      </g>
    </g>
  </g>
</svg>
