<svg xmlns="http://www.w3.org/2000/svg" width="46" height="37" viewBox="0 0 46 37">
  <path fill="#264EEE" d="M20.66145,28.81676 C20.66145,33.11337 16.70036,37.04022 11.74841,37.04022 C3.56585,37.04022 0,30.98671 0,22.90615 C0,13.63131 9.34862,4.68672 17.83035,0.95978 L20.09609,4.60894 C13.10766,7.9954 7.88433,12.58691 7.14413,20.28492 L10.03519,20.28492 C13.13106,20.28492 16.34717,20.78402 18.49422,23.00894 C20.02498,24.59761 20.66145,26.62025 20.66145,28.81676 Z M46,28.81676 C46,33.11337 42.03891,37.04022 37.08696,37.04022 C28.9044,37.04022 25.33854,30.9867 25.33854,22.90614 C25.33854,13.6313 34.68716,4.68671 43.16889,0.95977 L45.43463,4.60893 C38.4462,7.99539 33.22287,12.5869 32.48268,20.28491 C35.63584,20.28491 38.25176,20.17066 40.58193,21.00446 C44.21084,22.30299 46,25.10812 46,28.81676 Z" transform="translate(0 -1)"/>
</svg>
