<svg xmlns="http://www.w3.org/2000/svg" xmlns:xlink="http://www.w3.org/1999/xlink" width="329" height="309" viewBox="0 0 329 309">
  <defs>
    <path id="vertical-pattern-1-a" d="M183.127803,83.954314 C362.755373,55.558124 294.7835,339.561512 137.050458,220.99824 C91.3465845,186.64443 -51.2433099,87.200719 20.9729366,18.6196364"/>
    <path id="vertical-pattern-1-c" d="M183.127803,83.954314 C362.755373,55.558124 294.7835,339.561512 137.050458,220.99824 C91.3465845,186.64443 -51.2433099,87.200719 20.9729366,18.6196364 C88.6249859,-45.6259917 127.137979,81.2306529 183.127803,83.954314 Z"/>
    <path id="vertical-pattern-1-e" d="M183.127803,83.954314 C362.755373,55.558124 294.7835,339.561512 137.050458,220.99824 C91.3465845,186.64443 -51.2433099,87.200719 20.9729366,18.6196364"/>
    <path id="vertical-pattern-1-g" d="M183.127803,83.954314 C362.755373,55.558124 294.7835,339.561512 137.050458,220.99824 C91.3465845,186.64443 -51.2433099,87.200719 20.9729366,18.6196364 C88.6249859,-45.6259917 127.137979,81.2306529 183.127803,83.954314 Z"/>
    <path id="vertical-pattern-1-i" d="M183.127803,83.954314 C362.755373,55.558124 294.7835,339.561512 137.050458,220.99824 C91.3465845,186.64443 -51.2433099,87.200719 20.9729366,18.6196364"/>
    <path id="vertical-pattern-1-k" d="M183.127803,83.954314 C362.755373,55.558124 294.7835,339.561512 137.050458,220.99824 C91.3465845,186.64443 -51.2433099,87.200719 20.9729366,18.6196364 C88.6249859,-45.6259917 127.137979,81.2306529 183.127803,83.954314 Z"/>
    <path id="vertical-pattern-1-m" d="M183.127803,83.954314 C362.755373,55.558124 294.7835,339.561512 137.050458,220.99824 C91.3465845,186.64443 -51.2433099,87.200719 20.9729366,18.6196364"/>
    <path id="vertical-pattern-1-o" d="M183.127803,83.954314 C362.755373,55.558124 294.7835,339.561512 137.050458,220.99824 C91.3465845,186.64443 -51.2433099,87.200719 20.9729366,18.6196364 C88.6249859,-45.6259917 127.137979,81.2306529 183.127803,83.954314 Z"/>
    <path id="vertical-pattern-1-q" d="M183.127803,83.954314 C362.755373,55.558124 294.7835,339.561512 137.050458,220.99824 C91.3465845,186.64443 -51.2433099,87.200719 20.9729366,18.6196364"/>
    <path id="vertical-pattern-1-s" d="M183.127803,83.954314 C362.755373,55.558124 294.7835,339.561512 137.050458,220.99824 C91.3465845,186.64443 -51.2433099,87.200719 20.9729366,18.6196364 C88.6249859,-45.6259917 127.137979,81.2306529 183.127803,83.954314 Z"/>
    <path id="vertical-pattern-1-u" d="M183.127803,83.954314 C362.755373,55.558124 294.7835,339.561512 137.050458,220.99824 C91.3465845,186.64443 -51.2433099,87.200719 20.9729366,18.6196364"/>
    <path id="vertical-pattern-1-w" d="M183.127803,83.954314 C362.755373,55.558124 294.7835,339.561512 137.050458,220.99824 C91.3465845,186.64443 -51.2433099,87.200719 20.9729366,18.6196364 C88.6249859,-45.6259917 127.137979,81.2306529 183.127803,83.954314 Z"/>
    <path id="vertical-pattern-1-y" d="M183.127803,83.954314 C362.755373,55.558124 294.7835,339.561512 137.050458,220.99824 C91.3465845,186.64443 -51.2433099,87.200719 20.9729366,18.6196364"/>
    <path id="vertical-pattern-1-A" d="M183.127803,83.954314 C362.755373,55.558124 294.7835,339.561512 137.050458,220.99824 C91.3465845,186.64443 -51.2433099,87.200719 20.9729366,18.6196364 C88.6249859,-45.6259917 127.137979,81.2306529 183.127803,83.954314 Z"/>
    <path id="vertical-pattern-1-C" d="M183.127803,83.954314 C362.755373,55.558124 294.7835,339.561512 137.050458,220.99824 C91.3465845,186.64443 -51.2433099,87.200719 20.9729366,18.6196364"/>
    <path id="vertical-pattern-1-E" d="M183.127803,83.954314 C362.755373,55.558124 294.7835,339.561512 137.050458,220.99824 C91.3465845,186.64443 -51.2433099,87.200719 20.9729366,18.6196364 C88.6249859,-45.6259917 127.137979,81.2306529 183.127803,83.954314 Z"/>
    <path id="vertical-pattern-1-G" d="M183.127803,83.954314 C362.755373,55.558124 294.7835,339.561512 137.050458,220.99824 C91.3465845,186.64443 -51.2433099,87.200719 20.9729366,18.6196364"/>
    <path id="vertical-pattern-1-I" d="M183.127803,83.954314 C362.755373,55.558124 294.7835,339.561512 137.050458,220.99824 C91.3465845,186.64443 -51.2433099,87.200719 20.9729366,18.6196364 C88.6249859,-45.6259917 127.137979,81.2306529 183.127803,83.954314 Z"/>
    <path id="vertical-pattern-1-K" d="M183.127803,83.954314 C362.755373,55.558124 294.7835,339.561512 137.050458,220.99824 C91.3465845,186.64443 -51.2433099,87.200719 20.9729366,18.6196364"/>
    <path id="vertical-pattern-1-M" d="M183.127803,83.954314 C362.755373,55.558124 294.7835,339.561512 137.050458,220.99824 C91.3465845,186.64443 -51.2433099,87.200719 20.9729366,18.6196364 C88.6249859,-45.6259917 127.137979,81.2306529 183.127803,83.954314 Z"/>
    <path id="vertical-pattern-1-O" d="M183.127803,83.954314 C362.755373,55.558124 294.7835,339.561512 137.050458,220.99824 C91.3465845,186.64443 -51.2433099,87.200719 20.9729366,18.6196364"/>
    <path id="vertical-pattern-1-Q" d="M183.127803,83.954314 C362.755373,55.558124 294.7835,339.561512 137.050458,220.99824 C91.3465845,186.64443 -51.2433099,87.200719 20.9729366,18.6196364 C88.6249859,-45.6259917 127.137979,81.2306529 183.127803,83.954314 Z"/>
    <path id="vertical-pattern-1-S" d="M183.127803,83.954314 C362.755373,55.558124 294.7835,339.561512 137.050458,220.99824 C91.3465845,186.64443 -51.2433099,87.200719 20.9729366,18.6196364"/>
    <path id="vertical-pattern-1-U" d="M183.127803,83.954314 C362.755373,55.558124 294.7835,339.561512 137.050458,220.99824 C91.3465845,186.64443 -51.2433099,87.200719 20.9729366,18.6196364 C88.6249859,-45.6259917 127.137979,81.2306529 183.127803,83.954314 Z"/>
    <path id="vertical-pattern-1-W" d="M183.127803,83.954314 C362.755373,55.558124 294.7835,339.561512 137.050458,220.99824 C91.3465845,186.64443 -51.2433099,87.200719 20.9729366,18.6196364"/>
    <path id="vertical-pattern-1-Y" d="M183.127803,83.954314 C362.755373,55.558124 294.7835,339.561512 137.050458,220.99824 C91.3465845,186.64443 -51.2433099,87.200719 20.9729366,18.6196364 C88.6249859,-45.6259917 127.137979,81.2306529 183.127803,83.954314 Z"/>
    <path id="vertical-pattern-1-aa" d="M183.127803,83.954314 C362.755373,55.558124 294.7835,339.561512 137.050458,220.99824 C91.3465845,186.64443 -51.2433099,87.200719 20.9729366,18.6196364"/>
    <path id="vertical-pattern-1-ac" d="M183.127803,83.954314 C362.755373,55.558124 294.7835,339.561512 137.050458,220.99824 C91.3465845,186.64443 -51.2433099,87.200719 20.9729366,18.6196364 C88.6249859,-45.6259917 127.137979,81.2306529 183.127803,83.954314 Z"/>
    <path id="vertical-pattern-1-ae" d="M183.127803,83.954314 C362.755373,55.558124 294.7835,339.561512 137.050458,220.99824 C91.3465845,186.64443 -51.2433099,87.200719 20.9729366,18.6196364"/>
    <path id="vertical-pattern-1-ag" d="M183.127803,83.954314 C362.755373,55.558124 294.7835,339.561512 137.050458,220.99824 C91.3465845,186.64443 -51.2433099,87.200719 20.9729366,18.6196364 C88.6249859,-45.6259917 127.137979,81.2306529 183.127803,83.954314 Z"/>
    <path id="vertical-pattern-1-ai" d="M183.127803,83.954314 C362.755373,55.558124 294.7835,339.561512 137.050458,220.99824 C91.3465845,186.64443 -51.2433099,87.200719 20.9729366,18.6196364"/>
    <path id="vertical-pattern-1-ak" d="M183.127803,83.954314 C362.755373,55.558124 294.7835,339.561512 137.050458,220.99824 C91.3465845,186.64443 -51.2433099,87.200719 20.9729366,18.6196364 C88.6249859,-45.6259917 127.137979,81.2306529 183.127803,83.954314 Z"/>
    <path id="vertical-pattern-1-am" d="M183.127803,83.954314 C362.755373,55.558124 294.7835,339.561512 137.050458,220.99824 C91.3465845,186.64443 -51.2433099,87.200719 20.9729366,18.6196364"/>
    <path id="vertical-pattern-1-ao" d="M183.127803,83.954314 C362.755373,55.558124 294.7835,339.561512 137.050458,220.99824 C91.3465845,186.64443 -51.2433099,87.200719 20.9729366,18.6196364 C88.6249859,-45.6259917 127.137979,81.2306529 183.127803,83.954314 Z"/>
    <path id="vertical-pattern-1-aq" d="M183.127803,83.954314 C362.755373,55.558124 294.7835,339.561512 137.050458,220.99824 C91.3465845,186.64443 -51.2433099,87.200719 20.9729366,18.6196364"/>
    <path id="vertical-pattern-1-as" d="M183.127803,83.954314 C362.755373,55.558124 294.7835,339.561512 137.050458,220.99824 C91.3465845,186.64443 -51.2433099,87.200719 20.9729366,18.6196364 C88.6249859,-45.6259917 127.137979,81.2306529 183.127803,83.954314 Z"/>
    <path id="vertical-pattern-1-au" d="M183.127803,83.954314 C362.755373,55.558124 294.7835,339.561512 137.050458,220.99824 C91.3465845,186.64443 -51.2433099,87.200719 20.9729366,18.6196364"/>
    <path id="vertical-pattern-1-aw" d="M183.127803,83.954314 C362.755373,55.558124 294.7835,339.561512 137.050458,220.99824 C91.3465845,186.64443 -51.2433099,87.200719 20.9729366,18.6196364 C88.6249859,-45.6259917 127.137979,81.2306529 183.127803,83.954314 Z"/>
    <path id="vertical-pattern-1-ay" d="M183.127803,83.954314 C362.755373,55.558124 294.7835,339.561512 137.050458,220.99824 C91.3465845,186.64443 -51.2433099,87.200719 20.9729366,18.6196364"/>
    <path id="vertical-pattern-1-aA" d="M183.127803,83.954314 C362.755373,55.558124 294.7835,339.561512 137.050458,220.99824 C91.3465845,186.64443 -51.2433099,87.200719 20.9729366,18.6196364 C88.6249859,-45.6259917 127.137979,81.2306529 183.127803,83.954314 Z"/>
    <path id="vertical-pattern-1-aC" d="M183.127803,83.954314 C362.755373,55.558124 294.7835,339.561512 137.050458,220.99824 C91.3465845,186.64443 -51.2433099,87.200719 20.9729366,18.6196364"/>
    <path id="vertical-pattern-1-aE" d="M183.127803,83.954314 C362.755373,55.558124 294.7835,339.561512 137.050458,220.99824 C91.3465845,186.64443 -51.2433099,87.200719 20.9729366,18.6196364 C88.6249859,-45.6259917 127.137979,81.2306529 183.127803,83.954314 Z"/>
    <path id="vertical-pattern-1-aG" d="M183.127803,83.954314 C362.755373,55.558124 294.7835,339.561512 137.050458,220.99824 C91.3465845,186.64443 -51.2433099,87.200719 20.9729366,18.6196364"/>
    <path id="vertical-pattern-1-aI" d="M183.127803,83.954314 C362.755373,55.558124 294.7835,339.561512 137.050458,220.99824 C91.3465845,186.64443 -51.2433099,87.200719 20.9729366,18.6196364 C88.6249859,-45.6259917 127.137979,81.2306529 183.127803,83.954314 Z"/>
    <path id="vertical-pattern-1-aK" d="M183.127803,83.954314 C362.755373,55.558124 294.7835,339.561512 137.050458,220.99824 C91.3465845,186.64443 -51.2433099,87.200719 20.9729366,18.6196364"/>
    <path id="vertical-pattern-1-aM" d="M183.127803,83.954314 C362.755373,55.558124 294.7835,339.561512 137.050458,220.99824 C91.3465845,186.64443 -51.2433099,87.200719 20.9729366,18.6196364 C88.6249859,-45.6259917 127.137979,81.2306529 183.127803,83.954314 Z"/>
    <path id="vertical-pattern-1-aO" d="M183.127803,83.954314 C362.755373,55.558124 294.7835,339.561512 137.050458,220.99824 C91.3465845,186.64443 -51.2433099,87.200719 20.9729366,18.6196364"/>
    <path id="vertical-pattern-1-aQ" d="M183.127803,83.954314 C362.755373,55.558124 294.7835,339.561512 137.050458,220.99824 C91.3465845,186.64443 -51.2433099,87.200719 20.9729366,18.6196364 C88.6249859,-45.6259917 127.137979,81.2306529 183.127803,83.954314 Z"/>
    <path id="vertical-pattern-1-aS" d="M183.127803,83.954314 C362.755373,55.558124 294.7835,339.561512 137.050458,220.99824 C91.3465845,186.64443 -51.2433099,87.200719 20.9729366,18.6196364"/>
    <path id="vertical-pattern-1-aU" d="M183.127803,83.954314 C362.755373,55.558124 294.7835,339.561512 137.050458,220.99824 C91.3465845,186.64443 -51.2433099,87.200719 20.9729366,18.6196364 C88.6249859,-45.6259917 127.137979,81.2306529 183.127803,83.954314 Z"/>
    <path id="vertical-pattern-1-aW" d="M183.127803,83.954314 C362.755373,55.558124 294.7835,339.561512 137.050458,220.99824 C91.3465845,186.64443 -51.2433099,87.200719 20.9729366,18.6196364"/>
    <path id="vertical-pattern-1-aY" d="M183.127803,83.954314 C362.755373,55.558124 294.7835,339.561512 137.050458,220.99824 C91.3465845,186.64443 -51.2433099,87.200719 20.9729366,18.6196364 C88.6249859,-45.6259917 127.137979,81.2306529 183.127803,83.954314 Z"/>
    <path id="vertical-pattern-1-ba" d="M183.127803,83.954314 C362.755373,55.558124 294.7835,339.561512 137.050458,220.99824 C91.3465845,186.64443 -51.2433099,87.200719 20.9729366,18.6196364"/>
    <path id="vertical-pattern-1-bc" d="M183.127803,83.954314 C362.755373,55.558124 294.7835,339.561512 137.050458,220.99824 C91.3465845,186.64443 -51.2433099,87.200719 20.9729366,18.6196364 C88.6249859,-45.6259917 127.137979,81.2306529 183.127803,83.954314 Z"/>
    <path id="vertical-pattern-1-be" d="M183.127803,83.954314 C362.755373,55.558124 294.7835,339.561512 137.050458,220.99824 C91.3465845,186.64443 -51.2433099,87.200719 20.9729366,18.6196364"/>
    <path id="vertical-pattern-1-bg" d="M183.127803,83.954314 C362.755373,55.558124 294.7835,339.561512 137.050458,220.99824 C91.3465845,186.64443 -51.2433099,87.200719 20.9729366,18.6196364 C88.6249859,-45.6259917 127.137979,81.2306529 183.127803,83.954314 Z"/>
    <path id="vertical-pattern-1-bi" d="M183.127803,83.954314 C362.755373,55.558124 294.7835,339.561512 137.050458,220.99824 C91.3465845,186.64443 -51.2433099,87.200719 20.9729366,18.6196364"/>
    <path id="vertical-pattern-1-bk" d="M183.127803,83.954314 C362.755373,55.558124 294.7835,339.561512 137.050458,220.99824 C91.3465845,186.64443 -51.2433099,87.200719 20.9729366,18.6196364 C88.6249859,-45.6259917 127.137979,81.2306529 183.127803,83.954314 Z"/>
    <path id="vertical-pattern-1-bm" d="M183.127803,83.954314 C362.755373,55.558124 294.7835,339.561512 137.050458,220.99824 C91.3465845,186.64443 -51.2433099,87.200719 20.9729366,18.6196364"/>
    <path id="vertical-pattern-1-bo" d="M183.127803,83.954314 C362.755373,55.558124 294.7835,339.561512 137.050458,220.99824 C91.3465845,186.64443 -51.2433099,87.200719 20.9729366,18.6196364 C88.6249859,-45.6259917 127.137979,81.2306529 183.127803,83.954314 Z"/>
    <path id="vertical-pattern-1-bq" d="M183.127803,83.954314 C362.755373,55.558124 294.7835,339.561512 137.050458,220.99824 C91.3465845,186.64443 -51.2433099,87.200719 20.9729366,18.6196364"/>
    <path id="vertical-pattern-1-bs" d="M183.127803,83.954314 C362.755373,55.558124 294.7835,339.561512 137.050458,220.99824 C91.3465845,186.64443 -51.2433099,87.200719 20.9729366,18.6196364 C88.6249859,-45.6259917 127.137979,81.2306529 183.127803,83.954314 Z"/>
    <path id="vertical-pattern-1-bu" d="M183.127803,83.954314 C362.755373,55.558124 294.7835,339.561512 137.050458,220.99824 C91.3465845,186.64443 -51.2433099,87.200719 20.9729366,18.6196364"/>
    <path id="vertical-pattern-1-bw" d="M183.127803,83.954314 C362.755373,55.558124 294.7835,339.561512 137.050458,220.99824 C91.3465845,186.64443 -51.2433099,87.200719 20.9729366,18.6196364 C88.6249859,-45.6259917 127.137979,81.2306529 183.127803,83.954314 Z"/>
    <path id="vertical-pattern-1-by" d="M183.127803,83.954314 C362.755373,55.558124 294.7835,339.561512 137.050458,220.99824 C91.3465845,186.64443 -51.2433099,87.200719 20.9729366,18.6196364"/>
    <path id="vertical-pattern-1-bA" d="M183.127803,83.954314 C362.755373,55.558124 294.7835,339.561512 137.050458,220.99824 C91.3465845,186.64443 -51.2433099,87.200719 20.9729366,18.6196364 C88.6249859,-45.6259917 127.137979,81.2306529 183.127803,83.954314 Z"/>
    <path id="vertical-pattern-1-bC" d="M183.127803,83.954314 C362.755373,55.558124 294.7835,339.561512 137.050458,220.99824 C91.3465845,186.64443 -51.2433099,87.200719 20.9729366,18.6196364"/>
    <path id="vertical-pattern-1-bE" d="M183.127803,83.954314 C362.755373,55.558124 294.7835,339.561512 137.050458,220.99824 C91.3465845,186.64443 -51.2433099,87.200719 20.9729366,18.6196364 C88.6249859,-45.6259917 127.137979,81.2306529 183.127803,83.954314 Z"/>
    <path id="vertical-pattern-1-bG" d="M183.127803,83.954314 C362.755373,55.558124 294.7835,339.561512 137.050458,220.99824 C91.3465845,186.64443 -51.2433099,87.200719 20.9729366,18.6196364"/>
    <path id="vertical-pattern-1-bI" d="M183.127803,83.954314 C362.755373,55.558124 294.7835,339.561512 137.050458,220.99824 C91.3465845,186.64443 -51.2433099,87.200719 20.9729366,18.6196364 C88.6249859,-45.6259917 127.137979,81.2306529 183.127803,83.954314 Z"/>
    <path id="vertical-pattern-1-bK" d="M183.127803,83.954314 C362.755373,55.558124 294.7835,339.561512 137.050458,220.99824 C91.3465845,186.64443 -51.2433099,87.200719 20.9729366,18.6196364"/>
    <path id="vertical-pattern-1-bM" d="M183.127803,83.954314 C362.755373,55.558124 294.7835,339.561512 137.050458,220.99824 C91.3465845,186.64443 -51.2433099,87.200719 20.9729366,18.6196364 C88.6249859,-45.6259917 127.137979,81.2306529 183.127803,83.954314 Z"/>
    <path id="vertical-pattern-1-bO" d="M183.127803,83.954314 C362.755373,55.558124 294.7835,339.561512 137.050458,220.99824 C91.3465845,186.64443 -51.2433099,87.200719 20.9729366,18.6196364"/>
    <path id="vertical-pattern-1-bQ" d="M183.127803,83.954314 C362.755373,55.558124 294.7835,339.561512 137.050458,220.99824 C91.3465845,186.64443 -51.2433099,87.200719 20.9729366,18.6196364 C88.6249859,-45.6259917 127.137979,81.2306529 183.127803,83.954314 Z"/>
    <path id="vertical-pattern-1-bS" d="M183.127803,83.954314 C362.755373,55.558124 294.7835,339.561512 137.050458,220.99824 C91.3465845,186.64443 -51.2433099,87.200719 20.9729366,18.6196364"/>
    <path id="vertical-pattern-1-bU" d="M183.127803,83.954314 C362.755373,55.558124 294.7835,339.561512 137.050458,220.99824 C91.3465845,186.64443 -51.2433099,87.200719 20.9729366,18.6196364 C88.6249859,-45.6259917 127.137979,81.2306529 183.127803,83.954314 Z"/>
    <path id="vertical-pattern-1-bW" d="M183.127803,83.954314 C362.755373,55.558124 294.7835,339.561512 137.050458,220.99824 C91.3465845,186.64443 -51.2433099,87.200719 20.9729366,18.6196364"/>
    <path id="vertical-pattern-1-bY" d="M183.127803,83.954314 C362.755373,55.558124 294.7835,339.561512 137.050458,220.99824 C91.3465845,186.64443 -51.2433099,87.200719 20.9729366,18.6196364 C88.6249859,-45.6259917 127.137979,81.2306529 183.127803,83.954314 Z"/>
    <path id="vertical-pattern-1-ca" d="M183.127803,83.954314 C362.755373,55.558124 294.7835,339.561512 137.050458,220.99824 C91.3465845,186.64443 -51.2433099,87.200719 20.9729366,18.6196364"/>
    <path id="vertical-pattern-1-cc" d="M183.127803,83.954314 C362.755373,55.558124 294.7835,339.561512 137.050458,220.99824 C91.3465845,186.64443 -51.2433099,87.200719 20.9729366,18.6196364 C88.6249859,-45.6259917 127.137979,81.2306529 183.127803,83.954314 Z"/>
    <path id="vertical-pattern-1-ce" d="M183.127803,83.954314 C362.755373,55.558124 294.7835,339.561512 137.050458,220.99824 C91.3465845,186.64443 -51.2433099,87.200719 20.9729366,18.6196364"/>
    <path id="vertical-pattern-1-cg" d="M183.127803,83.954314 C362.755373,55.558124 294.7835,339.561512 137.050458,220.99824 C91.3465845,186.64443 -51.2433099,87.200719 20.9729366,18.6196364 C88.6249859,-45.6259917 127.137979,81.2306529 183.127803,83.954314 Z"/>
    <path id="vertical-pattern-1-ci" d="M183.127803,83.954314 C362.755373,55.558124 294.7835,339.561512 137.050458,220.99824 C91.3465845,186.64443 -51.2433099,87.200719 20.9729366,18.6196364"/>
    <path id="vertical-pattern-1-ck" d="M183.127803,83.954314 C362.755373,55.558124 294.7835,339.561512 137.050458,220.99824 C91.3465845,186.64443 -51.2433099,87.200719 20.9729366,18.6196364 C88.6249859,-45.6259917 127.137979,81.2306529 183.127803,83.954314 Z"/>
    <path id="vertical-pattern-1-cm" d="M163.68225,86.4463415 C242.329417,30.7091463 322.394153,112.516463 287.850986,193.761951 C250.708597,281.127439 186.644806,260.095122 130.538028,212.733537 C85.9477083,175.088902 -27.6875556,107.899512 7.45781944,36.2134146"/>
    <path id="vertical-pattern-1-co" d="M163.68225,86.4463415 C242.329417,30.7091463 322.394153,112.516463 287.850986,193.761951 C250.708597,281.127439 186.644806,260.095122 130.538028,212.733537 C85.9477083,175.088902 -27.6875556,107.899512 7.45781944,36.2134146 C60.1106944,-71.1871951 110.930042,99.4430488 163.68225,86.4463415 Z"/>
    <path id="vertical-pattern-1-cq" d="M163.68225,86.4463415 C242.329417,30.7091463 322.394153,112.516463 287.850986,193.761951 C250.708597,281.127439 186.644806,260.095122 130.538028,212.733537 C85.9477083,175.088902 -27.6875556,107.899512 7.45781944,36.2134146"/>
    <path id="vertical-pattern-1-cs" d="M163.68225,86.4463415 C242.329417,30.7091463 322.394153,112.516463 287.850986,193.761951 C250.708597,281.127439 186.644806,260.095122 130.538028,212.733537 C85.9477083,175.088902 -27.6875556,107.899512 7.45781944,36.2134146 C60.1106944,-71.1871951 110.930042,99.4430488 163.68225,86.4463415 Z"/>
    <path id="vertical-pattern-1-cu" d="M163.68225,86.4463415 C242.329417,30.7091463 322.394153,112.516463 287.850986,193.761951 C250.708597,281.127439 186.644806,260.095122 130.538028,212.733537 C85.9477083,175.088902 -27.6875556,107.899512 7.45781944,36.2134146"/>
    <path id="vertical-pattern-1-cw" d="M163.68225,86.4463415 C242.329417,30.7091463 322.394153,112.516463 287.850986,193.761951 C250.708597,281.127439 186.644806,260.095122 130.538028,212.733537 C85.9477083,175.088902 -27.6875556,107.899512 7.45781944,36.2134146 C60.1106944,-71.1871951 110.930042,99.4430488 163.68225,86.4463415 Z"/>
    <path id="vertical-pattern-1-cy" d="M163.68225,86.4463415 C242.329417,30.7091463 322.394153,112.516463 287.850986,193.761951 C250.708597,281.127439 186.644806,260.095122 130.538028,212.733537 C85.9477083,175.088902 -27.6875556,107.899512 7.45781944,36.2134146"/>
    <path id="vertical-pattern-1-cA" d="M163.68225,86.4463415 C242.329417,30.7091463 322.394153,112.516463 287.850986,193.761951 C250.708597,281.127439 186.644806,260.095122 130.538028,212.733537 C85.9477083,175.088902 -27.6875556,107.899512 7.45781944,36.2134146 C60.1106944,-71.1871951 110.930042,99.4430488 163.68225,86.4463415 Z"/>
    <path id="vertical-pattern-1-cC" d="M163.68225,86.4463415 C242.329417,30.7091463 322.394153,112.516463 287.850986,193.761951 C250.708597,281.127439 186.644806,260.095122 130.538028,212.733537 C85.9477083,175.088902 -27.6875556,107.899512 7.45781944,36.2134146"/>
    <path id="vertical-pattern-1-cE" d="M163.68225,86.4463415 C242.329417,30.7091463 322.394153,112.516463 287.850986,193.761951 C250.708597,281.127439 186.644806,260.095122 130.538028,212.733537 C85.9477083,175.088902 -27.6875556,107.899512 7.45781944,36.2134146 C60.1106944,-71.1871951 110.930042,99.4430488 163.68225,86.4463415 Z"/>
    <path id="vertical-pattern-1-cG" d="M163.68225,86.4463415 C242.329417,30.7091463 322.394153,112.516463 287.850986,193.761951 C250.708597,281.127439 186.644806,260.095122 130.538028,212.733537 C85.9477083,175.088902 -27.6875556,107.899512 7.45781944,36.2134146"/>
    <path id="vertical-pattern-1-cI" d="M163.68225,86.4463415 C242.329417,30.7091463 322.394153,112.516463 287.850986,193.761951 C250.708597,281.127439 186.644806,260.095122 130.538028,212.733537 C85.9477083,175.088902 -27.6875556,107.899512 7.45781944,36.2134146 C60.1106944,-71.1871951 110.930042,99.4430488 163.68225,86.4463415 Z"/>
    <path id="vertical-pattern-1-cK" d="M163.68225,86.4463415 C242.329417,30.7091463 322.394153,112.516463 287.850986,193.761951 C250.708597,281.127439 186.644806,260.095122 130.538028,212.733537 C85.9477083,175.088902 -27.6875556,107.899512 7.45781944,36.2134146"/>
    <path id="vertical-pattern-1-cM" d="M163.68225,86.4463415 C242.329417,30.7091463 322.394153,112.516463 287.850986,193.761951 C250.708597,281.127439 186.644806,260.095122 130.538028,212.733537 C85.9477083,175.088902 -27.6875556,107.899512 7.45781944,36.2134146 C60.1106944,-71.1871951 110.930042,99.4430488 163.68225,86.4463415 Z"/>
    <path id="vertical-pattern-1-cO" d="M163.68225,86.4463415 C242.329417,30.7091463 322.394153,112.516463 287.850986,193.761951 C250.708597,281.127439 186.644806,260.095122 130.538028,212.733537 C85.9477083,175.088902 -27.6875556,107.899512 7.45781944,36.2134146"/>
    <path id="vertical-pattern-1-cQ" d="M163.68225,86.4463415 C242.329417,30.7091463 322.394153,112.516463 287.850986,193.761951 C250.708597,281.127439 186.644806,260.095122 130.538028,212.733537 C85.9477083,175.088902 -27.6875556,107.899512 7.45781944,36.2134146 C60.1106944,-71.1871951 110.930042,99.4430488 163.68225,86.4463415 Z"/>
    <path id="vertical-pattern-1-cS" d="M163.68225,86.4463415 C242.329417,30.7091463 322.394153,112.516463 287.850986,193.761951 C250.708597,281.127439 186.644806,260.095122 130.538028,212.733537 C85.9477083,175.088902 -27.6875556,107.899512 7.45781944,36.2134146"/>
    <path id="vertical-pattern-1-cU" d="M163.68225,86.4463415 C242.329417,30.7091463 322.394153,112.516463 287.850986,193.761951 C250.708597,281.127439 186.644806,260.095122 130.538028,212.733537 C85.9477083,175.088902 -27.6875556,107.899512 7.45781944,36.2134146 C60.1106944,-71.1871951 110.930042,99.4430488 163.68225,86.4463415 Z"/>
    <path id="vertical-pattern-1-cW" d="M163.68225,86.4463415 C242.329417,30.7091463 322.394153,112.516463 287.850986,193.761951 C250.708597,281.127439 186.644806,260.095122 130.538028,212.733537 C85.9477083,175.088902 -27.6875556,107.899512 7.45781944,36.2134146"/>
    <path id="vertical-pattern-1-cY" d="M163.68225,86.4463415 C242.329417,30.7091463 322.394153,112.516463 287.850986,193.761951 C250.708597,281.127439 186.644806,260.095122 130.538028,212.733537 C85.9477083,175.088902 -27.6875556,107.899512 7.45781944,36.2134146 C60.1106944,-71.1871951 110.930042,99.4430488 163.68225,86.4463415 Z"/>
    <path id="vertical-pattern-1-da" d="M163.68225,86.4463415 C242.329417,30.7091463 322.394153,112.516463 287.850986,193.761951 C250.708597,281.127439 186.644806,260.095122 130.538028,212.733537 C85.9477083,175.088902 -27.6875556,107.899512 7.45781944,36.2134146"/>
    <path id="vertical-pattern-1-dc" d="M163.68225,86.4463415 C242.329417,30.7091463 322.394153,112.516463 287.850986,193.761951 C250.708597,281.127439 186.644806,260.095122 130.538028,212.733537 C85.9477083,175.088902 -27.6875556,107.899512 7.45781944,36.2134146 C60.1106944,-71.1871951 110.930042,99.4430488 163.68225,86.4463415 Z"/>
    <path id="vertical-pattern-1-de" d="M163.68225,86.4463415 C242.329417,30.7091463 322.394153,112.516463 287.850986,193.761951 C250.708597,281.127439 186.644806,260.095122 130.538028,212.733537 C85.9477083,175.088902 -27.6875556,107.899512 7.45781944,36.2134146"/>
    <path id="vertical-pattern-1-dg" d="M163.68225,86.4463415 C242.329417,30.7091463 322.394153,112.516463 287.850986,193.761951 C250.708597,281.127439 186.644806,260.095122 130.538028,212.733537 C85.9477083,175.088902 -27.6875556,107.899512 7.45781944,36.2134146 C60.1106944,-71.1871951 110.930042,99.4430488 163.68225,86.4463415 Z"/>
    <path id="vertical-pattern-1-di" d="M163.68225,86.4463415 C242.329417,30.7091463 322.394153,112.516463 287.850986,193.761951 C250.708597,281.127439 186.644806,260.095122 130.538028,212.733537 C85.9477083,175.088902 -27.6875556,107.899512 7.45781944,36.2134146"/>
    <path id="vertical-pattern-1-dk" d="M163.68225,86.4463415 C242.329417,30.7091463 322.394153,112.516463 287.850986,193.761951 C250.708597,281.127439 186.644806,260.095122 130.538028,212.733537 C85.9477083,175.088902 -27.6875556,107.899512 7.45781944,36.2134146 C60.1106944,-71.1871951 110.930042,99.4430488 163.68225,86.4463415 Z"/>
    <path id="vertical-pattern-1-dm" d="M163.68225,86.4463415 C242.329417,30.7091463 322.394153,112.516463 287.850986,193.761951 C250.708597,281.127439 186.644806,260.095122 130.538028,212.733537 C85.9477083,175.088902 -27.6875556,107.899512 7.45781944,36.2134146"/>
    <path id="vertical-pattern-1-do" d="M163.68225,86.4463415 C242.329417,30.7091463 322.394153,112.516463 287.850986,193.761951 C250.708597,281.127439 186.644806,260.095122 130.538028,212.733537 C85.9477083,175.088902 -27.6875556,107.899512 7.45781944,36.2134146 C60.1106944,-71.1871951 110.930042,99.4430488 163.68225,86.4463415 Z"/>
    <path id="vertical-pattern-1-dq" d="M163.68225,86.4463415 C242.329417,30.7091463 322.394153,112.516463 287.850986,193.761951 C250.708597,281.127439 186.644806,260.095122 130.538028,212.733537 C85.9477083,175.088902 -27.6875556,107.899512 7.45781944,36.2134146"/>
    <path id="vertical-pattern-1-ds" d="M163.68225,86.4463415 C242.329417,30.7091463 322.394153,112.516463 287.850986,193.761951 C250.708597,281.127439 186.644806,260.095122 130.538028,212.733537 C85.9477083,175.088902 -27.6875556,107.899512 7.45781944,36.2134146 C60.1106944,-71.1871951 110.930042,99.4430488 163.68225,86.4463415 Z"/>
    <path id="vertical-pattern-1-du" d="M163.68225,86.4463415 C242.329417,30.7091463 322.394153,112.516463 287.850986,193.761951 C250.708597,281.127439 186.644806,260.095122 130.538028,212.733537 C85.9477083,175.088902 -27.6875556,107.899512 7.45781944,36.2134146"/>
    <path id="vertical-pattern-1-dw" d="M163.68225,86.4463415 C242.329417,30.7091463 322.394153,112.516463 287.850986,193.761951 C250.708597,281.127439 186.644806,260.095122 130.538028,212.733537 C85.9477083,175.088902 -27.6875556,107.899512 7.45781944,36.2134146 C60.1106944,-71.1871951 110.930042,99.4430488 163.68225,86.4463415 Z"/>
    <path id="vertical-pattern-1-dy" d="M163.68225,86.4463415 C242.329417,30.7091463 322.394153,112.516463 287.850986,193.761951 C250.708597,281.127439 186.644806,260.095122 130.538028,212.733537 C85.9477083,175.088902 -27.6875556,107.899512 7.45781944,36.2134146"/>
    <path id="vertical-pattern-1-dA" d="M163.68225,86.4463415 C242.329417,30.7091463 322.394153,112.516463 287.850986,193.761951 C250.708597,281.127439 186.644806,260.095122 130.538028,212.733537 C85.9477083,175.088902 -27.6875556,107.899512 7.45781944,36.2134146 C60.1106944,-71.1871951 110.930042,99.4430488 163.68225,86.4463415 Z"/>
    <path id="vertical-pattern-1-dC" d="M163.68225,86.4463415 C242.329417,30.7091463 322.394153,112.516463 287.850986,193.761951 C250.708597,281.127439 186.644806,260.095122 130.538028,212.733537 C85.9477083,175.088902 -27.6875556,107.899512 7.45781944,36.2134146"/>
    <path id="vertical-pattern-1-dE" d="M163.68225,86.4463415 C242.329417,30.7091463 322.394153,112.516463 287.850986,193.761951 C250.708597,281.127439 186.644806,260.095122 130.538028,212.733537 C85.9477083,175.088902 -27.6875556,107.899512 7.45781944,36.2134146 C60.1106944,-71.1871951 110.930042,99.4430488 163.68225,86.4463415 Z"/>
    <path id="vertical-pattern-1-dG" d="M163.68225,86.4463415 C242.329417,30.7091463 322.394153,112.516463 287.850986,193.761951 C250.708597,281.127439 186.644806,260.095122 130.538028,212.733537 C85.9477083,175.088902 -27.6875556,107.899512 7.45781944,36.2134146"/>
    <path id="vertical-pattern-1-dI" d="M163.68225,86.4463415 C242.329417,30.7091463 322.394153,112.516463 287.850986,193.761951 C250.708597,281.127439 186.644806,260.095122 130.538028,212.733537 C85.9477083,175.088902 -27.6875556,107.899512 7.45781944,36.2134146 C60.1106944,-71.1871951 110.930042,99.4430488 163.68225,86.4463415 Z"/>
    <path id="vertical-pattern-1-dK" d="M163.68225,86.4463415 C242.329417,30.7091463 322.394153,112.516463 287.850986,193.761951 C250.708597,281.127439 186.644806,260.095122 130.538028,212.733537 C85.9477083,175.088902 -27.6875556,107.899512 7.45781944,36.2134146"/>
    <path id="vertical-pattern-1-dM" d="M163.68225,86.4463415 C242.329417,30.7091463 322.394153,112.516463 287.850986,193.761951 C250.708597,281.127439 186.644806,260.095122 130.538028,212.733537 C85.9477083,175.088902 -27.6875556,107.899512 7.45781944,36.2134146 C60.1106944,-71.1871951 110.930042,99.4430488 163.68225,86.4463415 Z"/>
    <path id="vertical-pattern-1-dO" d="M163.68225,86.4463415 C242.329417,30.7091463 322.394153,112.516463 287.850986,193.761951 C250.708597,281.127439 186.644806,260.095122 130.538028,212.733537 C85.9477083,175.088902 -27.6875556,107.899512 7.45781944,36.2134146"/>
    <path id="vertical-pattern-1-dQ" d="M163.68225,86.4463415 C242.329417,30.7091463 322.394153,112.516463 287.850986,193.761951 C250.708597,281.127439 186.644806,260.095122 130.538028,212.733537 C85.9477083,175.088902 -27.6875556,107.899512 7.45781944,36.2134146 C60.1106944,-71.1871951 110.930042,99.4430488 163.68225,86.4463415 Z"/>
    <path id="vertical-pattern-1-dS" d="M163.68225,86.4463415 C242.329417,30.7091463 322.394153,112.516463 287.850986,193.761951 C250.708597,281.127439 186.644806,260.095122 130.538028,212.733537 C85.9477083,175.088902 -27.6875556,107.899512 7.45781944,36.2134146"/>
    <path id="vertical-pattern-1-dU" d="M163.68225,86.4463415 C242.329417,30.7091463 322.394153,112.516463 287.850986,193.761951 C250.708597,281.127439 186.644806,260.095122 130.538028,212.733537 C85.9477083,175.088902 -27.6875556,107.899512 7.45781944,36.2134146 C60.1106944,-71.1871951 110.930042,99.4430488 163.68225,86.4463415 Z"/>
    <path id="vertical-pattern-1-dW" d="M163.68225,86.4463415 C242.329417,30.7091463 322.394153,112.516463 287.850986,193.761951 C250.708597,281.127439 186.644806,260.095122 130.538028,212.733537 C85.9477083,175.088902 -27.6875556,107.899512 7.45781944,36.2134146"/>
    <path id="vertical-pattern-1-dY" d="M163.68225,86.4463415 C242.329417,30.7091463 322.394153,112.516463 287.850986,193.761951 C250.708597,281.127439 186.644806,260.095122 130.538028,212.733537 C85.9477083,175.088902 -27.6875556,107.899512 7.45781944,36.2134146 C60.1106944,-71.1871951 110.930042,99.4430488 163.68225,86.4463415 Z"/>
    <path id="vertical-pattern-1-ea" d="M163.68225,86.4463415 C242.329417,30.7091463 322.394153,112.516463 287.850986,193.761951 C250.708597,281.127439 186.644806,260.095122 130.538028,212.733537 C85.9477083,175.088902 -27.6875556,107.899512 7.45781944,36.2134146"/>
    <path id="vertical-pattern-1-ec" d="M163.68225,86.4463415 C242.329417,30.7091463 322.394153,112.516463 287.850986,193.761951 C250.708597,281.127439 186.644806,260.095122 130.538028,212.733537 C85.9477083,175.088902 -27.6875556,107.899512 7.45781944,36.2134146 C60.1106944,-71.1871951 110.930042,99.4430488 163.68225,86.4463415 Z"/>
    <path id="vertical-pattern-1-ee" d="M163.68225,86.4463415 C242.329417,30.7091463 322.394153,112.516463 287.850986,193.761951 C250.708597,281.127439 186.644806,260.095122 130.538028,212.733537 C85.9477083,175.088902 -27.6875556,107.899512 7.45781944,36.2134146"/>
    <path id="vertical-pattern-1-eg" d="M163.68225,86.4463415 C242.329417,30.7091463 322.394153,112.516463 287.850986,193.761951 C250.708597,281.127439 186.644806,260.095122 130.538028,212.733537 C85.9477083,175.088902 -27.6875556,107.899512 7.45781944,36.2134146 C60.1106944,-71.1871951 110.930042,99.4430488 163.68225,86.4463415 Z"/>
    <path id="vertical-pattern-1-ei" d="M163.68225,86.4463415 C242.329417,30.7091463 322.394153,112.516463 287.850986,193.761951 C250.708597,281.127439 186.644806,260.095122 130.538028,212.733537 C85.9477083,175.088902 -27.6875556,107.899512 7.45781944,36.2134146"/>
    <path id="vertical-pattern-1-ek" d="M163.68225,86.4463415 C242.329417,30.7091463 322.394153,112.516463 287.850986,193.761951 C250.708597,281.127439 186.644806,260.095122 130.538028,212.733537 C85.9477083,175.088902 -27.6875556,107.899512 7.45781944,36.2134146 C60.1106944,-71.1871951 110.930042,99.4430488 163.68225,86.4463415 Z"/>
    <path id="vertical-pattern-1-em" d="M163.68225,86.4463415 C242.329417,30.7091463 322.394153,112.516463 287.850986,193.761951 C250.708597,281.127439 186.644806,260.095122 130.538028,212.733537 C85.9477083,175.088902 -27.6875556,107.899512 7.45781944,36.2134146"/>
    <path id="vertical-pattern-1-eo" d="M163.68225,86.4463415 C242.329417,30.7091463 322.394153,112.516463 287.850986,193.761951 C250.708597,281.127439 186.644806,260.095122 130.538028,212.733537 C85.9477083,175.088902 -27.6875556,107.899512 7.45781944,36.2134146 C60.1106944,-71.1871951 110.930042,99.4430488 163.68225,86.4463415 Z"/>
    <path id="vertical-pattern-1-eq" d="M163.68225,86.4463415 C242.329417,30.7091463 322.394153,112.516463 287.850986,193.761951 C250.708597,281.127439 186.644806,260.095122 130.538028,212.733537 C85.9477083,175.088902 -27.6875556,107.899512 7.45781944,36.2134146"/>
    <path id="vertical-pattern-1-es" d="M163.68225,86.4463415 C242.329417,30.7091463 322.394153,112.516463 287.850986,193.761951 C250.708597,281.127439 186.644806,260.095122 130.538028,212.733537 C85.9477083,175.088902 -27.6875556,107.899512 7.45781944,36.2134146 C60.1106944,-71.1871951 110.930042,99.4430488 163.68225,86.4463415 Z"/>
    <path id="vertical-pattern-1-eu" d="M163.68225,86.4463415 C242.329417,30.7091463 322.394153,112.516463 287.850986,193.761951 C250.708597,281.127439 186.644806,260.095122 130.538028,212.733537 C85.9477083,175.088902 -27.6875556,107.899512 7.45781944,36.2134146"/>
    <path id="vertical-pattern-1-ew" d="M163.68225,86.4463415 C242.329417,30.7091463 322.394153,112.516463 287.850986,193.761951 C250.708597,281.127439 186.644806,260.095122 130.538028,212.733537 C85.9477083,175.088902 -27.6875556,107.899512 7.45781944,36.2134146 C60.1106944,-71.1871951 110.930042,99.4430488 163.68225,86.4463415 Z"/>
    <path id="vertical-pattern-1-ey" d="M163.68225,86.4463415 C242.329417,30.7091463 322.394153,112.516463 287.850986,193.761951 C250.708597,281.127439 186.644806,260.095122 130.538028,212.733537 C85.9477083,175.088902 -27.6875556,107.899512 7.45781944,36.2134146"/>
    <path id="vertical-pattern-1-eA" d="M163.68225,86.4463415 C242.329417,30.7091463 322.394153,112.516463 287.850986,193.761951 C250.708597,281.127439 186.644806,260.095122 130.538028,212.733537 C85.9477083,175.088902 -27.6875556,107.899512 7.45781944,36.2134146 C60.1106944,-71.1871951 110.930042,99.4430488 163.68225,86.4463415 Z"/>
    <path id="vertical-pattern-1-eC" d="M163.68225,86.4463415 C242.329417,30.7091463 322.394153,112.516463 287.850986,193.761951 C250.708597,281.127439 186.644806,260.095122 130.538028,212.733537 C85.9477083,175.088902 -27.6875556,107.899512 7.45781944,36.2134146"/>
    <path id="vertical-pattern-1-eE" d="M163.68225,86.4463415 C242.329417,30.7091463 322.394153,112.516463 287.850986,193.761951 C250.708597,281.127439 186.644806,260.095122 130.538028,212.733537 C85.9477083,175.088902 -27.6875556,107.899512 7.45781944,36.2134146 C60.1106944,-71.1871951 110.930042,99.4430488 163.68225,86.4463415 Z"/>
    <path id="vertical-pattern-1-eG" d="M163.68225,86.4463415 C242.329417,30.7091463 322.394153,112.516463 287.850986,193.761951 C250.708597,281.127439 186.644806,260.095122 130.538028,212.733537 C85.9477083,175.088902 -27.6875556,107.899512 7.45781944,36.2134146"/>
    <path id="vertical-pattern-1-eI" d="M163.68225,86.4463415 C242.329417,30.7091463 322.394153,112.516463 287.850986,193.761951 C250.708597,281.127439 186.644806,260.095122 130.538028,212.733537 C85.9477083,175.088902 -27.6875556,107.899512 7.45781944,36.2134146 C60.1106944,-71.1871951 110.930042,99.4430488 163.68225,86.4463415 Z"/>
    <path id="vertical-pattern-1-eK" d="M163.68225,86.4463415 C242.329417,30.7091463 322.394153,112.516463 287.850986,193.761951 C250.708597,281.127439 186.644806,260.095122 130.538028,212.733537 C85.9477083,175.088902 -27.6875556,107.899512 7.45781944,36.2134146"/>
    <path id="vertical-pattern-1-eM" d="M163.68225,86.4463415 C242.329417,30.7091463 322.394153,112.516463 287.850986,193.761951 C250.708597,281.127439 186.644806,260.095122 130.538028,212.733537 C85.9477083,175.088902 -27.6875556,107.899512 7.45781944,36.2134146 C60.1106944,-71.1871951 110.930042,99.4430488 163.68225,86.4463415 Z"/>
    <path id="vertical-pattern-1-eO" d="M163.68225,86.4463415 C242.329417,30.7091463 322.394153,112.516463 287.850986,193.761951 C250.708597,281.127439 186.644806,260.095122 130.538028,212.733537 C85.9477083,175.088902 -27.6875556,107.899512 7.45781944,36.2134146"/>
    <path id="vertical-pattern-1-eQ" d="M163.68225,86.4463415 C242.329417,30.7091463 322.394153,112.516463 287.850986,193.761951 C250.708597,281.127439 186.644806,260.095122 130.538028,212.733537 C85.9477083,175.088902 -27.6875556,107.899512 7.45781944,36.2134146 C60.1106944,-71.1871951 110.930042,99.4430488 163.68225,86.4463415 Z"/>
    <path id="vertical-pattern-1-eS" d="M163.68225,86.4463415 C242.329417,30.7091463 322.394153,112.516463 287.850986,193.761951 C250.708597,281.127439 186.644806,260.095122 130.538028,212.733537 C85.9477083,175.088902 -27.6875556,107.899512 7.45781944,36.2134146"/>
    <path id="vertical-pattern-1-eU" d="M163.68225,86.4463415 C242.329417,30.7091463 322.394153,112.516463 287.850986,193.761951 C250.708597,281.127439 186.644806,260.095122 130.538028,212.733537 C85.9477083,175.088902 -27.6875556,107.899512 7.45781944,36.2134146 C60.1106944,-71.1871951 110.930042,99.4430488 163.68225,86.4463415 Z"/>
    <path id="vertical-pattern-1-eW" d="M163.68225,86.4463415 C242.329417,30.7091463 322.394153,112.516463 287.850986,193.761951 C250.708597,281.127439 186.644806,260.095122 130.538028,212.733537 C85.9477083,175.088902 -27.6875556,107.899512 7.45781944,36.2134146"/>
    <path id="vertical-pattern-1-eY" d="M163.68225,86.4463415 C242.329417,30.7091463 322.394153,112.516463 287.850986,193.761951 C250.708597,281.127439 186.644806,260.095122 130.538028,212.733537 C85.9477083,175.088902 -27.6875556,107.899512 7.45781944,36.2134146 C60.1106944,-71.1871951 110.930042,99.4430488 163.68225,86.4463415 Z"/>
    <path id="vertical-pattern-1-fa" d="M163.68225,86.4463415 C242.329417,30.7091463 322.394153,112.516463 287.850986,193.761951 C250.708597,281.127439 186.644806,260.095122 130.538028,212.733537 C85.9477083,175.088902 -27.6875556,107.899512 7.45781944,36.2134146"/>
    <path id="vertical-pattern-1-fc" d="M163.68225,86.4463415 C242.329417,30.7091463 322.394153,112.516463 287.850986,193.761951 C250.708597,281.127439 186.644806,260.095122 130.538028,212.733537 C85.9477083,175.088902 -27.6875556,107.899512 7.45781944,36.2134146 C60.1106944,-71.1871951 110.930042,99.4430488 163.68225,86.4463415 Z"/>
    <path id="vertical-pattern-1-fe" d="M163.68225,86.4463415 C242.329417,30.7091463 322.394153,112.516463 287.850986,193.761951 C250.708597,281.127439 186.644806,260.095122 130.538028,212.733537 C85.9477083,175.088902 -27.6875556,107.899512 7.45781944,36.2134146"/>
    <path id="vertical-pattern-1-fg" d="M163.68225,86.4463415 C242.329417,30.7091463 322.394153,112.516463 287.850986,193.761951 C250.708597,281.127439 186.644806,260.095122 130.538028,212.733537 C85.9477083,175.088902 -27.6875556,107.899512 7.45781944,36.2134146 C60.1106944,-71.1871951 110.930042,99.4430488 163.68225,86.4463415 Z"/>
    <path id="vertical-pattern-1-fi" d="M163.68225,86.4463415 C242.329417,30.7091463 322.394153,112.516463 287.850986,193.761951 C250.708597,281.127439 186.644806,260.095122 130.538028,212.733537 C85.9477083,175.088902 -27.6875556,107.899512 7.45781944,36.2134146"/>
    <path id="vertical-pattern-1-fk" d="M163.68225,86.4463415 C242.329417,30.7091463 322.394153,112.516463 287.850986,193.761951 C250.708597,281.127439 186.644806,260.095122 130.538028,212.733537 C85.9477083,175.088902 -27.6875556,107.899512 7.45781944,36.2134146 C60.1106944,-71.1871951 110.930042,99.4430488 163.68225,86.4463415 Z"/>
    <path id="vertical-pattern-1-fm" d="M163.68225,86.4463415 C242.329417,30.7091463 322.394153,112.516463 287.850986,193.761951 C250.708597,281.127439 186.644806,260.095122 130.538028,212.733537 C85.9477083,175.088902 -27.6875556,107.899512 7.45781944,36.2134146"/>
    <path id="vertical-pattern-1-fo" d="M163.68225,86.4463415 C242.329417,30.7091463 322.394153,112.516463 287.850986,193.761951 C250.708597,281.127439 186.644806,260.095122 130.538028,212.733537 C85.9477083,175.088902 -27.6875556,107.899512 7.45781944,36.2134146 C60.1106944,-71.1871951 110.930042,99.4430488 163.68225,86.4463415 Z"/>
    <path id="vertical-pattern-1-fq" d="M163.68225,86.4463415 C242.329417,30.7091463 322.394153,112.516463 287.850986,193.761951 C250.708597,281.127439 186.644806,260.095122 130.538028,212.733537 C85.9477083,175.088902 -27.6875556,107.899512 7.45781944,36.2134146"/>
    <path id="vertical-pattern-1-fs" d="M163.68225,86.4463415 C242.329417,30.7091463 322.394153,112.516463 287.850986,193.761951 C250.708597,281.127439 186.644806,260.095122 130.538028,212.733537 C85.9477083,175.088902 -27.6875556,107.899512 7.45781944,36.2134146 C60.1106944,-71.1871951 110.930042,99.4430488 163.68225,86.4463415 Z"/>
    <path id="vertical-pattern-1-fu" d="M163.68225,86.4463415 C242.329417,30.7091463 322.394153,112.516463 287.850986,193.761951 C250.708597,281.127439 186.644806,260.095122 130.538028,212.733537 C85.9477083,175.088902 -27.6875556,107.899512 7.45781944,36.2134146"/>
    <path id="vertical-pattern-1-fw" d="M163.68225,86.4463415 C242.329417,30.7091463 322.394153,112.516463 287.850986,193.761951 C250.708597,281.127439 186.644806,260.095122 130.538028,212.733537 C85.9477083,175.088902 -27.6875556,107.899512 7.45781944,36.2134146 C60.1106944,-71.1871951 110.930042,99.4430488 163.68225,86.4463415 Z"/>
  </defs>
  <g fill="none" fill-rule="evenodd" transform="rotate(120 171.775 134.141)">
    <g transform="translate(0 24)">
      <mask id="vertical-pattern-1-b" fill="#fff">
        <use xlink:href="#vertical-pattern-1-a"/>
      </mask>
      <path fill="#40F9FF" d="M-100.820561,109.113434 L209.355017,-202.71569" mask="url(#vertical-pattern-1-b)"/>
      <mask id="vertical-pattern-1-d" fill="#fff">
        <use xlink:href="#vertical-pattern-1-c"/>
      </mask>
      <polygon fill="#96FCFF" points="-99.535 110.406 -102.106 107.821 208.068 -204.008 210.639 -201.423" mask="url(#vertical-pattern-1-d)"/>
      <mask id="vertical-pattern-1-f" fill="#fff">
        <use xlink:href="#vertical-pattern-1-e"/>
      </mask>
      <path fill="#40F9FF" d="M-93.2832387,116.6899 L216.892339,-195.13715" mask="url(#vertical-pattern-1-f)"/>
      <mask id="vertical-pattern-1-h" fill="#fff">
        <use xlink:href="#vertical-pattern-1-g"/>
      </mask>
      <polygon fill="#96FCFF" points="-91.997 117.984 -94.568 115.4 215.606 -196.429 218.177 -193.845" mask="url(#vertical-pattern-1-h)"/>
      <mask id="vertical-pattern-1-j" fill="#fff">
        <use xlink:href="#vertical-pattern-1-i"/>
      </mask>
      <path fill="#40F9FF" d="M-85.7450915,124.268233 L224.430486,-187.560891" mask="url(#vertical-pattern-1-j)"/>
      <mask id="vertical-pattern-1-l" fill="#fff">
        <use xlink:href="#vertical-pattern-1-k"/>
      </mask>
      <polygon fill="#96FCFF" points="-84.46 125.563 -87.031 122.978 223.143 -188.851 225.714 -186.266" mask="url(#vertical-pattern-1-l)"/>
      <mask id="vertical-pattern-1-n" fill="#fff">
        <use xlink:href="#vertical-pattern-1-m"/>
      </mask>
      <path fill="#40F9FF" d="M-78.2079761,131.846566 L231.967601,-179.982558" mask="url(#vertical-pattern-1-n)"/>
      <mask id="vertical-pattern-1-p" fill="#fff">
        <use xlink:href="#vertical-pattern-1-o"/>
      </mask>
      <polygon fill="#96FCFF" points="-76.921 133.139 -79.492 130.554 230.681 -181.275 233.252 -178.69" mask="url(#vertical-pattern-1-p)"/>
      <mask id="vertical-pattern-1-r" fill="#fff">
        <use xlink:href="#vertical-pattern-1-q"/>
      </mask>
      <path fill="#40F9FF" d="M-70.6698289,139.424899 L239.505749,-172.404225" mask="url(#vertical-pattern-1-r)"/>
      <mask id="vertical-pattern-1-t" fill="#fff">
        <use xlink:href="#vertical-pattern-1-s"/>
      </mask>
      <polygon fill="#96FCFF" points="-69.384 140.717 -71.955 138.133 238.218 -173.696 240.789 -171.112" mask="url(#vertical-pattern-1-t)"/>
      <mask id="vertical-pattern-1-v" fill="#fff">
        <use xlink:href="#vertical-pattern-1-u"/>
      </mask>
      <path fill="#40F9FF" d="M-63.132507,147.001365 L247.04307,-164.825684" mask="url(#vertical-pattern-1-v)"/>
      <mask id="vertical-pattern-1-x" fill="#fff">
        <use xlink:href="#vertical-pattern-1-w"/>
      </mask>
      <polygon fill="#96FCFF" points="-61.846 148.296 -64.417 145.711 245.757 -166.118 248.328 -163.533" mask="url(#vertical-pattern-1-x)"/>
      <mask id="vertical-pattern-1-z" fill="#fff">
        <use xlink:href="#vertical-pattern-1-y"/>
      </mask>
      <path fill="#40F9FF" d="M-55.5943599,154.579698 L254.581218,-157.249426" mask="url(#vertical-pattern-1-z)"/>
      <mask id="vertical-pattern-1-B" fill="#fff">
        <use xlink:href="#vertical-pattern-1-A"/>
      </mask>
      <polygon fill="#96FCFF" points="-54.308 155.874 -56.881 153.289 253.295 -158.54 255.866 -155.955" mask="url(#vertical-pattern-1-B)"/>
      <mask id="vertical-pattern-1-D" fill="#fff">
        <use xlink:href="#vertical-pattern-1-C"/>
      </mask>
      <path fill="#40F9FF" d="M-48.0572444,162.158031 L262.118333,-149.671093" mask="url(#vertical-pattern-1-D)"/>
      <mask id="vertical-pattern-1-F" fill="#fff">
        <use xlink:href="#vertical-pattern-1-E"/>
      </mask>
      <polygon fill="#96FCFF" points="-46.771 163.45 -49.341 160.866 260.832 -150.963 263.403 -148.379" mask="url(#vertical-pattern-1-F)"/>
      <mask id="vertical-pattern-1-H" fill="#fff">
        <use xlink:href="#vertical-pattern-1-G"/>
      </mask>
      <path fill="#40F9FF" d="M-40.5190972,169.736364 L269.65648,-142.09276" mask="url(#vertical-pattern-1-H)"/>
      <mask id="vertical-pattern-1-J" fill="#fff">
        <use xlink:href="#vertical-pattern-1-I"/>
      </mask>
      <polygon fill="#96FCFF" points="-39.232 171.029 -41.803 168.444 268.37 -143.385 270.941 -140.8" mask="url(#vertical-pattern-1-J)"/>
      <mask id="vertical-pattern-1-L" fill="#fff">
        <use xlink:href="#vertical-pattern-1-K"/>
      </mask>
      <path fill="#40F9FF" d="M-32.9817754,177.312831 L277.193802,-134.514219" mask="url(#vertical-pattern-1-L)"/>
      <mask id="vertical-pattern-1-N" fill="#fff">
        <use xlink:href="#vertical-pattern-1-M"/>
      </mask>
      <polygon fill="#96FCFF" points="-31.695 178.607 -34.266 176.023 275.907 -135.807 278.478 -133.222" mask="url(#vertical-pattern-1-N)"/>
      <mask id="vertical-pattern-1-P" fill="#fff">
        <use xlink:href="#vertical-pattern-1-O"/>
      </mask>
      <path fill="#40F9FF" d="M-25.4436282,184.891164 L284.731949,-126.93796" mask="url(#vertical-pattern-1-P)"/>
      <mask id="vertical-pattern-1-R" fill="#fff">
        <use xlink:href="#vertical-pattern-1-Q"/>
      </mask>
      <polygon fill="#96FCFF" points="-24.157 186.186 -26.728 183.601 283.445 -128.228 286.016 -125.644" mask="url(#vertical-pattern-1-R)"/>
      <mask id="vertical-pattern-1-T" fill="#fff">
        <use xlink:href="#vertical-pattern-1-S"/>
      </mask>
      <path fill="#40F9FF" d="M-17.9065127,192.469497 L292.269065,-119.359627" mask="url(#vertical-pattern-1-T)"/>
      <mask id="vertical-pattern-1-V" fill="#fff">
        <use xlink:href="#vertical-pattern-1-U"/>
      </mask>
      <polygon fill="#96FCFF" points="-16.62 193.762 -19.191 191.177 290.983 -120.652 293.554 -118.067" mask="url(#vertical-pattern-1-V)"/>
      <mask id="vertical-pattern-1-X" fill="#fff">
        <use xlink:href="#vertical-pattern-1-W"/>
      </mask>
      <path fill="#40F9FF" d="M-10.3683655,200.04783 L299.807212,-111.781294" mask="url(#vertical-pattern-1-X)"/>
      <mask id="vertical-pattern-1-Z" fill="#fff">
        <use xlink:href="#vertical-pattern-1-Y"/>
      </mask>
      <polygon fill="#96FCFF" points="-9.082 201.34 -11.653 198.756 298.521 -113.073 301.092 -110.489" mask="url(#vertical-pattern-1-Z)"/>
      <mask id="vertical-pattern-1-ab" fill="#fff">
        <use xlink:href="#vertical-pattern-1-aa"/>
      </mask>
      <path fill="#40F9FF" d="M-2.83104366,207.624296 L307.344534,-104.202754" mask="url(#vertical-pattern-1-ab)"/>
      <mask id="vertical-pattern-1-ad" fill="#fff">
        <use xlink:href="#vertical-pattern-1-ac"/>
      </mask>
      <polygon fill="#96FCFF" points="-1.545 208.919 -4.115 206.334 306.058 -105.495 308.629 -102.91" mask="url(#vertical-pattern-1-ad)"/>
      <mask id="vertical-pattern-1-af" fill="#fff">
        <use xlink:href="#vertical-pattern-1-ae"/>
      </mask>
      <path fill="#40F9FF" d="M4.70710352,215.202629 L314.882681,-96.626495" mask="url(#vertical-pattern-1-af)"/>
      <mask id="vertical-pattern-1-ah" fill="#fff">
        <use xlink:href="#vertical-pattern-1-ag"/>
      </mask>
      <polygon fill="#96FCFF" points="5.994 216.497 3.423 213.912 313.596 -97.917 316.167 -95.332" mask="url(#vertical-pattern-1-ah)"/>
      <mask id="vertical-pattern-1-aj" fill="#fff">
        <use xlink:href="#vertical-pattern-1-ai"/>
      </mask>
      <path fill="#40F9FF" d="M12.244219,222.780962 L322.419796,-89.048162" mask="url(#vertical-pattern-1-aj)"/>
      <mask id="vertical-pattern-1-al" fill="#fff">
        <use xlink:href="#vertical-pattern-1-ak"/>
      </mask>
      <polygon fill="#96FCFF" points="13.531 224.074 10.96 221.489 321.133 -90.34 323.704 -87.756" mask="url(#vertical-pattern-1-al)"/>
      <mask id="vertical-pattern-1-an" fill="#fff">
        <use xlink:href="#vertical-pattern-1-am"/>
      </mask>
      <path fill="#40F9FF" d="M19.7825725,230.359295 L329.95815,-81.4698289" mask="url(#vertical-pattern-1-an)"/>
      <mask id="vertical-pattern-1-ap" fill="#fff">
        <use xlink:href="#vertical-pattern-1-ao"/>
      </mask>
      <polygon fill="#96FCFF" points="21.069 231.652 18.498 229.067 328.672 -82.762 331.243 -80.177" mask="url(#vertical-pattern-1-ap)"/>
      <mask id="vertical-pattern-1-ar" fill="#fff">
        <use xlink:href="#vertical-pattern-1-aq"/>
      </mask>
      <path fill="#40F9FF" d="M27.319688,237.935761 L337.495265,-73.8912884" mask="url(#vertical-pattern-1-ar)"/>
      <mask id="vertical-pattern-1-at" fill="#fff">
        <use xlink:href="#vertical-pattern-1-as"/>
      </mask>
      <polygon fill="#96FCFF" points="28.606 239.23 26.035 236.645 336.209 -75.184 338.78 -72.599" mask="url(#vertical-pattern-1-at)"/>
      <mask id="vertical-pattern-1-av" fill="#fff">
        <use xlink:href="#vertical-pattern-1-au"/>
      </mask>
      <path fill="#40F9FF" d="M34.8578352,245.514094 L345.033413,-66.3129554" mask="url(#vertical-pattern-1-av)"/>
      <mask id="vertical-pattern-1-ax" fill="#fff">
        <use xlink:href="#vertical-pattern-1-aw"/>
      </mask>
      <polygon fill="#96FCFF" points="36.144 246.809 33.573 244.224 343.747 -67.605 346.318 -65.021" mask="url(#vertical-pattern-1-ax)"/>
      <mask id="vertical-pattern-1-az" fill="#fff">
        <use xlink:href="#vertical-pattern-1-ay"/>
      </mask>
      <path fill="#40F9FF" d="M42.3949507,253.092427 L352.570528,-58.7366967" mask="url(#vertical-pattern-1-az)"/>
      <mask id="vertical-pattern-1-aB" fill="#fff">
        <use xlink:href="#vertical-pattern-1-aA"/>
      </mask>
      <polygon fill="#96FCFF" points="43.682 254.385 41.111 251.8 351.284 -60.029 353.855 -57.444" mask="url(#vertical-pattern-1-aB)"/>
      <mask id="vertical-pattern-1-aD" fill="#fff">
        <use xlink:href="#vertical-pattern-1-aC"/>
      </mask>
      <path fill="#40F9FF" d="M49.9333042,260.67076 L360.108882,-51.1583636" mask="url(#vertical-pattern-1-aD)"/>
      <mask id="vertical-pattern-1-aF" fill="#fff">
        <use xlink:href="#vertical-pattern-1-aE"/>
      </mask>
      <polygon fill="#96FCFF" points="51.22 261.963 48.649 259.379 358.822 -52.45 361.393 -49.866" mask="url(#vertical-pattern-1-aF)"/>
      <mask id="vertical-pattern-1-aH" fill="#fff">
        <use xlink:href="#vertical-pattern-1-aG"/>
      </mask>
      <path fill="#40F9FF" d="M57.4714514,268.249301 L367.647029,-43.5798231" mask="url(#vertical-pattern-1-aH)"/>
      <mask id="vertical-pattern-1-aJ" fill="#fff">
        <use xlink:href="#vertical-pattern-1-aI"/>
      </mask>
      <polygon fill="#96FCFF" points="58.757 269.542 56.186 266.957 366.359 -44.872 368.93 -42.287" mask="url(#vertical-pattern-1-aJ)"/>
      <mask id="vertical-pattern-1-aL" fill="#fff">
        <use xlink:href="#vertical-pattern-1-aK"/>
      </mask>
      <path fill="#40F9FF" d="M65.0085669,275.82556 L375.184144,-36.0014901" mask="url(#vertical-pattern-1-aL)"/>
      <mask id="vertical-pattern-1-aN" fill="#fff">
        <use xlink:href="#vertical-pattern-1-aM"/>
      </mask>
      <polygon fill="#96FCFF" points="66.295 277.12 63.724 274.535 373.898 -37.294 376.469 -34.709" mask="url(#vertical-pattern-1-aN)"/>
      <mask id="vertical-pattern-1-aP" fill="#fff">
        <use xlink:href="#vertical-pattern-1-aO"/>
      </mask>
      <path fill="#40F9FF" d="M72.5467141,283.403893 L382.722292,-28.4252314" mask="url(#vertical-pattern-1-aP)"/>
      <mask id="vertical-pattern-1-aR" fill="#fff">
        <use xlink:href="#vertical-pattern-1-aQ"/>
      </mask>
      <polygon fill="#96FCFF" points="73.832 284.696 71.261 282.112 381.435 -29.717 384.006 -27.133" mask="url(#vertical-pattern-1-aR)"/>
      <mask id="vertical-pattern-1-aT" fill="#fff">
        <use xlink:href="#vertical-pattern-1-aS"/>
      </mask>
      <path fill="#40F9FF" d="M80.0840359,290.982226 L390.259613,-20.8468983" mask="url(#vertical-pattern-1-aT)"/>
      <mask id="vertical-pattern-1-aV" fill="#fff">
        <use xlink:href="#vertical-pattern-1-aU"/>
      </mask>
      <polygon fill="#96FCFF" points="81.371 292.275 78.8 289.69 388.973 -22.139 391.544 -19.554" mask="url(#vertical-pattern-1-aV)"/>
      <mask id="vertical-pattern-1-aX" fill="#fff">
        <use xlink:href="#vertical-pattern-1-aW"/>
      </mask>
      <path fill="#40F9FF" d="M87.6221831,298.560766 L397.797761,-13.2683579" mask="url(#vertical-pattern-1-aX)"/>
      <mask id="vertical-pattern-1-aZ" fill="#fff">
        <use xlink:href="#vertical-pattern-1-aY"/>
      </mask>
      <polygon fill="#96FCFF" points="88.908 299.853 86.337 297.268 396.51 -14.561 399.081 -11.976" mask="url(#vertical-pattern-1-aZ)"/>
      <mask id="vertical-pattern-1-bb" fill="#fff">
        <use xlink:href="#vertical-pattern-1-ba"/>
      </mask>
      <path fill="#40F9FF" d="M95.1592986,306.137025 L405.334876,-5.69002479" mask="url(#vertical-pattern-1-bb)"/>
      <mask id="vertical-pattern-1-bd" fill="#fff">
        <use xlink:href="#vertical-pattern-1-bc"/>
      </mask>
      <polygon fill="#96FCFF" points="96.446 307.431 93.875 304.847 404.048 -6.982 406.619 -4.398" mask="url(#vertical-pattern-1-bd)"/>
      <mask id="vertical-pattern-1-bf" fill="#fff">
        <use xlink:href="#vertical-pattern-1-be"/>
      </mask>
      <path fill="#40F9FF" d="M102.697446,313.715358 L412.873023,1.88623388" mask="url(#vertical-pattern-1-bf)"/>
      <mask id="vertical-pattern-1-bh" fill="#fff">
        <use xlink:href="#vertical-pattern-1-bg"/>
      </mask>
      <polygon fill="#96FCFF" points="103.983 315.008 101.412 312.423 411.586 .594 414.157 3.179" mask="url(#vertical-pattern-1-bh)"/>
      <mask id="vertical-pattern-1-bj" fill="#fff">
        <use xlink:href="#vertical-pattern-1-bi"/>
      </mask>
      <path fill="#40F9FF" d="M110.234768,321.293691 L420.410345,9.46456694" mask="url(#vertical-pattern-1-bj)"/>
      <mask id="vertical-pattern-1-bl" fill="#fff">
        <use xlink:href="#vertical-pattern-1-bk"/>
      </mask>
      <polygon fill="#96FCFF" points="111.521 322.586 108.95 320.002 419.124 8.172 421.695 10.757" mask="url(#vertical-pattern-1-bl)"/>
      <mask id="vertical-pattern-1-bn" fill="#fff">
        <use xlink:href="#vertical-pattern-1-bm"/>
      </mask>
      <path fill="#40F9FF" d="M117.772915,328.872231 L427.948492,17.0431074" mask="url(#vertical-pattern-1-bn)"/>
      <mask id="vertical-pattern-1-bp" fill="#fff">
        <use xlink:href="#vertical-pattern-1-bo"/>
      </mask>
      <polygon fill="#96FCFF" points="119.058 330.165 116.487 327.58 426.661 15.751 429.232 18.335" mask="url(#vertical-pattern-1-bp)"/>
      <mask id="vertical-pattern-1-br" fill="#fff">
        <use xlink:href="#vertical-pattern-1-bq"/>
      </mask>
      <path fill="#40F9FF" d="M125.31003,336.44849 L435.485608,24.6214405" mask="url(#vertical-pattern-1-br)"/>
      <mask id="vertical-pattern-1-bt" fill="#fff">
        <use xlink:href="#vertical-pattern-1-bs"/>
      </mask>
      <polygon fill="#96FCFF" points="126.597 337.743 124.026 335.158 434.199 23.329 436.77 25.914" mask="url(#vertical-pattern-1-bt)"/>
      <mask id="vertical-pattern-1-bv" fill="#fff">
        <use xlink:href="#vertical-pattern-1-bu"/>
      </mask>
      <path fill="#40F9FF" d="M132.848177,344.026823 L443.023755,32.1976992" mask="url(#vertical-pattern-1-bv)"/>
      <mask id="vertical-pattern-1-bx" fill="#fff">
        <use xlink:href="#vertical-pattern-1-bw"/>
      </mask>
      <polygon fill="#96FCFF" points="134.134 345.321 131.563 342.735 441.736 30.906 444.307 33.49" mask="url(#vertical-pattern-1-bx)"/>
      <mask id="vertical-pattern-1-bz" fill="#fff">
        <use xlink:href="#vertical-pattern-1-by"/>
      </mask>
      <path fill="#40F9FF" d="M140.385499,351.605156 L450.561077,39.7760322" mask="url(#vertical-pattern-1-bz)"/>
      <mask id="vertical-pattern-1-bB" fill="#fff">
        <use xlink:href="#vertical-pattern-1-bA"/>
      </mask>
      <polygon fill="#96FCFF" points="141.672 352.898 139.101 350.313 449.275 38.484 451.846 41.069" mask="url(#vertical-pattern-1-bB)"/>
      <mask id="vertical-pattern-1-bD" fill="#fff">
        <use xlink:href="#vertical-pattern-1-bC"/>
      </mask>
      <path fill="#40F9FF" d="M147.923646,359.183697 L458.099224,47.3545727" mask="url(#vertical-pattern-1-bD)"/>
      <mask id="vertical-pattern-1-bF" fill="#fff">
        <use xlink:href="#vertical-pattern-1-bE"/>
      </mask>
      <polygon fill="#96FCFF" points="149.209 360.476 146.638 357.891 456.812 46.062 459.383 48.647" mask="url(#vertical-pattern-1-bF)"/>
      <mask id="vertical-pattern-1-bH" fill="#fff">
        <use xlink:href="#vertical-pattern-1-bG"/>
      </mask>
      <path fill="#40F9FF" d="M155.460762,366.759955 L465.636339,54.9329058" mask="url(#vertical-pattern-1-bH)"/>
      <mask id="vertical-pattern-1-bJ" fill="#fff">
        <use xlink:href="#vertical-pattern-1-bI"/>
      </mask>
      <polygon fill="#96FCFF" points="156.747 368.054 154.177 365.47 464.35 53.641 466.921 56.225" mask="url(#vertical-pattern-1-bJ)"/>
      <mask id="vertical-pattern-1-bL" fill="#fff">
        <use xlink:href="#vertical-pattern-1-bK"/>
      </mask>
      <path fill="#40F9FF" d="M162.998909,374.338288 L473.174487,62.5091645" mask="url(#vertical-pattern-1-bL)"/>
      <mask id="vertical-pattern-1-bN" fill="#fff">
        <use xlink:href="#vertical-pattern-1-bM"/>
      </mask>
      <polygon fill="#96FCFF" points="164.285 375.633 161.714 373.048 471.887 61.217 474.458 63.802" mask="url(#vertical-pattern-1-bN)"/>
      <mask id="vertical-pattern-1-bP" fill="#fff">
        <use xlink:href="#vertical-pattern-1-bO"/>
      </mask>
      <path fill="#40F9FF" d="M170.536231,381.916829 L480.711808,70.087705" mask="url(#vertical-pattern-1-bP)"/>
      <mask id="vertical-pattern-1-bR" fill="#fff">
        <use xlink:href="#vertical-pattern-1-bQ"/>
      </mask>
      <polygon fill="#96FCFF" points="171.823 383.209 169.252 380.624 479.425 68.795 481.996 71.38" mask="url(#vertical-pattern-1-bR)"/>
      <mask id="vertical-pattern-1-bT" fill="#fff">
        <use xlink:href="#vertical-pattern-1-bS"/>
      </mask>
      <path fill="#40F9FF" d="M178.074378,389.495162 L488.249956,77.666038" mask="url(#vertical-pattern-1-bT)"/>
      <mask id="vertical-pattern-1-bV" fill="#fff">
        <use xlink:href="#vertical-pattern-1-bU"/>
      </mask>
      <polygon fill="#96FCFF" points="179.36 390.788 176.789 388.203 486.962 76.374 489.533 78.958" mask="url(#vertical-pattern-1-bV)"/>
      <mask id="vertical-pattern-1-bX" fill="#fff">
        <use xlink:href="#vertical-pattern-1-bW"/>
      </mask>
      <path fill="#40F9FF" d="M185.611494,397.071421 L495.787071,85.2443711" mask="url(#vertical-pattern-1-bX)"/>
      <mask id="vertical-pattern-1-bZ" fill="#fff">
        <use xlink:href="#vertical-pattern-1-bY"/>
      </mask>
      <polygon fill="#96FCFF" points="186.898 398.366 184.327 395.781 494.501 83.952 497.072 86.537" mask="url(#vertical-pattern-1-bZ)"/>
      <mask id="vertical-pattern-1-cb" fill="#fff">
        <use xlink:href="#vertical-pattern-1-ca"/>
      </mask>
      <path fill="#40F9FF" d="M193.149641,404.649754 L503.325218,92.8206298" mask="url(#vertical-pattern-1-cb)"/>
      <mask id="vertical-pattern-1-cd" fill="#fff">
        <use xlink:href="#vertical-pattern-1-cc"/>
      </mask>
      <polygon fill="#96FCFF" points="194.435 405.944 191.864 403.36 502.038 91.528 504.609 94.113" mask="url(#vertical-pattern-1-cd)"/>
      <mask id="vertical-pattern-1-cf" fill="#fff">
        <use xlink:href="#vertical-pattern-1-ce"/>
      </mask>
      <path fill="#40F9FF" d="M200.686963,412.228294 L510.86254,100.39917" mask="url(#vertical-pattern-1-cf)"/>
      <mask id="vertical-pattern-1-ch" fill="#fff">
        <use xlink:href="#vertical-pattern-1-cg"/>
      </mask>
      <polygon fill="#96FCFF" points="201.973 413.521 199.403 410.936 509.576 99.107 512.147 101.692" mask="url(#vertical-pattern-1-ch)"/>
      <mask id="vertical-pattern-1-cj" fill="#fff">
        <use xlink:href="#vertical-pattern-1-ci"/>
      </mask>
      <path fill="#40F9FF" d="M208.22511,419.806627 L518.400687,107.977503" mask="url(#vertical-pattern-1-cj)"/>
      <mask id="vertical-pattern-1-cl" fill="#fff">
        <use xlink:href="#vertical-pattern-1-ck"/>
      </mask>
      <polygon fill="#96FCFF" points="209.511 421.099 206.94 418.514 517.113 106.685 519.684 109.27" mask="url(#vertical-pattern-1-cl)"/>
    </g>
    <g transform="translate(74)">
      <mask id="vertical-pattern-1-cn" fill="#fff">
        <use xlink:href="#vertical-pattern-1-cm"/>
      </mask>
      <path fill="#40F9FF" d="M-120.873604,78.0881463 L190.213562,-233.559171" mask="url(#vertical-pattern-1-cn)"/>
      <mask id="vertical-pattern-1-cp" fill="#fff">
        <use xlink:href="#vertical-pattern-1-co"/>
      </mask>
      <polygon fill="#96FCFF" points="-119.585 79.38 -122.164 76.797 188.923 -234.851 191.502 -232.268" mask="url(#vertical-pattern-1-cp)"/>
      <mask id="vertical-pattern-1-cr" fill="#fff">
        <use xlink:href="#vertical-pattern-1-cq"/>
      </mask>
      <path fill="#40F9FF" d="M-113.313303,85.662061 L197.773864,-225.985256" mask="url(#vertical-pattern-1-cr)"/>
      <mask id="vertical-pattern-1-ct" fill="#fff">
        <use xlink:href="#vertical-pattern-1-cs"/>
      </mask>
      <polygon fill="#96FCFF" points="-112.025 86.954 -114.603 84.37 196.484 -227.277 199.062 -224.694" mask="url(#vertical-pattern-1-ct)"/>
      <mask id="vertical-pattern-1-cv" fill="#fff">
        <use xlink:href="#vertical-pattern-1-cu"/>
      </mask>
      <path fill="#40F9FF" d="M-105.754036,93.2339024 L205.333131,-218.411341" mask="url(#vertical-pattern-1-cv)"/>
      <mask id="vertical-pattern-1-cx" fill="#fff">
        <use xlink:href="#vertical-pattern-1-cw"/>
      </mask>
      <polygon fill="#96FCFF" points="-104.466 94.526 -107.044 91.943 204.043 -219.703 206.622 -217.12" mask="url(#vertical-pattern-1-cx)"/>
      <mask id="vertical-pattern-1-cz" fill="#fff">
        <use xlink:href="#vertical-pattern-1-cy"/>
      </mask>
      <path fill="#40F9FF" d="M-98.1935278,100.807817 L212.893639,-210.8395" mask="url(#vertical-pattern-1-cz)"/>
      <mask id="vertical-pattern-1-cB" fill="#fff">
        <use xlink:href="#vertical-pattern-1-cA"/>
      </mask>
      <polygon fill="#96FCFF" points="-96.905 102.1 -99.484 99.516 211.603 -212.131 214.182 -209.548" mask="url(#vertical-pattern-1-cB)"/>
      <mask id="vertical-pattern-1-cD" fill="#fff">
        <use xlink:href="#vertical-pattern-1-cC"/>
      </mask>
      <path fill="#40F9FF" d="M-90.6342611,108.381939 L220.452906,-203.265378" mask="url(#vertical-pattern-1-cD)"/>
      <mask id="vertical-pattern-1-cF" fill="#fff">
        <use xlink:href="#vertical-pattern-1-cE"/>
      </mask>
      <polygon fill="#96FCFF" points="-89.346 109.674 -91.924 107.09 219.163 -204.557 221.743 -201.974" mask="url(#vertical-pattern-1-cF)"/>
      <mask id="vertical-pattern-1-cH" fill="#fff">
        <use xlink:href="#vertical-pattern-1-cG"/>
      </mask>
      <path fill="#40F9FF" d="M-83.0739597,115.955854 L228.013207,-195.691463" mask="url(#vertical-pattern-1-cH)"/>
      <mask id="vertical-pattern-1-cJ" fill="#fff">
        <use xlink:href="#vertical-pattern-1-cI"/>
      </mask>
      <polygon fill="#96FCFF" points="-81.786 117.247 -84.364 114.664 226.723 -196.983 229.302 -194.4" mask="url(#vertical-pattern-1-cJ)"/>
      <mask id="vertical-pattern-1-cL" fill="#fff">
        <use xlink:href="#vertical-pattern-1-cK"/>
      </mask>
      <path fill="#40F9FF" d="M-75.5144861,123.527695 L235.572681,-188.117549" mask="url(#vertical-pattern-1-cL)"/>
      <mask id="vertical-pattern-1-cN" fill="#fff">
        <use xlink:href="#vertical-pattern-1-cM"/>
      </mask>
      <polygon fill="#96FCFF" points="-74.226 124.822 -76.805 122.238 234.284 -189.409 236.863 -186.826" mask="url(#vertical-pattern-1-cN)"/>
      <mask id="vertical-pattern-1-cP" fill="#fff">
        <use xlink:href="#vertical-pattern-1-cO"/>
      </mask>
      <path fill="#40F9FF" d="M-67.9541847,131.101817 L243.132982,-180.5455" mask="url(#vertical-pattern-1-cP)"/>
      <mask id="vertical-pattern-1-cR" fill="#fff">
        <use xlink:href="#vertical-pattern-1-cQ"/>
      </mask>
      <polygon fill="#96FCFF" points="-66.666 132.393 -69.244 129.81 241.843 -181.837 244.421 -179.254" mask="url(#vertical-pattern-1-cR)"/>
      <mask id="vertical-pattern-1-cT" fill="#fff">
        <use xlink:href="#vertical-pattern-1-cS"/>
      </mask>
      <path fill="#40F9FF" d="M-60.3949181,138.675732 L250.692249,-172.971585" mask="url(#vertical-pattern-1-cT)"/>
      <mask id="vertical-pattern-1-cV" fill="#fff">
        <use xlink:href="#vertical-pattern-1-cU"/>
      </mask>
      <polygon fill="#96FCFF" points="-59.106 139.967 -61.685 137.384 249.404 -174.263 251.983 -171.68" mask="url(#vertical-pattern-1-cV)"/>
      <mask id="vertical-pattern-1-cX" fill="#fff">
        <use xlink:href="#vertical-pattern-1-cW"/>
      </mask>
      <path fill="#40F9FF" d="M-52.8346167,146.249646 L258.25255,-165.397671" mask="url(#vertical-pattern-1-cX)"/>
      <mask id="vertical-pattern-1-cZ" fill="#fff">
        <use xlink:href="#vertical-pattern-1-cY"/>
      </mask>
      <polygon fill="#96FCFF" points="-51.546 147.541 -54.125 144.958 256.962 -166.689 259.541 -164.106" mask="url(#vertical-pattern-1-cZ)"/>
      <mask id="vertical-pattern-1-db" fill="#fff">
        <use xlink:href="#vertical-pattern-1-da"/>
      </mask>
      <path fill="#40F9FF" d="M-45.2751431,153.821488 L265.812024,-157.823756" mask="url(#vertical-pattern-1-db)"/>
      <mask id="vertical-pattern-1-dd" fill="#fff">
        <use xlink:href="#vertical-pattern-1-dc"/>
      </mask>
      <polygon fill="#96FCFF" points="-43.987 155.115 -46.565 152.532 264.524 -159.115 267.102 -156.532" mask="url(#vertical-pattern-1-dd)"/>
      <mask id="vertical-pattern-1-df" fill="#fff">
        <use xlink:href="#vertical-pattern-1-de"/>
      </mask>
      <path fill="#40F9FF" d="M-37.7148417,161.39561 L273.372325,-150.251707" mask="url(#vertical-pattern-1-df)"/>
      <mask id="vertical-pattern-1-dh" fill="#fff">
        <use xlink:href="#vertical-pattern-1-dg"/>
      </mask>
      <polygon fill="#96FCFF" points="-36.427 162.687 -39.005 160.104 272.082 -151.543 274.661 -148.96" mask="url(#vertical-pattern-1-dh)"/>
      <mask id="vertical-pattern-1-dj" fill="#fff">
        <use xlink:href="#vertical-pattern-1-di"/>
      </mask>
      <path fill="#40F9FF" d="M-30.155575,168.969524 L280.931592,-142.677793" mask="url(#vertical-pattern-1-dj)"/>
      <mask id="vertical-pattern-1-dl" fill="#fff">
        <use xlink:href="#vertical-pattern-1-dk"/>
      </mask>
      <polygon fill="#96FCFF" points="-28.867 170.261 -31.446 167.678 279.644 -143.969 282.222 -141.386" mask="url(#vertical-pattern-1-dl)"/>
      <mask id="vertical-pattern-1-dn" fill="#fff">
        <use xlink:href="#vertical-pattern-1-dm"/>
      </mask>
      <path fill="#40F9FF" d="M-22.5952736,176.543439 L288.491893,-135.103878" mask="url(#vertical-pattern-1-dn)"/>
      <mask id="vertical-pattern-1-dp" fill="#fff">
        <use xlink:href="#vertical-pattern-1-do"/>
      </mask>
      <polygon fill="#96FCFF" points="-21.307 177.835 -23.885 175.252 287.202 -136.395 289.78 -133.812" mask="url(#vertical-pattern-1-dp)"/>
      <mask id="vertical-pattern-1-dr" fill="#fff">
        <use xlink:href="#vertical-pattern-1-dq"/>
      </mask>
      <path fill="#40F9FF" d="M-15.0358,184.11528 L296.051367,-127.529963" mask="url(#vertical-pattern-1-dr)"/>
      <mask id="vertical-pattern-1-dt" fill="#fff">
        <use xlink:href="#vertical-pattern-1-ds"/>
      </mask>
      <polygon fill="#96FCFF" points="-13.748 185.409 -16.326 182.826 294.763 -128.821 297.342 -126.238" mask="url(#vertical-pattern-1-dt)"/>
      <mask id="vertical-pattern-1-dv" fill="#fff">
        <use xlink:href="#vertical-pattern-1-du"/>
      </mask>
      <path fill="#40F9FF" d="M-7.47549861,191.689402 L303.611668,-119.955841" mask="url(#vertical-pattern-1-dv)"/>
      <mask id="vertical-pattern-1-dx" fill="#fff">
        <use xlink:href="#vertical-pattern-1-dw"/>
      </mask>
      <polygon fill="#96FCFF" points="-6.187 192.981 -8.766 190.398 302.321 -121.249 304.9 -118.666" mask="url(#vertical-pattern-1-dx)"/>
      <mask id="vertical-pattern-1-dz" fill="#fff">
        <use xlink:href="#vertical-pattern-1-dy"/>
      </mask>
      <path fill="#40F9FF" d="M0.0837680556,199.263317 L311.170935,-112.384" mask="url(#vertical-pattern-1-dz)"/>
      <mask id="vertical-pattern-1-dB" fill="#fff">
        <use xlink:href="#vertical-pattern-1-dA"/>
      </mask>
      <polygon fill="#96FCFF" points="1.373 200.555 -1.205 197.972 309.882 -113.676 312.46 -111.092" mask="url(#vertical-pattern-1-dB)"/>
      <mask id="vertical-pattern-1-dD" fill="#fff">
        <use xlink:href="#vertical-pattern-1-dC"/>
      </mask>
      <path fill="#40F9FF" d="M7.64406944,206.837232 L318.731236,-104.810085" mask="url(#vertical-pattern-1-dD)"/>
      <mask id="vertical-pattern-1-dF" fill="#fff">
        <use xlink:href="#vertical-pattern-1-dE"/>
      </mask>
      <polygon fill="#96FCFF" points="8.933 208.129 6.354 205.546 317.441 -106.102 320.02 -103.519" mask="url(#vertical-pattern-1-dF)"/>
      <mask id="vertical-pattern-1-dH" fill="#fff">
        <use xlink:href="#vertical-pattern-1-dG"/>
      </mask>
      <path fill="#40F9FF" d="M15.2035431,214.409073 L326.29071,-97.2361707" mask="url(#vertical-pattern-1-dH)"/>
      <mask id="vertical-pattern-1-dJ" fill="#fff">
        <use xlink:href="#vertical-pattern-1-dI"/>
      </mask>
      <polygon fill="#96FCFF" points="16.493 215.703 13.914 213.12 325.001 -98.528 327.58 -95.944" mask="url(#vertical-pattern-1-dJ)"/>
      <mask id="vertical-pattern-1-dL" fill="#fff">
        <use xlink:href="#vertical-pattern-1-dK"/>
      </mask>
      <path fill="#40F9FF" d="M22.7638444,221.983195 L333.851011,-89.6620488" mask="url(#vertical-pattern-1-dL)"/>
      <mask id="vertical-pattern-1-dN" fill="#fff">
        <use xlink:href="#vertical-pattern-1-dM"/>
      </mask>
      <polygon fill="#96FCFF" points="24.052 223.275 21.474 220.692 332.561 -90.956 335.139 -88.373" mask="url(#vertical-pattern-1-dN)"/>
      <mask id="vertical-pattern-1-dP" fill="#fff">
        <use xlink:href="#vertical-pattern-1-dO"/>
      </mask>
      <path fill="#40F9FF" d="M30.3231111,229.55711 L341.410278,-82.0902073" mask="url(#vertical-pattern-1-dP)"/>
      <mask id="vertical-pattern-1-dR" fill="#fff">
        <use xlink:href="#vertical-pattern-1-dQ"/>
      </mask>
      <polygon fill="#96FCFF" points="31.613 230.849 29.034 228.266 340.121 -83.382 342.7 -80.799" mask="url(#vertical-pattern-1-dR)"/>
      <mask id="vertical-pattern-1-dT" fill="#fff">
        <use xlink:href="#vertical-pattern-1-dS"/>
      </mask>
      <path fill="#40F9FF" d="M37.8834125,237.131024 L348.970579,-74.5162927" mask="url(#vertical-pattern-1-dT)"/>
      <mask id="vertical-pattern-1-dV" fill="#fff">
        <use xlink:href="#vertical-pattern-1-dU"/>
      </mask>
      <polygon fill="#96FCFF" points="39.172 238.423 36.593 235.84 347.68 -75.808 350.259 -73.225" mask="url(#vertical-pattern-1-dV)"/>
      <mask id="vertical-pattern-1-dX" fill="#fff">
        <use xlink:href="#vertical-pattern-1-dW"/>
      </mask>
      <path fill="#40F9FF" d="M45.4439208,244.704939 L356.531087,-66.942378" mask="url(#vertical-pattern-1-dX)"/>
      <mask id="vertical-pattern-1-dZ" fill="#fff">
        <use xlink:href="#vertical-pattern-1-dY"/>
      </mask>
      <polygon fill="#96FCFF" points="46.732 245.997 44.154 243.414 355.241 -68.234 357.819 -65.651" mask="url(#vertical-pattern-1-dZ)"/>
      <mask id="vertical-pattern-1-eb" fill="#fff">
        <use xlink:href="#vertical-pattern-1-ea"/>
      </mask>
      <path fill="#40F9FF" d="M53.0031875,252.276988 L364.090354,-59.3682561" mask="url(#vertical-pattern-1-eb)"/>
      <mask id="vertical-pattern-1-ed" fill="#fff">
        <use xlink:href="#vertical-pattern-1-ec"/>
      </mask>
      <polygon fill="#96FCFF" points="54.291 253.569 51.713 250.985 362.8 -60.662 365.379 -58.079" mask="url(#vertical-pattern-1-ed)"/>
      <mask id="vertical-pattern-1-ef" fill="#fff">
        <use xlink:href="#vertical-pattern-1-ee"/>
      </mask>
      <path fill="#40F9FF" d="M60.5634889,259.850902 L371.650656,-51.7964146" mask="url(#vertical-pattern-1-ef)"/>
      <mask id="vertical-pattern-1-eh" fill="#fff">
        <use xlink:href="#vertical-pattern-1-eg"/>
      </mask>
      <polygon fill="#96FCFF" points="61.852 261.142 59.273 258.559 370.361 -53.088 372.939 -50.505" mask="url(#vertical-pattern-1-eh)"/>
      <mask id="vertical-pattern-1-ej" fill="#fff">
        <use xlink:href="#vertical-pattern-1-ei"/>
      </mask>
      <path fill="#40F9FF" d="M68.1227556,267.424817 L379.209922,-44.2225" mask="url(#vertical-pattern-1-ej)"/>
      <mask id="vertical-pattern-1-el" fill="#fff">
        <use xlink:href="#vertical-pattern-1-ek"/>
      </mask>
      <polygon fill="#96FCFF" points="69.411 268.717 66.833 266.133 377.92 -45.514 380.498 -42.931" mask="url(#vertical-pattern-1-el)"/>
      <mask id="vertical-pattern-1-en" fill="#fff">
        <use xlink:href="#vertical-pattern-1-em"/>
      </mask>
      <path fill="#40F9FF" d="M75.6832639,274.998732 L386.770431,-36.6485854" mask="url(#vertical-pattern-1-en)"/>
      <mask id="vertical-pattern-1-ep" fill="#fff">
        <use xlink:href="#vertical-pattern-1-eo"/>
      </mask>
      <polygon fill="#96FCFF" points="76.971 276.291 74.393 273.707 385.48 -37.94 388.059 -35.357" mask="url(#vertical-pattern-1-ep)"/>
      <mask id="vertical-pattern-1-er" fill="#fff">
        <use xlink:href="#vertical-pattern-1-eq"/>
      </mask>
      <path fill="#40F9FF" d="M83.2425306,282.57078 L394.329697,-29.0744634" mask="url(#vertical-pattern-1-er)"/>
      <mask id="vertical-pattern-1-et" fill="#fff">
        <use xlink:href="#vertical-pattern-1-es"/>
      </mask>
      <polygon fill="#96FCFF" points="84.531 283.862 81.952 281.279 393.04 -30.368 395.618 -27.785" mask="url(#vertical-pattern-1-et)"/>
      <mask id="vertical-pattern-1-ev" fill="#fff">
        <use xlink:href="#vertical-pattern-1-eu"/>
      </mask>
      <path fill="#40F9FF" d="M90.8028319,290.144695 L401.889999,-21.502622" mask="url(#vertical-pattern-1-ev)"/>
      <mask id="vertical-pattern-1-ex" fill="#fff">
        <use xlink:href="#vertical-pattern-1-ew"/>
      </mask>
      <polygon fill="#96FCFF" points="92.091 291.436 89.513 288.853 400.6 -22.794 403.178 -20.211" mask="url(#vertical-pattern-1-ex)"/>
      <mask id="vertical-pattern-1-ez" fill="#fff">
        <use xlink:href="#vertical-pattern-1-ey"/>
      </mask>
      <path fill="#40F9FF" d="M98.3620986,297.71861 L409.449265,-13.9287073" mask="url(#vertical-pattern-1-ez)"/>
      <mask id="vertical-pattern-1-eB" fill="#fff">
        <use xlink:href="#vertical-pattern-1-eA"/>
      </mask>
      <polygon fill="#96FCFF" points="99.651 299.01 97.072 296.427 408.159 -15.22 410.738 -12.637" mask="url(#vertical-pattern-1-eB)"/>
      <mask id="vertical-pattern-1-eD" fill="#fff">
        <use xlink:href="#vertical-pattern-1-eC"/>
      </mask>
      <path fill="#40F9FF" d="M105.922607,305.292524 L417.009774,-6.35479268" mask="url(#vertical-pattern-1-eD)"/>
      <mask id="vertical-pattern-1-eF" fill="#fff">
        <use xlink:href="#vertical-pattern-1-eE"/>
      </mask>
      <polygon fill="#96FCFF" points="107.211 306.584 104.632 304.001 415.719 -7.646 418.298 -5.063" mask="url(#vertical-pattern-1-eF)"/>
      <mask id="vertical-pattern-1-eH" fill="#fff">
        <use xlink:href="#vertical-pattern-1-eG"/>
      </mask>
      <path fill="#40F9FF" d="M113.481874,312.864573 L424.56904,1.21932927" mask="url(#vertical-pattern-1-eH)"/>
      <mask id="vertical-pattern-1-eJ" fill="#fff">
        <use xlink:href="#vertical-pattern-1-eI"/>
      </mask>
      <polygon fill="#96FCFF" points="114.77 314.156 112.192 311.573 423.279 -.074 425.857 2.509" mask="url(#vertical-pattern-1-eJ)"/>
      <mask id="vertical-pattern-1-eL" fill="#fff">
        <use xlink:href="#vertical-pattern-1-eK"/>
      </mask>
      <path fill="#40F9FF" d="M121.042175,320.438488 L432.129342,8.79117073" mask="url(#vertical-pattern-1-eL)"/>
      <mask id="vertical-pattern-1-eN" fill="#fff">
        <use xlink:href="#vertical-pattern-1-eM"/>
      </mask>
      <polygon fill="#96FCFF" points="122.331 321.73 119.752 319.147 430.839 7.5 433.418 10.083" mask="url(#vertical-pattern-1-eN)"/>
      <mask id="vertical-pattern-1-eP" fill="#fff">
        <use xlink:href="#vertical-pattern-1-eO"/>
      </mask>
      <path fill="#40F9FF" d="M128.601649,328.012402 L439.688815,16.3650854" mask="url(#vertical-pattern-1-eP)"/>
      <mask id="vertical-pattern-1-eR" fill="#fff">
        <use xlink:href="#vertical-pattern-1-eQ"/>
      </mask>
      <polygon fill="#96FCFF" points="129.89 329.304 127.311 326.721 438.399 15.074 440.977 17.657" mask="url(#vertical-pattern-1-eR)"/>
      <mask id="vertical-pattern-1-eT" fill="#fff">
        <use xlink:href="#vertical-pattern-1-eS"/>
      </mask>
      <path fill="#40F9FF" d="M136.16195,335.586317 L447.249117,23.939" mask="url(#vertical-pattern-1-eT)"/>
      <mask id="vertical-pattern-1-eV" fill="#fff">
        <use xlink:href="#vertical-pattern-1-eU"/>
      </mask>
      <polygon fill="#96FCFF" points="137.45 336.878 134.872 334.295 445.959 22.648 448.537 25.231" mask="url(#vertical-pattern-1-eV)"/>
      <mask id="vertical-pattern-1-eX" fill="#fff">
        <use xlink:href="#vertical-pattern-1-eW"/>
      </mask>
      <path fill="#40F9FF" d="M143.721217,343.158366 L454.808383,31.513122" mask="url(#vertical-pattern-1-eX)"/>
      <mask id="vertical-pattern-1-eZ" fill="#fff">
        <use xlink:href="#vertical-pattern-1-eY"/>
      </mask>
      <polygon fill="#96FCFF" points="145.01 344.45 142.431 341.867 453.52 30.219 456.099 32.803" mask="url(#vertical-pattern-1-eZ)"/>
      <mask id="vertical-pattern-1-fb" fill="#fff">
        <use xlink:href="#vertical-pattern-1-fa"/>
      </mask>
      <path fill="#40F9FF" d="M151.281518,350.73228 L462.368685,39.0849634" mask="url(#vertical-pattern-1-fb)"/>
      <mask id="vertical-pattern-1-fd" fill="#fff">
        <use xlink:href="#vertical-pattern-1-fc"/>
      </mask>
      <polygon fill="#96FCFF" points="152.57 352.024 149.991 349.441 461.079 37.794 463.657 40.377" mask="url(#vertical-pattern-1-fd)"/>
      <mask id="vertical-pattern-1-ff" fill="#fff">
        <use xlink:href="#vertical-pattern-1-fe"/>
      </mask>
      <path fill="#40F9FF" d="M158.840992,358.306195 L469.928158,46.658878" mask="url(#vertical-pattern-1-ff)"/>
      <mask id="vertical-pattern-1-fh" fill="#fff">
        <use xlink:href="#vertical-pattern-1-fg"/>
      </mask>
      <polygon fill="#96FCFF" points="160.129 359.598 157.551 357.015 468.638 45.367 471.216 47.951" mask="url(#vertical-pattern-1-fh)"/>
      <mask id="vertical-pattern-1-fj" fill="#fff">
        <use xlink:href="#vertical-pattern-1-fi"/>
      </mask>
      <path fill="#40F9FF" d="M166.401293,365.88011 L477.48846,54.2327927" mask="url(#vertical-pattern-1-fj)"/>
      <mask id="vertical-pattern-1-fl" fill="#fff">
        <use xlink:href="#vertical-pattern-1-fk"/>
      </mask>
      <polygon fill="#96FCFF" points="167.69 367.172 165.111 364.589 476.198 52.941 478.777 55.525" mask="url(#vertical-pattern-1-fl)"/>
      <mask id="vertical-pattern-1-fn" fill="#fff">
        <use xlink:href="#vertical-pattern-1-fm"/>
      </mask>
      <path fill="#40F9FF" d="M173.96056,373.452159 L485.047726,61.8069146" mask="url(#vertical-pattern-1-fn)"/>
      <mask id="vertical-pattern-1-fp" fill="#fff">
        <use xlink:href="#vertical-pattern-1-fo"/>
      </mask>
      <polygon fill="#96FCFF" points="175.249 374.746 172.67 372.161 483.76 60.515 486.338 63.099" mask="url(#vertical-pattern-1-fp)"/>
      <mask id="vertical-pattern-1-fr" fill="#fff">
        <use xlink:href="#vertical-pattern-1-fq"/>
      </mask>
      <path fill="#40F9FF" d="M181.520861,381.026073 L492.608028,69.3787561" mask="url(#vertical-pattern-1-fr)"/>
      <mask id="vertical-pattern-1-ft" fill="#fff">
        <use xlink:href="#vertical-pattern-1-fs"/>
      </mask>
      <polygon fill="#96FCFF" points="182.809 382.318 180.231 379.735 491.318 68.087 493.896 70.671" mask="url(#vertical-pattern-1-ft)"/>
      <mask id="vertical-pattern-1-fv" fill="#fff">
        <use xlink:href="#vertical-pattern-1-fu"/>
      </mask>
      <path fill="#40F9FF" d="M189.080335,388.599988 L500.167501,76.9526707" mask="url(#vertical-pattern-1-fv)"/>
      <mask id="vertical-pattern-1-fx" fill="#fff">
        <use xlink:href="#vertical-pattern-1-fw"/>
      </mask>
      <polygon fill="#96FCFF" points="190.369 389.892 187.79 387.309 498.877 75.661 501.456 78.244" mask="url(#vertical-pattern-1-fx)"/>
    </g>
  </g>
</svg>
