<svg xmlns="http://www.w3.org/2000/svg" width="1920" height="572" viewBox="0 0 1920 572">
  <g fill="#5E82F1" fill-opacity=".08" fill-rule="evenodd" transform="translate(-307)">
    <path d="M213.231174,257.074389 C311.519114,373.003931 431.812947,373.003931 574.112672,257.074389 C720.154806,138.09596 732.232277,367.638174 837.909466,321.445497 C1039.55955,233.302002 1023.1472,-24.0169651 1200.42716,103.576852 C1634.36375,415.894318 1556.69733,-105.787613 1810.94315,157.04834 C2002.75295,355.338759 2049.60735,-91.9901631 2253.91635,124.961079 C2342.87067,219.419726 2303.36354,693.903825 2303.36354,693.903825 C2303.36354,693.903825 162.525801,922.606562 180.27671,893.599154 C192.11065,874.260881 203.095471,662.08596 213.231174,257.074389 Z"/>
    <path d="M278.331296,194.274433 C385.513663,171.94088 477.084876,189.551848 583.058148,345.563233 C733.429479,566.936405 757.742386,52.0583745 964.304121,334.640928 C1208.7176,669.005784 1144.43822,91.8662982 1363.23473,237.041917 C1798.70415,525.984111 1764.98581,0.585953542 1913.98641,0.585953542 C2073.8859,0.585953542 2073.8859,301.808389 2243.59085,175.770213 C2289.67351,141.545074 2301.02352,294.597755 2277.64086,634.928254 L123,870.55478 C203.587842,424.486707 255.36494,199.059925 278.331296,194.274433 Z"/>
    <path d="M221.081375,437.07194 C335.650735,390.015544 326.257627,493.297798 399.711172,505.57733 C466.432564,516.73142 556.59844,298.223074 673.564999,298.223074 C755.181602,298.223074 915.102192,437.07194 995.628524,437.07194 C1076.15486,437.07194 1160.7004,298.223074 1251.8981,298.223074 C1335.24184,298.223074 1369.90212,553.42189 1472.48147,467.611993 C1603.84873,357.720368 1538.17698,284.715606 1771.1189,357.720368 C1883.81312,393.039107 1883.81312,129.474592 2008.57345,129.474592 C2123.2756,129.474592 2311.30023,519.272216 2331.90983,542.115402 C2389.91508,606.407049 2399.02368,653.112726 2359.23562,682.232434 C1919.61394,943.156759 1692.59286,1073.61892 1678.17239,1073.61892 C1656.54169,1073.61892 356.966059,926.683876 345.322519,926.683876 C333.678979,926.683876 2.06525971e-15,816.405713 0,803.301488 C0,790.197264 68.9255802,499.56599 221.081375,437.07194 Z"/>
  </g>
</svg>
