<svg xmlns="http://www.w3.org/2000/svg" width="572" height="385" viewBox="0 0 572 385">
  <defs>
    <linearGradient id="wave-4-a" x1="0%" y1="100%" y2="0%">
      <stop offset="0%" stop-color="#FFF" stop-opacity=".15"/>
      <stop offset="100%" stop-color="#FFF" stop-opacity="0"/>
    </linearGradient>
    <linearGradient id="wave-4-b" x1="0%" y1="100%" y2="0%">
      <stop offset="0%" stop-color="#FFF" stop-opacity=".3"/>
      <stop offset="100%" stop-color="#FFF" stop-opacity="0"/>
    </linearGradient>
  </defs>
  <g fill="none" fill-rule="evenodd" opacity=".511" transform="translate(-15 -138)">
    <path fill="url(#wave-4-a)" d="M64.4151744,106.829051 C88.8972541,204.036345 169.153175,255.94469 305.182936,262.554087 C509.227579,272.468182 539.062723,311.665728 593.707687,551.93642 C645.173585,651.605395 683.431614,503.236272 708.481774,106.829051 L286.152243,31.8315154 L64.4151744,106.829051 Z"/>
    <path fill="url(#wave-4-b)" d="M106,116.394187 C132.570193,221.892436 219.671261,278.228121 367.303203,285.401243 C588.751117,296.160926 621.130946,338.70169 680.43666,599.465427 C736.292161,707.635318 777.813274,546.611571 805,116.394187 L346.649354,35 L106,116.394187 Z"/>
    <path fill="url(#wave-4-b)" d="M0.599117505,94.595874 C31.3050526,216.51529 131.963702,281.619819 302.575067,289.909462 C558.492114,302.343927 595.911975,351.506308 664.448828,652.858822 C728.998431,777.86573 776.982449,591.778081 808.400882,94.595874 L278.706375,0.532400462 L0.599117505,94.595874 Z"/>
    <path fill="url(#wave-4-a)" d="M154.424668,115.953706 C143.584696,63.0564731 172.758268,111.843388 241.945384,262.314451 C345.726057,488.021045 552.453019,342.542214 660.579891,572.885457 C732.664472,726.44762 738.934687,565.284451 679.390534,89.3959503 L328.927445,33.085482 L154.424668,115.953706 Z"/>
  </g>
</svg>
