<svg xmlns="http://www.w3.org/2000/svg" viewBox="0 0 1920 500">
  <defs>
    <linearGradient id="wave-5-a" x1="4.278%" x2="92.121%" y1="47.586%" y2="49.051%">
      <stop offset="0%" stop-color="#F5F9FF"/>
      <stop offset="100%" stop-color="#E9F2FE"/>
    </linearGradient>
  </defs>
  <g fill="none" fill-rule="evenodd" transform="translate(0 .149)">
    <path fill="url(#wave-5-a)" d="M9.29903121e-13,85.4004289 C115.57433,195.087892 257.694829,204.442066 426.361495,113.462952 C679.361495,-23.0057197 822.029329,158.145417 1099.3615,216.695995 C1376.69366,275.246573 1694.26165,-111.299254 1920,32.1480123 C1931.69539,39.5799441 1931.69539,199.771721 1920,512.723342 C640,515.890417 0,515.890456 0,512.723461 C0,507.793347 3.09967707e-13,365.352336 9.29903121e-13,85.4004289 Z"/>
    <path fill="#FFF" d="M2.27373675e-13,153.302353 C126.240997,295.927489 257.694829,337.982714 394.361495,279.468026 C599.361495,191.695995 778.791744,132.708721 1099.8615,411.31344 C1413.62469,683.577971 1602.59634,135.109993 1920,250.848468 C1924.92756,252.645259 1924.92756,338.467402 1920,508.314897 C640,514.192824 3.02457976e-13,514.192824 3.02457976e-13,508.314897 C3.02457976e-13,499.179604 2.77429876e-13,380.842089 2.27373675e-13,153.302353 Z"/>
  </g>
</svg>
