<svg xmlns="http://www.w3.org/2000/svg" width="1619" height="855" viewBox="0 0 1619 855">
  <defs>
    <linearGradient id="wave-15-a" x1="50%" x2="50%" y1="99.998%" y2="-.001%">
      <stop offset="0%" stop-opacity="0"/>
      <stop offset="100%" stop-opacity=".1"/>
    </linearGradient>
    <linearGradient id="wave-15-b" x1="5.488%" x2="100%" y1="63.944%" y2="42.332%">
      <stop offset="0%" stop-color="#FFF" stop-opacity=".05"/>
      <stop offset="100%" stop-color="#FFF" stop-opacity=".7"/>
    </linearGradient>
  </defs>
  <g fill="none" transform="translate(-1 -1)">
    <path fill="url(#wave-15-a)" d="M1619.05,221.74 L1619.05,855.74 L0,855.74 L0.36,855.74 L0.52,855.74 L0.92,855.74 L1.44,855.74 L2.06,855.74 L2.79,855.69 L5.09,855.53 L5.59,855.53 C10.67,855.183333 15.7466667,854.78 20.82,854.32 L27.07,853.74 L27.82,853.67 L34.39,853.02 C45.8433333,851.846667 57.2733333,850.513333 68.68,849.02 C91.5,846.04 114.226667,842.423333 136.86,838.17 C182.08,829.63 226.92,818.61 270.48,803.58 C292.294597,796.148673 313.663282,787.467645 334.48,777.58 C355.348841,767.721153 375.338065,756.098967 394.23,742.84 C403.6618,736.153793 412.678429,728.900416 421.23,721.12 C423.36,719.12 425.42,717.12 427.52,715.12 C429.62,713.12 431.52,710.99 433.59,708.93 C435.66,706.87 437.48,704.65 439.43,702.51 L445.06,695.95 C448.84,691.6 452.46,687.12 456.16,682.71 C459.86,678.3 463.41,673.58 467,669 C474.17,660 481.13,650.79 488,641.52 C501.66,622.96 514.73,603.99 527.21,584.61 C539.76,565.29 551.82,545.67 563.81,526.02 C575.8,506.37 587.72,486.7 600.64,467.75 C607.12,458.3 613.82,448.99 621.15,440.24 C624.78,435.83 628.63,431.63 632.57,427.53 C636.563418,423.498805 640.765877,419.680209 645.16,416.09 C649.5361,412.581881 654.161644,409.396806 659,406.56 C663.883476,403.773063 669.015579,401.446376 674.33,399.61 C679.632828,397.771152 685.112179,396.487609 690.68,395.78 C693.46,395.34 696.27,395.21 699.07,395.01 L703.29,394.95 C704.7,394.95 706.11,394.95 707.51,395.05 C718.830181,395.638487 730.034662,397.620095 740.87,400.95 C751.7867,404.230937 762.459603,408.27421 772.81,413.05 C783.21,417.78 793.35,423.05 803.36,428.65 C813.37,434.25 823.25,440.07 833.04,446.07 C852.62,458.07 871.75,470.79 891.27,483.07 C901.04,489.2 910.92,495.22 921.17,500.69 C931.414143,506.348531 942.189176,510.987456 953.34,514.54 C959.01178,516.281181 964.828479,517.509448 970.72,518.21 C976.671941,518.924931 982.688059,518.924931 988.64,518.21 C994.603591,517.455768 1000.45119,515.967837 1006.05,513.78 C1011.59977,511.58921 1016.90528,508.82418 1021.88,505.53 C1022.5,505.13 1023.14,504.74 1023.75,504.32 L1025.55,503.03 C1026.75,502.16 1027.99,501.34 1029.12,500.4 L1032.59,497.65 L1035.92,494.75 C1040.30977,490.858383 1044.48271,486.728844 1048.42,482.38 C1056.23747,473.73451 1063.48284,464.588438 1070.11,455 C1083.41,436 1094.89,415.83 1105.75,395.44 C1111.11667,385.22 1116.33,374.923333 1121.39,364.55 L1136.28,333.38 C1146.2,312.64 1156.35,292.023333 1166.73,271.53 C1187.58,230.6 1209.67,190.28 1234.56,151.82 C1240.84,142.25 1247.23,132.75 1253.91,123.47 C1255.55,121.13 1257.28,118.86 1258.97,116.55 C1260.66,114.24 1262.35,111.94 1264.1,109.7 L1269.33,102.91 L1274.69,96.24 C1281.92,87.43 1289.38,78.8 1297.27,70.62 C1305.12376,62.4444293 1313.42661,54.712464 1322.14,47.46 C1330.77535,40.232348 1340.01225,33.7554746 1349.75,28.1 C1359.38099,22.480204 1369.65092,18.0351613 1380.34,14.86 C1390.93597,11.7250913 1401.95231,10.2443282 1413,10.47 C1424.04001,10.7981035 1434.9669,12.7940068 1445.41,16.39 C1455.91353,20.074411 1465.94873,24.9779008 1475.31,31 C1484.80285,37.0220172 1493.75929,43.8505938 1502.08,51.41 L1505.25,54.21 C1506.25,55.16 1507.25,56.21 1508.25,57.15 L1514.34,63.05 L1520.19,69.21 L1523.11,72.3 C1524.11,73.3 1524.98,74.42 1525.92,75.48 L1531.52,81.89 C1532.52,82.89 1533.36,84.05 1534.26,85.16 L1537,88.5 C1538.78,90.71 1540.6,92.89 1542.35,95.13 L1547.5,101.94 C1561.12149,120.250274 1573.7207,139.299317 1585.24,159 C1594.12,174.07 1608.29,200.83 1619.05,221.74 Z"/>
    <path fill="url(#wave-15-b)" d="M1619.05,197.6 L1619.05,221.74 C1608.29,200.83 1594.12,174.07 1585.24,159 C1573.71746,139.299079 1561.11491,120.250031 1547.49,101.94 L1542.34,95.13 C1540.59,92.89 1538.77,90.71 1536.99,88.5 L1534.31,85.19 C1533.41,84.08 1532.52,82.97 1531.57,81.92 L1525.97,75.51 C1525.03,74.45 1524.12,73.36 1523.16,72.33 L1520.24,69.24 L1514.39,63.08 L1508.3,57.18 C1507.3,56.18 1506.3,55.18 1505.3,54.24 L1502.13,51.44 C1493.79459,43.8678896 1484.8213,37.0291884 1475.31,31 C1465.95016,24.9674824 1455.9149,20.053897 1445.41,16.36 C1434.96532,12.7742156 1424.03847,10.7884342 1413,10.47 C1401.95283,10.2410841 1390.9365,11.7184727 1380.34,14.85 C1369.65092,18.0251613 1359.38099,22.470204 1349.75,28.09 C1340.01225,33.7454746 1330.77535,40.222348 1322.14,47.45 C1313.42661,54.702464 1305.12376,62.4344293 1297.27,70.61 C1289.38,78.79 1281.92,87.42 1274.69,96.23 L1269.33,102.9 L1264.1,109.69 C1262.35,111.93 1260.66,114.24 1258.97,116.54 C1257.28,118.84 1255.55,121.12 1253.91,123.46 C1247.23,132.74 1240.84,142.24 1234.56,151.81 C1209.67,190.27 1187.56,230.59 1166.73,271.52 C1156.30333,291.993333 1146.15333,312.61 1136.28,333.37 L1121.39,364.54 C1116.33,374.913333 1111.11667,385.21 1105.75,395.43 C1094.89,415.82 1083.41,435.95 1070.11,454.99 C1063.48893,464.574411 1056.25026,473.71712 1048.44,482.36 C1044.50271,486.708844 1040.32977,490.838383 1035.94,494.73 L1032.61,497.63 L1029.14,500.38 C1028.01,501.32 1026.77,502.14 1025.57,503.01 L1023.77,504.3 C1023.16,504.72 1022.52,505.11 1021.9,505.51 C1016.92528,508.80418 1011.61977,511.56921 1006.07,513.76 C1000.47119,515.947837 994.623591,517.435768 988.66,518.19 C982.708059,518.904931 976.691941,518.904931 970.74,518.19 C964.848479,517.489448 959.03178,516.261181 953.36,514.52 C942.209176,510.967456 931.434143,506.328531 921.19,500.67 C910.94,495.2 901.06,489.18 891.29,483.05 C871.77,470.74 852.64,458 833.06,446.05 C823.27,440.05 813.39,434.21 803.38,428.63 C793.37,423.05 783.23,417.76 772.83,413.03 C762.477741,408.27805 751.804877,404.258182 740.89,401 C730.054662,397.670095 718.850181,395.688487 707.53,395.1 C706.13,395.03 704.72,394.96 703.31,395 L699.09,395.06 C696.29,395.26 693.48,395.39 690.7,395.83 C685.132179,396.537609 679.652828,397.821152 674.35,399.66 C669.030503,401.479194 663.891711,403.789139 659,406.56 C654.12257,409.405109 649.460095,412.603667 645.05,416.13 C640.655877,419.720209 636.453418,423.538805 632.46,427.57 C628.52,431.67 624.67,435.87 621.04,440.28 C613.71,449.03 607.04,458.34 600.53,467.79 C587.61,486.74 575.72,506.45 563.7,526.06 C551.68,545.67 539.65,565.33 527.1,584.65 C514.55,603.97 501.57,623 487.91,641.56 C481.08,650.83 474.12,660.02 466.91,669.04 C463.37,673.58 459.7,678.04 456.08,682.51 C452.46,686.98 448.76,691.4 444.98,695.75 L439.35,702.31 C437.4,704.45 435.49,706.62 433.51,708.73 C431.53,710.84 429.51,712.89 427.44,714.92 C425.37,716.95 423.28,718.92 421.15,720.92 C412.598429,728.700416 403.5818,735.953793 394.15,742.64 C375.258065,755.898967 355.268841,767.521153 334.4,777.38 C313.583282,787.267645 292.214597,795.948673 270.4,803.38 C226.84,818.38 182,829.38 136.78,837.97 C114.16,842.223333 91.4333333,845.84 68.6,848.82 C57.1866667,850.32 45.7566667,851.653333 34.31,852.82 L27.74,853.47 L26.99,853.54 L20.74,854.12 C16.2066667,854.52 11.68,854.883333 7.16,855.21 L5.51,855.33 L5.01,855.33 L2.71,855.49 L1.98,855.54 L1.36,855.54 L0.84,855.54 C12.01,854.78 23.16,853.72 34.29,852.54 C45.73,851.306667 57.15,849.913333 68.55,848.36 C91.35,845.273333 114.05,841.546667 136.65,837.18 C181.81,828.41 226.55,817.18 269.95,801.96 C291.665967,794.423644 312.931007,785.645847 333.64,775.67 C354.38034,765.802441 374.239289,754.180138 393,740.93 C402.313338,734.240843 411.216067,726.997775 419.66,719.24 C421.76,717.24 423.79,715.24 425.86,713.3 C427.93,711.36 429.86,709.19 431.86,707.14 C433.86,705.09 435.69,702.88 437.61,700.76 L443.19,694.19 C446.93,689.84 450.53,685.35 454.19,680.93 C457.85,676.51 461.42,672 464.93,667.45 C472.03,658.45 478.93,649.22 485.69,639.93 C499.22,621.36 512.11,602.32 524.52,582.93 C536.93,563.54 548.89,543.93 560.78,524.24 C572.67,504.55 584.51,484.77 597.42,465.63 C603.9,456.08 610.61,446.63 618.01,437.71 C621.68,433.22 625.58,428.91 629.6,424.71 C633.682669,420.546431 637.981967,416.600957 642.48,412.89 C647.042913,409.208833 651.869139,405.866571 656.92,402.89 C662.014222,399.947094 667.370513,397.483201 672.92,395.53 C678.486654,393.57065 684.240363,392.190028 690.09,391.41 C693,390.94 695.94,390.79 698.88,390.57 C700.34,390.57 701.81,390.51 703.28,390.49 C704.75,390.47 706.22,390.49 707.69,390.57 C719.379318,391.107871 730.957221,393.089584 742.16,396.47 C753.309995,399.756313 764.213819,403.82645 774.79,408.65 C817,428 855.3,454.08 894.2,478.43 C903.95,484.48 913.77,490.43 923.85,495.71 C933.93,500.99 944.27,505.78 955,509 C965.73,512.22 976.94,513.71 987.86,512.25 C998.848215,510.705627 1009.32905,506.635832 1018.48,500.36 C1019.06,499.98 1019.65,499.61 1020.23,499.22 L1022,498 C1023.13,497.17 1024.29,496.39 1025.36,495.49 L1028.65,492.87 L1031.82,490.09 C1036.03595,486.311937 1040.04194,482.305945 1043.82,478.09 C1051.39713,469.617308 1058.4121,460.658193 1064.82,451.27 C1077.82,432.51 1089.06,412.52 1099.73,392.27 C1105.01667,382.09 1110.14667,371.833333 1115.12,361.5 L1129.83,330.3 C1139.67,309.47 1149.69,288.72 1160.06,268.13 C1180.77,226.96 1202.76,186.32 1227.7,147.36 C1234,137.66 1240.41,128.03 1247.13,118.6 C1248.77,116.22 1250.52,113.91 1252.22,111.6 C1253.92,109.29 1255.62,106.91 1257.39,104.6 L1262.66,97.68 L1268.08,90.87 C1275.4,81.87 1282.96,73.03 1291,64.6 C1299.05373,56.1351787 1307.57011,48.1229088 1316.51,40.6 C1325.49867,33.0103795 1335.11668,26.199157 1345.26,20.24 C1355.49834,14.2043752 1366.42283,9.41693642 1377.8,5.98 C1389.27755,2.51139169 1401.22096,0.831691271 1413.21,1 C1425.21791,1.29208357 1437.11252,3.39926345 1448.49,7.25 C1459.72309,11.1420024 1470.46265,16.3339098 1480.49,22.72 C1490.48736,28.9849788 1499.92269,36.1049748 1508.69,44 L1512,46.9 C1513.09,47.9 1514.13,48.9 1515.19,49.9 L1521.52,55.98 L1527.59,62.31 L1530.59,65.48 C1531.59,66.54 1532.53,67.65 1533.51,68.74 L1539.3,75.3 C1540.3,76.38 1541.2,77.51 1542.12,78.64 L1544.89,82.01 C1546.72,84.27 1548.6,86.5 1550.4,88.78 L1555.7,95.71 C1569.65196,114.260625 1582.5651,133.570235 1594.38,153.55 C1603.02,168.016667 1611.24333,182.7 1619.05,197.6 Z"/>
  </g>
</svg>
