<?xml version="1.0" encoding="utf-8"?>
<!-- Generator: Adobe Illustrator 23.0.3, SVG Export Plug-In . SVG Version: 6.00 Build 0)  -->
<svg version="1.1" id="Layer_1" xmlns="http://www.w3.org/2000/svg" xmlns:xlink="http://www.w3.org/1999/xlink" x="0px" y="0px"
	 viewBox="0 0 1920 706" style="enable-background:new 0 0 1920 706;" xml:space="preserve">
<style type="text/css">
	.st0{opacity:5.000000e-02;fill-rule:evenodd;clip-rule:evenodd;enable-background:new    ;}
	.st1{fill-rule:evenodd;clip-rule:evenodd;fill:#F5F9FF;}
	.st2{opacity:5.400000e-02;fill-rule:evenodd;clip-rule:evenodd;fill:#264EEE;enable-background:new    ;}
</style>
<path class="st0" d="M1921.1,131v574.8c-277.5,0.4-525.4-44.3-736.5-134.2c-43.2-18.4-84.8-38.7-124.9-60.8
	c-453.8-293.5-779-363.2-974.3-209.2c-29.9,23.6-56.7,52.3-80.5,86.4c-1.6,2.3-3.2,4.7-4.9,7.1V131H1921.1z"/>
<g>
	<path class="st1" d="M1921.1,338.8c-29.1,25.1-61.4,45.8-97.1,62.2c0,0,0,0,0,0c-38,17.4-79.9,29.9-125.5,37.4
		c-171.2,28.1-395.4-13.8-672.8-125.8c-442-178.5-755.5-182.2-940.3-11c-32.1,29.7-60.3,64.7-84.6,105c-0.3,0.4-0.5,0.8-0.8,1.3V1
		h1921.1c-0.1,48.6-0.1,91.9-0.2,130C1920.8,268.5,1920.8,337.8,1921.1,338.8z"/>
</g>
<path class="st2" d="M954.8,131c253.4,127.1,517,302.2,743.7,307.3c-171.2,28.1-395.4-13.8-672.8-125.8
	c-442-178.5-755.5-182.2-940.3-11c-32.1,29.7-60.3,64.7-84.6,105c1.3-6.3,2.6-12.5,4.1-18.6C30.2,279.6,77.8,194,147.6,131
	C235.5,51.6,358.7,8.3,516.8,1c0.3,0,0.7,0,1,0c12.5-0.5,25.2-0.5,37.9,0C680.5,6.2,816.1,61.5,954.8,131z"/>
</svg>
