<svg xmlns="http://www.w3.org/2000/svg" xmlns:xlink="http://www.w3.org/1999/xlink" viewBox="0 0 321.62 301.62">
  <defs>
    <style>
      .a {
        fill: url(#a);
      }

      .b {
        mask: url(#b);
      }

      .c {
        fill: #ddd;
      }
    </style>
    <linearGradient id="a" y1="150.81" x2="321.62" y2="150.81" gradientUnits="userSpaceOnUse">
      <stop offset="0" stop-color="#ddd" stop-opacity="0.8"/>
      <stop offset="0.3" stop-color="#8b8b8b" stop-opacity="0.5"/>
      <stop offset="0.61" stop-color="#414141" stop-opacity="0.23"/>
      <stop offset="0.84" stop-color="#121212" stop-opacity="0.06"/>
      <stop offset="0.96" stop-opacity="0"/>
    </linearGradient>
    <mask id="b" x="0" y="0" width="321.62" height="301.62" maskUnits="userSpaceOnUse">
      <rect class="a" width="321.62" height="301.62"/>
    </mask>
  </defs>
  <title>wave-20</title>
  <g class="b">
    <g>
      <path class="c" d="M0,179.77A77.87,77.87,0,0,0,0,163.9V161a77.85,77.85,0,0,1,0,21.36Z"/>
      <path class="c" d="M0,197.48c.36-1.26.71-2.58,1-3.9,3.87-15.81,4.07-30.43.58-42.26A44.57,44.57,0,0,0,0,146.8v-1.16a46.72,46.72,0,0,1,1.72,4.58c3.61,11.65,3.57,26.18-.13,42.05-.46,2-1,4-1.59,6.11Z"/>
      <path class="c" d="M0,207.7a132.85,132.85,0,0,0,6.84-27.42c2.05-15.67.14-30.06-5.37-40.52-.4-.77-.87-1.57-1.47-2.51v-.92c.57.87,1.06,1.67,1.49,2.46,5.7,10.38,7.7,24.27,5.8,40.18A134.89,134.89,0,0,1,0,208.34Z"/>
      <path class="c" d="M0,216.14l.27-.58c.21-.47.42-.95.62-1.43,7-16.69,14.4-41.35,10.29-64.07A47.9,47.9,0,0,0,0,126.89v-.71a47.21,47.21,0,0,1,11.33,22.75c4.45,22.55-2.85,47.26-9.75,64-.47,1.14-1,2.33-1.58,3.7Z"/>
      <path class="c" d="M0,223.58c1.69-3.46,3.16-6.71,4.47-9.83,7.15-17.1,14.85-42.4,11-65.86C13.5,136.37,8,126.15,0,119.09v-.63c8,6.9,13.55,16.93,15.59,28.3,4.1,23.36-3.42,48.7-10.46,65.84C3.67,216.2,2,219.94,0,224Z"/>
      <path class="c" d="M0,230.68c3.34-6.49,6-12.06,8.2-17.47C15.49,195.82,23.4,170,19.83,145.84,17.72,131.48,10.32,118.75,0,111.76v-.55c10.27,6.82,17.72,19.32,20,33.51,3.8,24.13-4,50-11.13,67.39-2.37,5.76-5.18,11.81-8.84,19Z"/>
      <path class="c" d="M0,237.31c4-7.54,8.19-15.84,11.9-24.8C19.23,194.92,27.28,168.76,24.1,144,21.84,126.44,12.62,111.61,0,105.29v-.5c12.55,6.15,21.82,20.71,24.23,38.1,3.37,24.66-4.51,50.89-11.72,68.56C8.61,221,4.05,229.93,0,237.66Z"/>
      <path class="c" d="M0,243.88l1-1.79c5-9.66,10.21-19.66,14.71-30.52,10.45-25.43,14.81-49.41,12.6-69.36-2.22-19.65-12-35.6-25.56-41.62-.8-.36-1.69-.71-2.71-1.08v-.46c1,.33,1.81.66,2.58,1,13.58,5.81,23.48,21.53,25.84,41C30.83,161,26.63,185,16.27,210.54c-4.52,11.12-9.8,21.35-14.91,31.24L0,244.36Z"/>
      <path class="c" d="M0,250.81c1.57-3.11,3.24-6.36,4.93-9.68,5-9.78,10.19-19.9,14.68-30.89,10.39-25.59,14.81-49.82,12.8-70.07-2-20-11.36-36.59-24.5-43.17A41,41,0,0,0,0,94.06v-.45a41.82,41.82,0,0,1,7.78,2.8C21,102.76,30.45,119.1,32.58,139.05c2.16,20.39-2.13,44.67-12.4,70.21-4.52,11.3-9.8,21.67-14.91,31.7C3.44,244.57,1.7,248,0,251.38Z"/>
      <path class="c" d="M0,259.8c2.41-5.12,5.21-10.47,8.18-16.12,1.66-3.16,3.37-6.42,5.05-9.74a280.21,280.21,0,0,0,16-36.74C42.69,157.49,42.78,110,12.55,93.45A42.24,42.24,0,0,0,0,89.13v-.42a42.13,42.13,0,0,1,12.39,4.13C42.93,109,43.06,156.45,29.66,196.27c-4.73,14.25-11.32,27.89-15.86,36.92L12.41,236c-4.64,9.2-9,17.91-12.39,26.2Z"/>
      <path class="c" d="M0,270.67C3.3,260.12,9.18,248.41,15.4,236l1.78-3.55A286.72,286.72,0,0,0,33,195.28c13.34-40,13.4-88.18-16.53-105.51A42.37,42.37,0,0,0,0,84.57v-.41a42.22,42.22,0,0,1,16.34,5c30.17,16.93,30.33,65.07,17.11,105.26a277.38,277.38,0,0,1-15.78,37.37l-2.05,4.11c-6.4,12.84-12.46,25-15.62,35.87Z"/>
      <path class="c" d="M3.25,301.62a35.93,35.93,0,0,1-2.26-3c-.33-.5-.66-1-1-1.66v-1a19.54,19.54,0,0,0,1.35,2.42,35.1,35.1,0,0,0,2.4,3.2Z"/>
      <path class="c" d="M7.52,301.62A34,34,0,0,1,4.06,297c-8.76-14.24,2.31-36.57,14-60.21q1.69-3.41,3.39-6.86a278.18,278.18,0,0,0,15.66-37.78C49,154.79,51.59,104.49,19.67,85.74c-5.55-3.25-12-5.07-19.65-5.55v-.38c7.6.42,14,2.15,19.5,5.29,14,8,22.69,23.28,25.22,44.25,2.2,18.25-.36,40.26-7.21,62C34,202.62,29,214.69,22,229.3c-1.14,2.35-2.3,4.68-3.44,7C6.82,260-4.23,282.35,4.44,296.77a32.74,32.74,0,0,0,3.61,4.85Z"/>
      <path class="c" d="M11.71,301.62l-.38-.39a33.35,33.35,0,0,1-4.16-5.59c-2.58-4.45-3.33-9.58-2.77-15.28a27.23,27.23,0,0,0,3.16,15,33.9,33.9,0,0,0,4.7,6.24Zm6.13-58.46c1-2.12,2.08-4.27,3.14-6.44,1.54-3.15,3.11-6.35,4.66-9.58a277.37,277.37,0,0,0,15.45-38.65c7.87-25.93,9.43-51.44,4.4-71.82-4-15.89-12.92-29-23.84-35.21C15.57,78.05,8.5,76.32,0,76.17v-.36c8.4.08,15.43,1.73,21.47,5,11,6,20,19,24.05,34.84,5.2,20.25,3.75,45.84-4.09,72.05a273.53,273.53,0,0,1-15.37,38.82c-2.13,4.44-4.29,8.75-6.39,12.92Z"/>
      <path class="c" d="M17.31,301.62l-.2-.19-.45-.46a35,35,0,0,1-4.49-5.78c-5.82-9.57-3.5-21.72-.53-30.23s7.23-17.24,11.78-26.64c2.27-4.69,4.62-9.53,6.91-14.55A271.37,271.37,0,0,0,45,184.88c7.59-26.93,8.57-53,2.75-73.5-4.53-16-14.09-28.89-25.56-34.61-6-3-12.84-4.41-20.9-4.41H0V72l1.73,0A46,46,0,0,1,22,76.17c11.48,5.54,21.1,18.33,25.73,34.22,6,20.51,5.11,46.69-2.42,73.72a279.74,279.74,0,0,1-14.57,39c-2.2,4.81-4.44,9.48-6.61,14-4.63,9.61-9,18.69-12,27.25s-5.32,20.89.41,30.53a34.85,34.85,0,0,0,5.29,6.69Z"/>
      <path class="c" d="M23.46,301.62a36.55,36.55,0,0,1-3.41-3.79c-9.16-11.8-6.12-28.12-1.95-39.74,2.79-7.87,6.35-16,10.12-24.63,4.44-10.16,9-20.66,13-32,7.24-20.92,14.91-52.08,10.31-81.71-3.59-23.34-15.29-41.6-30.54-47.65A48.1,48.1,0,0,0,3,69c-1,0-2,0-3,.07v-.34c1.18-.06,2.34-.09,3.46-.09a47.87,47.87,0,0,1,17.31,2.93c15.25,5.83,27,23.91,30.77,47.17,4.79,29.7-2.77,60.94-10,81.93-4,11.52-8.58,22.21-13.06,32.55-3.67,8.48-7.13,16.49-9.9,24.23-4.23,11.73-7.34,28.23,1.81,40.2a36.1,36.1,0,0,0,3.56,4Z"/>
      <path class="c" d="M30.09,301.62c-.54-.5-1.07-1-1.57-1.54-8.63-9-11.14-22.94-6.86-38.21,2.65-9.37,6.71-19.21,11-29.62,3.22-7.8,6.55-15.87,9.58-24.41C50.62,184.3,59.45,149.46,54,117.21c-2.28-13.46-6.8-25-13.08-33.54a42.18,42.18,0,0,0-22.69-16,50.58,50.58,0,0,0-13-1.6c-1.69,0-3.45.07-5.24.21v-.32c2-.17,3.87-.25,5.7-.25a50.29,50.29,0,0,1,12.39,1.46,41.91,41.91,0,0,1,22.7,15.69c6.34,8.42,10.93,19.94,13.27,33.33C59.73,148.47,51,183.4,42.72,207c-3,8.61-6.36,16.76-9.59,24.63-4.26,10.41-8.29,20.25-11,29.63-4.35,15.46-1.88,29.56,6.76,38.68.51.54,1.06,1.09,1.69,1.68Z"/>
      <path class="c" d="M37.61,301.62l-.2-.17C28,293,23.64,280.06,25.84,266.75c1.83-10.81,6.34-22.43,11.1-34.74,1.67-4.32,3.4-8.78,5.08-13.36,14.71-40.13,19.69-74.79,14.8-103C54.11,100.24,48.65,87.38,41,78.42a42.21,42.21,0,0,0-26.9-14.78,54.36,54.36,0,0,0-6.5-.38A70.45,70.45,0,0,0,0,63.7v-.3a70.54,70.54,0,0,1,8.12-.5,52.9,52.9,0,0,1,5.86.31A41.74,41.74,0,0,1,40.89,77.6c7.76,9,13.28,21.73,16,37,5.12,28.26.29,63-14.36,103.25-1.61,4.41-3.27,8.72-4.87,12.89-4.82,12.57-9.38,24.45-11.3,35.49-2.28,13.72,1.92,26.53,11.51,35.16l.32.27Z"/>
      <path class="c" d="M45.64,301.62C36.38,294.1,31,283.56,31,272.71c0-12,4.63-25.1,9.53-39l.53-1.48c6-16.8,12.7-35.85,16.72-55.91,4.4-21.8,5.13-42.8,2.13-60.74C57,97.83,50.25,82.84,41,73.38A43.69,43.69,0,0,0,9.81,60.52H9a73.72,73.72,0,0,0-9,.78V61a71.65,71.65,0,0,1,8.83-.84l1.29,0a42.92,42.92,0,0,1,30.7,12.43c9.24,9.3,16,24.17,19.13,41.88,3.12,18,2.52,38.43-1.8,60.8-3.88,19.95-10.54,38.93-16.41,55.69l-.7,2c-4.69,13.35-9.54,27.15-9.58,39.32,0,11.08,5.35,21.77,14.71,29.38Z"/>
      <path class="c" d="M54.33,301.62l-.06,0c-8.81-6.48-14.84-14.8-17-23.44-1.86-7.63-1.39-16.51,1.52-28.79,1.93-7.95,4.58-16.37,7.39-25.29,1.21-3.85,2.46-7.81,3.69-11.86,5.3-17.6,8.57-31.43,10.6-44.84a187,187,0,0,0,2-40.59c-1.65-23.53-8.7-43.17-19.84-55.29C34.51,62.68,23,57.83,10.13,57.83a50.48,50.48,0,0,0-7.24.52c-1,.13-1.91.29-2.87.46v-.29c.91-.17,1.82-.33,2.73-.47a52.63,52.63,0,0,1,7.7-.58c12.62,0,24,4.7,32,13.23,11.23,12,18.38,31.58,20.13,55a183.8,183.8,0,0,1-1.75,40.56c-2.44,16.85-6.85,32.85-10.42,44.9-1.32,4.39-2.66,8.68-4,12.82-2.7,8.64-5.26,16.79-7.1,24.54-2.93,12.2-3.44,21.47-1.62,29.17,2,8.75,8.07,17.19,17,23.79l.17.11Z"/>
      <path class="c" d="M64,301.62c-.6-.39-1.19-.79-1.77-1.19C51.76,293.1,44.69,283,42.86,272.61c-2-11.1.54-23.52,3.56-35.27,1.44-5.73,3-11.55,4.74-17.72,5-18,10.55-38.33,12.84-60,2.1-19.46,1.33-38-2.22-53.73C57.4,86.41,48.24,70.54,36.65,62.37c-6.74-4.74-15.38-7.25-25-7.25A62.81,62.81,0,0,0,0,56.25V56a63.39,63.39,0,0,1,12.06-1.21c9.49,0,17.7,2.34,24.39,7,11.56,8,20.8,23.72,25.33,43.18,3.61,15.64,4.48,34.18,2.51,53.6-2.26,22.35-8,43.37-13.06,61.91-1.52,5.56-3,10.81-4.27,16-3.48,13.88-5.44,25.26-3.67,35.72S52.22,293,62.75,300.36c.61.43,1.24.85,1.87,1.26Z"/>
      <path class="c" d="M74.35,301.62c-1.72-1-3.36-2-4.89-3.05-11.52-7.88-19.11-19.12-20.82-30.85-1.71-12.08,1-25.14,4.45-39.72.71-3,1.46-6.05,2.21-9.15,5-20.27,10.57-43.24,12-67.78,1.39-24-1.55-45.79-8.51-62.93-6.5-16-17.11-28-29.09-32.86a43,43,0,0,0-16.27-3A67.28,67.28,0,0,0,0,53.78V53.5A67,67,0,0,1,13.81,52a42.62,42.62,0,0,1,15.7,2.78c12,4.74,22.64,16.57,29.17,32.46,7,16.87,10.05,38.54,8.84,62.66-1.25,24.66-6.83,47.84-11.77,68.29-.71,3-1.42,5.9-2.1,8.78-3.36,14.15-6.23,27.87-4.56,40.23,1.66,12,9.27,23.38,20.89,31.34,1.52,1.05,3.16,2.08,5,3.13Z"/>
      <path class="c" d="M85.86,301.62A90.48,90.48,0,0,1,76.24,296c-12.18-8.35-20-20.57-21.51-33.52-1.53-13.2,1.5-27.64,4.71-42.92l.65-3.07c4.73-22.32,10.09-47.62,10.16-74.63.07-27.37-5.61-51.6-16-68.22C46.29,61,34.69,52.46,22.43,50.28a45.8,45.8,0,0,0-8-.68A67.2,67.2,0,0,0,0,51.33v-.28a65.65,65.65,0,0,1,14.77-1.83,45.73,45.73,0,0,1,7.52.6c12.27,2.06,23.87,10.41,31.8,22.91,10.46,16.38,16.27,40.46,16.35,67.81s-5.31,53.29-10.1,76.06L60,218.44c-3.23,15.42-6.28,30-4.79,43.35C56.63,275,64.5,287.4,76.77,295.87a88.31,88.31,0,0,0,9.82,5.75Z"/>
      <path class="c" d="M98.27,301.62a94.9,94.9,0,0,1-16-8.9c-12.33-8.74-20.14-21.85-21.41-36-1.23-13.51,1.43-28,4.25-43.34l.59-3.21c4.77-26.76,8.6-51.09,7.16-78C71.15,102.3,62.46,76.75,49,62.12A46.08,46.08,0,0,0,15.35,47,65.38,65.38,0,0,0,0,49v-.28A66.09,66.09,0,0,1,15.25,46.6h.35A45.86,45.86,0,0,1,48.8,61.34C62.37,75.87,71.18,101.22,73,130.9c1.67,27.44-2.43,53.57-6.77,78q-.47,2.63-.92,5.21c-2.64,14.81-5.13,28.79-4,41.92,1.21,14.41,9,27.76,21.49,36.61a92,92,0,0,0,16.24,9Z"/>
      <path class="c" d="M112,301.62a98.51,98.51,0,0,1-24.39-12.88A52.48,52.48,0,0,1,67.11,250c-.78-13.29,1.33-27.21,3.56-41.94q.58-3.83,1.16-7.73c3.58-24.58,6.44-51.13,3.2-78.73-1.88-16-5.64-30.23-11.19-42.15s-12.74-21.12-21-27c-6.75-4.84-15.2-7.3-25.11-7.3A80.45,80.45,0,0,0,0,47.34v-.28A80.51,80.51,0,0,1,18.2,44.75c9.65,0,17.9,2.37,24.5,7,8.28,5.85,15.54,15.06,21,26.63,5.6,11.77,9.44,25.85,11.42,41.84,3.41,27.61.68,54.13-2.78,78.69-.42,3-.87,5.92-1.31,8.84-2.18,14.53-4.25,28.26-3.46,41.44a53,53,0,0,0,20.59,39.39,98.55,98.55,0,0,0,24.61,13Z"/>
      <path class="c" d="M127.57,301.62c-14.72-4.67-26.51-10.63-35-17.71C78,271.68,74.32,254.71,73.82,242.62c-.48-12.39,1-25.32,2.65-39,.54-4.61,1.11-9.38,1.61-14.26,2.39-23.11,4.11-50.59-1.25-79.18C73.66,93.47,68.52,79.26,61.55,68,54.73,57,45.79,48.62,36.35,44.5a42.26,42.26,0,0,0-17-3.3A74.5,74.5,0,0,0,0,44.05v-.27a74.15,74.15,0,0,1,19.7-3,41.83,41.83,0,0,1,16.49,3.15c9.42,4,18.35,12.2,25.14,23,7.07,11.21,12.28,25.29,15.49,41.83,5.59,28.4,4,55.89,1.71,79-.49,4.83-1,9.63-1.59,14.27-1.59,13.62-3.1,26.48-2.72,39.15.55,17.64,7.27,32.75,18.91,42.53,8.5,7.14,20.37,13.15,35.29,17.86Z"/>
      <path class="c" d="M144.6,301.62c-2.84-.74-5.59-1.51-8.12-2.29-17.13-5.24-30.36-12.22-39.31-20.75-20.38-19.43-17.77-48.93-15-80.16.58-6.45,1.17-13.13,1.56-19.75,1.31-21.27,1.86-49.42-5.52-78.58C74,83.43,67.44,69.07,59.32,58.56c-8-10.22-18.13-17.24-28.64-19.75A45.23,45.23,0,0,0,20.3,37.65,71.5,71.5,0,0,0,0,40.94v-.27a71.5,71.5,0,0,1,20.59-3.43,44.52,44.52,0,0,1,10,1.09C41,40.73,51.15,47.58,59.08,57.62,67.24,68,73.84,82.17,78.15,98.7c7.6,29,7.2,57.07,6,78.34-.39,7-1,14-1.6,20.81-2.75,31.34-5.34,60.94,15.17,80.55,9.06,8.64,22.44,15.7,39.76,21,2.56.77,5.3,1.53,8.16,2.26Z"/>
      <path class="c" d="M164.16,301.62A189.3,189.3,0,0,1,139,295c-16.48-5.58-29.06-13.11-37.39-22.38-18.3-20.43-16.25-48.08-14.09-77.35.65-8.76,1.32-17.83,1.46-26.88.33-20.84-.44-48.42-9.42-77C74.18,74.55,66.63,60.56,57.68,50.91c-8.65-9.28-20-15.29-31.28-16.5a47.85,47.85,0,0,0-5.13-.27A70.05,70.05,0,0,0,0,37.85v-.2a70.94,70.94,0,0,1,21.81-3.88c1.52,0,3,.07,4.49.2C37.44,35,48.78,40.88,57.41,50c9,9.49,16.57,23.31,22,40,9.15,28.41,10.1,55.91,9.9,76.69-.09,9.43-.78,18.87-1.44,28-2.15,29.36-4.17,57.1,14.25,77.74,8.31,9.32,21.06,16.93,37.91,22.63a203.5,203.5,0,0,0,25.42,6.57Z"/>
      <path class="c" d="M294,301.62c2.37-.21,4.64-.43,6.86-.66,6.78-.7,13.77-1.52,20.77-2.44v.15c-7.74,1-15.33,1.91-22.54,2.63l-2.35.22-1.06.1Z"/>
      <path class="c" d="M189.76,301.62c-6.79-.82-13.24-1.83-19.16-3a182.79,182.79,0,0,1-29.1-7.93c-16.13-6-28.18-14.12-35.83-24.12C94.76,252.33,93.13,234.41,93,217.15c-.07-8.54.15-16.87.39-25.69.28-10.58.57-21.52.32-32.85C93.12,138,91.16,110.79,81.17,83.5,75.08,66.76,66.69,53.09,56.9,44,47.48,35.25,35.32,30.23,23.54,30.2h-.16C16.31,30.2,8.66,31.64,0,34.61v-.25c8.69-3,16.36-4.53,23.46-4.57h.18c11.65,0,23.66,4.86,33,13.32C66.39,52,74.82,65.52,81,82.09c8.11,21.59,12.12,44.64,13,74.74.35,11.66.06,22.93-.23,33.83-.22,8.7-.43,16.92-.35,25.37.13,17.56,1.77,35.81,12.78,50.28,7.78,10.17,20,18.39,36.38,24.42A191.16,191.16,0,0,0,172,298.65c6.16,1.16,12.73,2.16,19.59,3Z"/>
      <path class="c" d="M239.87,300.8c-8.49,0-16.86-.23-24.89-.67a312.51,312.51,0,0,1-39.28-4.52,180.16,180.16,0,0,1-30.3-8.15c-16.36-6.16-28.92-15-36.32-25.67-10.48-15.08-11.44-34.26-11.52-51.05,0-7.08.11-14.32.24-21.32.24-12.84.49-26.12-.18-39.91-1.4-29.15-6.08-52.57-14.71-73.71C75.85,58.67,66.55,45.18,56,36.79A50.17,50.17,0,0,0,24.94,25.88c-1.53,0-3.07.07-4.57.22A80.34,80.34,0,0,0,0,31.14V30.9a81.22,81.22,0,0,1,20.3-5.17,47.45,47.45,0,0,1,4.93-.26A49.68,49.68,0,0,1,55.71,36c10.54,8.25,19.87,21.53,27,38.43,8.7,20.8,13.53,44.1,15.17,73.33.76,13.93.53,27.38.32,40.39-.12,7.05-.24,14.33-.2,21.47.09,17.08,1.06,36.58,11.61,51.88,7.43,10.74,20.18,19.73,36.86,26a182,182,0,0,0,30.67,8.14,323.66,323.66,0,0,0,39.7,4.42c7.5.4,15.35.61,23.32.61A590.35,590.35,0,0,0,304,296.91c5.59-.62,11.53-1.35,17.64-2.18v.17c-6.56.88-13.09,1.68-19.43,2.36C286.43,299,270.9,300,254.7,300.58,249.71,300.72,244.72,300.8,239.87,300.8Z"/>
      <path class="c" d="M240,297.34c-5.88,0-11.71-.11-17.34-.33a321.27,321.27,0,0,1-41.57-4.18,177.93,177.93,0,0,1-31.74-8.29c-16.9-6.33-29.7-15.73-37-27.18-9.79-15.45-10.6-34.54-10.6-52.78,0-5.77.07-11.67.13-17.38.19-15.06.37-30.63-.79-46.8-2.1-28.24-7.5-51.71-16.5-71.77-7.8-17.44-18-30.82-29.49-38.69a49.6,49.6,0,0,0-28.18-8.51,52.71,52.71,0,0,0-9.72.9A91.21,91.21,0,0,0,0,27.57v-.25A91.22,91.22,0,0,1,17.12,22a53,53,0,0,1,10.06-1,49.2,49.2,0,0,1,27.55,8.16C66.12,36.83,76.33,50,84.28,67.27c9.17,20,14.71,43.37,16.94,71.38,1.29,16.6,1.14,32.61,1,48.08-.06,5.48-.11,11.14-.1,16.67.09,19.48,1,38.24,10.67,53.6,7.39,11.61,20.38,21.12,37.56,27.52a178.57,178.57,0,0,0,32.11,8.28,327.69,327.69,0,0,0,42,4.08c5.18.18,10.53.28,15.93.28a574,574,0,0,0,67.56-4.29c4.35-.52,9-1.11,13.71-1.78v.17c-5.38.75-10.59,1.42-15.49,2A575.15,575.15,0,0,1,240,297.34Z"/>
      <path class="c" d="M240.57,294.21c-3.11,0-6.22,0-9.25-.1A316.4,316.4,0,0,1,187,290.46a179.42,179.42,0,0,1-33.6-8.32c-17.73-6.5-30.94-16.38-38.2-28.57-9-15.18-9.82-33.75-9.91-54.69,0-4.26,0-8.54.08-12.84.15-17.56.3-35.71-1.54-54.58C101.22,104.93,95.24,81.67,86,62.35,79.93,49.79,69.44,32.9,54,23.75a49.08,49.08,0,0,0-25-6.56,57.93,57.93,0,0,0-15.07,2A101.39,101.39,0,0,0,0,24.14V23.9a103.84,103.84,0,0,1,13.83-5,58.13,58.13,0,0,1,15.41-2.12A48.63,48.63,0,0,1,53.64,23c15.53,9,26,25.63,32.07,38,9.37,19.15,15.49,42.28,18.19,68.75,2,19.22,1.86,37.74,1.76,55.66q0,6.18,0,12.29c0,21.15.83,39.93,10,55.47,7.34,12.39,20.73,22.39,38.72,28.92a184.17,184.17,0,0,0,33.95,8.31A335.5,335.5,0,0,0,233.05,294q3.33,0,6.73.05a576.85,576.85,0,0,0,73.2-5q4.29-.57,8.64-1.2v.18c-3.76.54-7.16,1-10.4,1.42A565.77,565.77,0,0,1,240.57,294.21Z"/>
      <path class="c" d="M239.56,290.92a334.11,334.11,0,0,1-47.09-3.11,177.49,177.49,0,0,1-35.68-8.54c-18.43-6.76-31.9-17.29-39-30.46a1.2,1.2,0,0,0-.15-.3,1.28,1.28,0,0,1-.11-.2C109,231.78,108.94,212,108.91,191v-5c.07-21.21.15-43.14-2.81-65.82-3.38-25.2-9.77-46.95-19-64.65C77.58,37.15,65,23.58,51.76,17.26a47.34,47.34,0,0,0-20.45-4.38A66,66,0,0,0,8.73,17.12C6,18.14,3,19.36,0,20.75v-.23C3.09,19.09,6,17.88,8.75,16.83a66,66,0,0,1,22.92-4.38A46.5,46.5,0,0,1,51.44,16.6c13.13,6.1,25.68,19.45,35.34,37.58,9.4,17.77,15.92,39.41,19.38,64.31,3.08,22.54,3.09,44.43,3.09,65.59v6.07c0,20.28,0,41.25,9,58.21,7.1,13.37,20.74,24,39.45,30.85a179.11,179.11,0,0,0,36,8.51,356.14,356.14,0,0,0,47.79,3h1.92a576.24,576.24,0,0,0,74.72-5.87l2.83-.41.6-.09v.18c-1.73.26-3.46.5-5.18.74a568.12,568.12,0,0,1-74.67,5.65Z"/>
      <path class="c" d="M241,287.39a346.28,346.28,0,0,1-39-2.05c-15.11-1.75-28.46-4.6-39.67-8.49-10.63-3.73-19.47-8.41-26.29-13.93a56.33,56.33,0,0,1-15.28-19.24c-8-16.63-8-36.65-8.11-57.85v-3.75c-.07-22-.15-49.37-5-76.21-4-22.11-10.58-41.45-19.58-57.48-11-19.46-25.17-32.9-39.92-37.86A44.78,44.78,0,0,0,33.81,8.29c-10.13,0-21.23,2.88-33,8.56l-.59.3-.2.1V17l.84-.43c11.84-5.8,23-8.74,33.2-8.74A44.7,44.7,0,0,1,47.85,9.93C62.58,14.75,76.74,28,87.7,47.11c9.12,15.94,15.82,35.17,19.91,57.15,4.76,25.5,5.24,51.44,5.33,75.82l0,3.78c.09,21.82.17,42.43,8.22,59.32a56.82,56.82,0,0,0,15.5,19.56c6.87,5.58,15.82,10.3,26.59,14a190.33,190.33,0,0,0,40,8.45,338.49,338.49,0,0,0,37.81,2c5.82,0,11.89-.13,18-.38a589.92,589.92,0,0,0,62.48-6.12v.19a575,575,0,0,1-64.16,6.2C251.85,287.29,246.31,287.39,241,287.39Z"/>
      <path class="c" d="M241.62,283.92c-8.34,0-16.46-.27-24.12-.8-17.75-1.21-33.38-3.8-46.45-7.72-12.26-3.68-22.42-8.6-30.21-14.63A56.87,56.87,0,0,1,124,239.53c-7.7-16.94-7.82-37.88-7.94-60.06,0-2.89,0-5.81-.06-8.75-.27-25.07-1.49-54.49-8.57-82.73C103,70.48,96.81,55,89.08,42.06,76.45,21,59.55,7.18,42.73,4.29a43.49,43.49,0,0,0-7.38-.61C25.06,3.68,13.5,7,0,13.83v-.22c13.6-7,25.23-10.38,35.53-10.38a43.4,43.4,0,0,1,6.92.54C59,6.45,76.24,20.29,88.7,40.8c7.78,12.8,14,28.16,18.58,45.66,7.32,28.21,8.65,57.79,9,83q.08,4.93.1,9.79c.18,22,.34,42.83,8,59.73a57.49,57.49,0,0,0,17.08,21.55c7.82,6.09,18.09,11,30.52,14.74,13.28,4,28.59,6.47,46.82,7.68,7.48.49,15.35.73,23.38.73,13.33,0,27.59-.68,42.38-2,11.83-1.06,24.3-2.58,37.06-4.54v.19c-13.39,2-26.43,3.62-38.77,4.7C268.34,283.28,254.47,283.92,241.62,283.92Z"/>
      <path class="c" d="M0,9.6A110.2,110.2,0,0,1,21.14,0h1.21A104.92,104.92,0,0,0,0,9.84Z"/>
      <path class="c" d="M242.68,280.4c-21.09,0-39.9-1.69-55.9-5-15.69-3.31-28.6-8.23-38.36-14.63a58.25,58.25,0,0,1-20.71-23.36c-6.14-12.86-7.46-28.75-8-44-.18-6.58-.23-13.2-.3-20.21-.1-11.75-.21-23.91-.92-36.37-1.36-22.6-4.38-42-9.24-59.38C104.05,58.82,96.9,42.73,88,29.62,80,17.81,70.57,8.8,60.87,3.56A49.86,49.86,0,0,0,52.54,0h1.52a51.12,51.12,0,0,1,6.43,2.82C70.2,8,79.58,16.84,87.64,28.49c8.91,12.9,16.14,28.92,21.51,47.61,4.89,17.37,8,36.82,9.53,59.44.75,12.14.88,24,1,35.51.08,7.41.16,14.4.39,21.35.43,14.48,1.71,31.08,8,44.44a58.74,58.74,0,0,0,20.94,23.7c9.82,6.47,22.84,11.42,38.69,14.71,15.69,3.27,34.05,4.93,54.57,4.93,1.78,0,3.59,0,5.41,0a530.54,530.54,0,0,0,73.89-6.62v.22a536.9,536.9,0,0,1-75.25,6.64Z"/>
      <path class="c" d="M0,6.24C4.26,3.77,8.15,1.73,11.89,0h.66A137.86,137.86,0,0,0,0,6.48Z"/>
      <path class="c" d="M240.85,276.51a307.08,307.08,0,0,1-32.68-1.62c-14.09-1.54-25.94-4-36.22-7.39-18.12-6-32.13-16.36-39.46-29.05-7.22-12.51-9.06-28.31-9.86-40.68-.59-9.28-.75-18.83-.91-29-.13-7.81-.27-15.89-.61-24.1-2-44.32-10.52-80.54-25.45-107.66-8-14.46-17.67-26-28-33.37A58.53,58.53,0,0,0,61.73,0h1c1.61.92,3.15,1.88,4.57,2.88,10.28,7.19,20,18.6,28.07,33,15.08,27,23.82,63.19,26,107.61.43,8.8.6,17.46.76,25.82.19,9.6.37,18.66.91,27.5,1.15,18.45,4.22,31.12,9.93,41.1,7.36,12.87,21.48,23.3,39.75,29.38a177.73,177.73,0,0,0,36.41,7.41,313.36,313.36,0,0,0,32.31,1.57c5.44,0,11.13-.12,16.91-.35a543.34,543.34,0,0,0,62-6.54l1.3-.22v.2l-1,.17-1.61.27a532.38,532.38,0,0,1-61.81,6.38C251.59,276.4,246.09,276.51,240.85,276.51Z"/>
      <path class="c" d="M0,3C1.86,1.94,3.65.92,5.35,0h.5C3.92,1,2,2.13,0,3.26Z"/>
      <path class="c" d="M241.17,273.91c-5.65,0-11.18-.14-16.43-.4a212,212,0,0,1-39.58-5.31,109.11,109.11,0,0,1-28-10.54,61,61,0,0,1-18-15c-6.89-8.68-11.37-20.7-13.32-35.73-1.53-12-1.83-24.84-2.14-38.46-.07-3.08-.14-6.21-.23-9.36-1.23-45.09-7-79-18.19-106.71C97.78,33.84,88,18.33,76.88,7.55A74,74,0,0,0,67.75,0h.74a74.11,74.11,0,0,1,8,6.65c11.09,10.68,21,26.06,28.55,44.47,11.33,27.56,17.27,61.5,18.69,106.78.14,4.09.24,8.11.35,12.08.33,12.74.64,24.76,2.11,36,2,15.49,6.42,27.3,13.4,36.12a61.62,61.62,0,0,0,18.14,15.23A107.85,107.85,0,0,0,185.93,268a216.79,216.79,0,0,0,39.78,5.3c5.26.26,10.76.39,16.33.39,11.27,0,23.3-.54,35.75-1.6,14.12-1.2,28.87-3.07,43.83-5.55v.19c-15.51,2.57-30.66,4.48-45,5.67C264,273.4,252.11,273.91,241.17,273.91Z"/>
      <path class="c" d="M241.29,270.65c-5.87,0-11.8-.14-17.65-.43a222.13,222.13,0,0,1-32-3.87c-19.21-3.88-34.05-10.45-44.12-19.52C130.25,231.28,127,203.29,126.06,178l-.25-6.81c-1.08-30-2.2-60.94-9.6-91.16-6.11-24.7-15.15-45.53-26.87-61.92A97.43,97.43,0,0,0,72.79,0h.59A97.78,97.78,0,0,1,89,17.09c11.72,16.19,21.1,37.5,27.12,61.62,7.6,30.3,8.82,61.45,10,91.58l.26,6.61c1.08,26.91,4.44,53.95,21.58,69.52,10.11,9.17,25,15.81,44.39,19.72A215.66,215.66,0,0,0,224.54,270c5.23.28,10.74.43,16.39.43,7,0,14.56-.22,22.36-.66,14.69-.81,29.88-2.4,45.14-4.7,4.17-.61,8.61-1.31,13.19-2.09v.19c-5,.85-9.89,1.62-14.51,2.31-15.61,2.3-30.71,3.84-44.91,4.57C255.24,270.45,248.21,270.65,241.29,270.65Z"/>
      <path class="c" d="M239.68,267.93c-1.29,0-2.57,0-3.84,0a249.85,249.85,0,0,1-33-2.32c-19.76-2.8-34.89-7.83-46.26-15.38C136.84,237,131.22,210.59,130,190.72c-.62-9.12-.89-18.56-1.18-28.56-.48-16.81-1-34.2-3.18-52.14-3.88-30.55-11.9-57.8-23.19-78.79C95.65,18.62,87.93,8.13,79.48,0H80c8,7.83,15.47,17.93,22.1,30,11.52,21.1,19.68,48.34,23.59,78.79,2.4,18.4,2.94,36.23,3.47,53.47.3,9.64.57,18.74,1.16,27.55,1.9,28.77,11.15,49.51,26.77,60,11.42,7.64,26.63,12.72,46.51,15.53a261.43,261.43,0,0,0,33.13,2.31l4.09,0c11,0,23.12-.6,35.93-1.8,13.64-1.21,28.33-3.22,44.89-6.12V260c-15.52,2.76-31,4.85-46,6.22C263.24,267.36,251.13,267.93,239.68,267.93Z"/>
      <path class="c" d="M238.22,265.36c-20.69,0-37.93-1.9-52.7-5.79a97.05,97.05,0,0,1-18.89-6.93,56,56,0,0,1-27.12-28.41c-5.34-13-6.63-29-7.19-42.94-.3-6.19-.5-12.44-.71-19.06-.61-18.67-1.23-38-4-57.86-4-28.32-11.65-54-22.19-74.25A137.08,137.08,0,0,0,84.63,0h.42a137.22,137.22,0,0,1,20,28.94c10.72,20.27,18.52,46,22.57,74.29,2.91,20.18,3.59,39.79,4.25,58.75.23,6.41.44,12.46.73,18.46.69,14.92,2.06,30.48,7.28,43.17a56.35,56.35,0,0,0,27.21,28.67,98.58,98.58,0,0,0,18.92,7c14.86,3.91,32.07,5.82,52.6,5.82l3.18,0c22.95-.17,48.7-2.78,76.51-7.77l2.65-.49.65-.12v.22l-4.4.8c-27.26,4.84-52.88,7.4-76.15,7.63Z"/>
      <path class="c" d="M238.11,262.69c-5.59,0-11.08-.16-16.29-.48-17.61-1-32-3.72-44.15-8.22-15.84-5.91-27.91-16.44-34-29.64-6.37-13.84-7.66-31.3-8.43-48-.23-4.93-.41-9.87-.61-15.09-.73-19.42-1.49-39.5-4.54-60.18-4-27.49-11.6-52.63-21.89-72.73A159.06,159.06,0,0,0,94.52,6.17C92.93,4,91.29,2,89.62,0H90c1.44,1.71,2.81,3.44,4.09,5.14a157.38,157.38,0,0,1,13.8,22.06c10.37,20,18.06,45.2,22.25,72.81,3.19,21.16,4,41.69,4.81,61.54.19,4.75.38,9.43.59,14,.82,16.7,2.14,34.18,8.55,48.21,6,13.29,18.12,23.9,34,29.87,12.06,4.52,26.48,7.23,44.09,8.28,5.21.3,10.68.46,16.24.46a382.57,382.57,0,0,0,43.72-2.71c12.56-1.46,25.82-3.52,39.41-6.14v.24c-13.13,2.52-26.05,4.55-38.4,6A383.82,383.82,0,0,1,238.11,262.69Z"/>
      <path class="c" d="M240.16,258.62c-20.7,0-37.56-2-51.55-6.18C170.22,247,155.77,235.85,149,222c-7.11-14.44-8.71-32.9-9.83-52.13-.19-3.34-.36-6.73-.54-10.15-1.06-20.45-2.16-41.59-5.7-63.42-4.52-27.35-12-51.31-22.17-71.2A162.15,162.15,0,0,0,94.94,0h.34A162.42,162.42,0,0,1,110.4,24c10.34,19.95,17.91,43.94,22.51,71.29,3.49,21,4.64,41.42,5.75,61.17.25,4.28.48,8.5.74,12.65,1.12,19.17,2.73,37.6,10,52.33,6.93,14,21.41,25.22,39.73,30.71,14,4.19,30.68,6.23,50.91,6.23h.65a398.86,398.86,0,0,0,62.53-5.6c6-1,12.23-2.09,18.44-3.32v.2c-6,1.18-11.81,2.25-17.37,3.17-23.66,3.87-44.58,5.78-64,5.83Z"/>
      <path class="c" d="M241.1,253.35c-18.39-.13-33.64-2-46.62-5.85-19.5-5.72-34.65-18.05-41.54-33.83s-8.36-35.45-9.86-56.29l-.19-2.61c-3.19-44.3-9.3-95-30.51-135.48A176.58,176.58,0,0,0,100.63,0h.29a174.39,174.39,0,0,1,11.16,18.26c21.59,40.74,27.81,91.45,31,135.69l.11,1.52c1.57,21.3,3.05,41.42,10.09,57.57,7,15.91,22.15,28.34,41.64,34.1,12.86,3.79,28.51,5.77,46.52,5.89h2.37c18.84,0,39.12-1.87,62-5.72,4.87-.82,10-1.78,15.76-2.93v.27c-5.89,1.17-11.3,2.16-16.51,3a377.56,377.56,0,0,1-61.84,5.65Z"/>
      <path class="c" d="M246.68,248.19c-3.72,0-7.41-.08-11-.24-16.06-.75-29.34-3-40.58-6.86-19.52-6.76-34.25-21.65-40.4-40.86-4.91-15.5-6.48-33.51-8.15-52.57-.5-5.69-1-11.58-1.62-17.5-4.91-48.78-15.72-88.64-32.14-118.48-2.2-4-4.56-7.89-7-11.66h.26c2.31,3.56,4.48,7.17,6.47,10.74,16.63,29.9,27.29,68.68,32.58,118.57.59,5.74,1.1,11.45,1.59,17,1.73,19.31,3.35,37.54,8.37,53.24a64.09,64.09,0,0,0,40.52,41.17c11.31,3.92,25,6.24,40.52,6.91,3.61.17,7.38.26,11.18.26a352.62,352.62,0,0,0,51.39-4.2c7.21-1.08,14.93-2.44,22.93-4v.25c-8.32,1.66-16.3,3.05-23.71,4.15A354.62,354.62,0,0,1,246.68,248.19Z"/>
      <path class="c" d="M250.16,243.39c-7.33,0-14.42-.32-21.07-1-13.69-1.34-25.49-4.09-35.07-8.18-19.57-8.35-33.29-27-38.64-52.47-2.79-13.51-4.36-28-6-43.35-1.53-14.14-3.12-28.78-5.78-43.69-6-34.45-16.65-65.62-30.65-90.14-.85-1.46-1.74-3-2.73-4.57h.25c.75,1.24,1.5,2.48,2.23,3.75,13.94,24.11,24.64,55.27,31,90.12,2.65,14.75,4.26,29.24,5.82,43.25,1.73,15.53,3.36,30.19,6.23,43.85,5.44,25.67,19.22,44.44,38.8,52.84,9.53,4.08,21.32,6.86,35,8.24,6.72.66,13.87,1,21.26,1a318.09,318.09,0,0,0,38.7-2.57c10.08-1.22,20.9-3,32.15-5.18v.26c-11.49,2.27-22.58,4.05-33,5.3A321.65,321.65,0,0,1,250.16,243.39Z"/>
      <path class="c" d="M253.45,238.7a187.9,187.9,0,0,1-31.87-2.51c-11.67-2.05-21.66-5.32-29.69-9.72-13.88-7.6-24.58-21.42-30.11-38.9-4.65-14.72-6.81-31.69-9.1-49.66-.5-3.93-1-7.93-1.55-12C143.88,72.58,131.53,31.39,113.37,0h.19C131.67,31.45,144,72.33,151.27,125c.55,4,1.06,8,1.57,11.93,2.34,18,4.54,35.06,9.24,49.85,4,12.47,12.45,29.4,30.23,39.21,8.17,4.48,18.16,7.78,29.7,9.81a185.4,185.4,0,0,0,31.8,2.52c7.65,0,15.95-.37,24.68-1.1a421.37,421.37,0,0,0,43.13-6.14v.29a417.36,417.36,0,0,1-44,6.24C269.19,238.34,261,238.7,253.45,238.7Z"/>
      <path class="c" d="M256.74,234.25c-16.16,0-30.5-1.69-42.63-5A78.64,78.64,0,0,1,189.43,218c-11.4-8.14-19.75-21-24.81-38.24-4.13-14.08-6.35-30-8.71-46.85-.49-3.45-1-6.94-1.49-10.47C146.73,70.65,134.73,30.61,117.75,0h.19c16.92,30.58,28.9,70.32,36.61,121.5.6,4,1.16,7.86,1.72,11.71,2.36,16.42,4.6,31.92,8.63,45.71,5,17.07,13.6,30.38,24.92,38.5a78.31,78.31,0,0,0,24.71,11.36c12.26,3.41,26.32,5.06,43,5.06,3.05,0,6.24-.05,9.46-.17a377.5,377.5,0,0,0,54.65-6.5v.31a372.27,372.27,0,0,1-55.47,6.57C263,234.19,259.79,234.25,256.74,234.25Z"/>
      <path class="c" d="M260.9,229.9c-2.13,0-4.26,0-6.33-.08-19.22-.52-34.77-3.38-47.55-8.74a66.49,66.49,0,0,1-19.94-12.63c-9.31-8.74-16-21.42-20.49-38.75-3.32-12.91-5.5-27.06-7.81-42-.67-4.35-1.35-8.77-2.07-13.25-7.83-47.55-19.28-85-35-114.38h.15c15.7,29.49,27.13,66.63,34.95,113.53.78,4.7,1.5,9.33,2.22,13.89,2.32,14.76,4.5,28.7,7.81,41.44,4.57,17.45,11.31,30.2,20.58,39a66.51,66.51,0,0,0,20,12.76c12.82,5.42,28.5,8.31,47.94,8.84,2,.05,4,.07,6.05.07,18.16,0,38.42-2,60.21-6.05v.31l-.69.13C298.5,227.94,278.87,229.9,260.9,229.9Z"/>
      <path class="c" d="M265.11,225.55a203.84,203.84,0,0,1-21.93-1.13c-17.37-1.93-31.72-6.38-42.65-13.21a60.78,60.78,0,0,1-15.41-13.6c-10.3-12.73-15.11-29.5-18.16-42.69-2.51-10.83-4.51-22.09-6.62-34-1.26-7.13-2.57-14.51-4-22C148.55,59.4,138,27,123.91,0h.18C138,26.86,148.59,59,156.39,98.12c1.55,7.79,2.94,15.47,4.28,22.9,2.09,11.56,4.07,22.48,6.51,33,3.37,14.17,8.18,30.35,18.24,42.87a62.07,62.07,0,0,0,15.47,13.74c11,7,25.46,11.45,43.05,13.39a198.39,198.39,0,0,0,21.52,1.11,308.58,308.58,0,0,0,41.35-3.08c4.81-.67,9.79-1.45,14.81-2.33v.31c-5.57,1-11,1.84-16.16,2.54A302,302,0,0,1,265.11,225.55Z"/>
      <path class="c" d="M268.79,221.39a177.1,177.1,0,0,1-32.32-2.73c-15.74-2.95-28.68-8.46-38.45-16.38A66.69,66.69,0,0,1,183.8,186c-9-14.5-13.21-32-16.79-48.73-1.48-6.95-2.89-14.08-4.26-21-2.3-11.64-4.68-23.68-7.53-35.55C147.87,49.67,138.56,23.26,126.76,0h.16c11.7,23.06,21,49.22,28.33,80,2.88,11.93,5.32,24,7.68,35.76,1.36,6.78,2.78,13.78,4.25,20.62,3.8,17.51,7.95,34.42,16.89,48.85a63.91,63.91,0,0,0,14.28,16.44c9.84,8.05,22.91,13.63,38.86,16.6A174.89,174.89,0,0,0,269.3,221c8.16,0,17-.45,26.2-1.33,8.37-.8,17.16-2,26.12-3.46v.33c-9.46,1.6-18.7,2.82-27.44,3.62C285.24,221,276.69,221.39,268.79,221.39Z"/>
      <path class="c" d="M273.19,217.14c-17.66,0-33-2-45.72-6.1-13.9-4.4-25.64-11.84-33.93-21.52a74.88,74.88,0,0,1-10.44-16c-6.92-13.89-10.76-29.41-14.39-45.41q-1.69-7.53-3.35-15.2c-2.67-12.2-5.42-24.83-8.69-37.52C149.24,46.52,140.35,21.86,129.49,0h.13c10.74,21.64,19.59,46.06,27.08,74.65,3.17,12.21,5.86,24.36,8.47,36.12,1.19,5.41,2.43,11,3.68,16.44,3.71,16.08,7.62,31.66,14.48,45.44a78.4,78.4,0,0,0,10.48,16.13c8.35,9.83,20.22,17.38,34.33,21.84,12.7,4,28,6.07,45.54,6.07,2.75,0,5.6-.05,8.47-.15a325.68,325.68,0,0,0,39.47-4V213a322.35,322.35,0,0,1-40.72,4C278.29,217.1,275.7,217.14,273.19,217.14Z"/>
      <path class="c" d="M277.73,212.35c-1.4,0-2.79,0-4.17,0-20-.37-36.88-3.5-50.28-9.3a72,72,0,0,1-31.21-25.69A95.59,95.59,0,0,1,183,160.16c-7.42-17.74-11.91-36.94-16.67-57.25-2.69-11.53-5.48-23.45-8.92-35.58C150.23,42,142,19.92,132.28,0h.16c9.6,19.65,17.77,41.44,25,66.62,3.45,12,6.26,23.9,9,35.36,4.81,20.29,9.35,39.45,16.79,57.21a98,98,0,0,0,9.13,17.29,72.67,72.67,0,0,0,30.59,25.66c13.48,6,30.47,9.3,50.48,9.75,1.67,0,3.35.05,5.05.05a296.08,296.08,0,0,0,43.21-3.46v.33A302.36,302.36,0,0,1,277.73,212.35Z"/>
      <path class="c" d="M282.64,207.77a194.19,194.19,0,0,1-19.52-.94c-18.85-1.92-34.5-6.82-46.52-14.56-11.23-7.23-20.8-18.45-27.69-32.43a132.55,132.55,0,0,1-5.56-13c-6.29-16.73-10.73-33.67-15.44-51.6-3.18-12.16-6.48-24.73-10.45-37.46A426.49,426.49,0,0,0,135.06,0h.15a430.17,430.17,0,0,1,22.25,57.15c4.06,12.82,7.42,25.5,10.67,37.76,4.68,17.69,9.1,34.4,15.36,50.94,1.49,4.06,3.32,8.33,5.59,13,6.93,14,16.06,24.92,27.13,32.32,12,8,28.12,13.19,46.68,15.14a187.3,187.3,0,0,0,20,1c3.9,0,8-.11,12.18-.32,8.31-.4,17.25-1.25,26.58-2.52v.37c-9.53,1.3-18.61,2.16-27,2.55C290.58,207.67,286.54,207.77,282.64,207.77Z"/>
      <path class="c" d="M287.92,202.88A182.74,182.74,0,0,1,259,200.69c-18.55-3.1-34.38-10-45.77-19.84-10.89-9.49-19.79-23.41-27.2-42.53-1.71-4.35-3.38-9.08-5.44-15.34-3.35-10.15-6.39-20.38-9.61-31.21q-2-6.66-4-13.48,2,6.43,4,12.8c3.13,10.12,6.37,20.59,9.71,30.71,1.95,6,3.7,10.86,5.5,15.43,7.4,19.32,16.42,33.42,27.57,43.1,11.52,10,27.58,16.9,46.44,20a182,182,0,0,0,28.38,2.08c1.15,0,2.3,0,3.46,0a289.61,289.61,0,0,0,29.68-2.15v.46a281.85,281.85,0,0,1-31.27,2.2ZM144.66,15.64C142.37,10.31,140,5.12,137.59,0h.08Q141.38,7.85,144.66,15.64Z"/>
      <path class="c" d="M293.23,197.67c-3.83,0-7.62-.1-11.27-.3a144.73,144.73,0,0,1-29.8-4.56c-16.51-4.52-30.7-12.94-41-24.36-9.09-10.1-16.46-23.22-23.9-42.56-2.14-5.53-4.34-11.68-6.91-19.35-2-6-4-11.92-6-17.91C164.8,60,155,30.31,140.56,0h.16c14.26,30,24.16,59.5,33.74,88q2.89,8.63,5.81,17.21c2,5.94,4.24,12.13,7,19.48,5.58,14.29,12.81,30.59,24.23,43.11,10.42,11.57,24.83,20.08,41.68,24.59a147.27,147.27,0,0,0,30.27,4.48c3.17.15,6.48.23,9.83.23,8.43,0,17.64-.5,27.38-1.48l1-.12v.5l-.61.06c-.8.09-1.6.18-2.4.25C309.79,197.23,301.25,197.67,293.23,197.67Z"/>
      <path class="c" d="M298.08,193.13a185.47,185.47,0,0,1-20.46-1.08,123.43,123.43,0,0,1-28.25-6.35A84.87,84.87,0,0,1,211.3,158C201,144.68,194,128.5,188.6,114.44c-2.32-5.85-4.5-11.94-6.61-17.83l-1.37-3.8-2.73-7.65C168,57.6,157.86,29.1,143.84,0H144c14.23,29.48,24.67,58.49,34.76,86.54l1.76,4.9c2.4,6.67,5,13.79,8.08,21.77,5.92,15.21,12.81,31.08,23,44.15a85.53,85.53,0,0,0,38.7,28A123.76,123.76,0,0,0,279,191.62a185.68,185.68,0,0,0,19.46,1c5.32,0,10.9-.21,16.59-.61,1.93-.14,4-.31,6.54-.55v.5c-3.11.3-5.91.53-8.52.71C307.91,193,302.86,193.13,298.08,193.13Z"/>
      <path class="c" d="M302.24,189.68c-16.65,0-31.52-2-44.21-6.06A86.6,86.6,0,0,1,216.91,156C205,141.46,196.39,121.54,189.53,104c-2.74-7.09-5.69-14.82-9-23.62C169.79,52,159.84,26.34,146.79,0H147c13,26.21,22.83,51.27,33.39,79,3.45,9.23,6.36,16.78,9.14,23.77,7.37,18.72,15.84,38.07,27.78,52.68a87.31,87.31,0,0,0,41.84,27.83c12.62,3.93,26.86,5.83,43.53,5.83,5.89,0,12.16-.25,18.64-.74l.35,0v.54l-.56.05-1.87.15C313.35,189.47,307.64,189.68,302.24,189.68Z"/>
      <path class="c" d="M305.49,186.68c-19.89,0-37.14-3-51.26-8.8-14.82-6.12-28-16.74-38-30.71-9.68-13.57-17.09-30-25.92-52.09-2.54-6.28-5-12.68-7.48-18.87l-2.64-6.72C169.92,43.79,160.79,22.12,149.5,0h.17c12.06,23.55,21.67,46.64,30.25,68.08,1.33,3.31,2.64,6.66,4,10,2,5.16,4.13,10.5,6.3,15.73,8.93,22.33,16.45,38.93,26.31,52.7a89.77,89.77,0,0,0,38.71,31c14,5.68,31.06,8.56,50.71,8.56,3.11,0,6.32-.07,9.56-.21,1.81-.09,3.77-.21,6.15-.38v.6c-2.9.2-5.56.34-8.13.43S308.1,186.68,305.49,186.68Z"/>
      <path class="c" d="M308.1,183.94c-22.21,0-41.07-3.75-56.06-11.14-13.88-6.85-26.29-18.22-35.89-32.9-9.57-14.52-16.74-31.53-25.13-52.27l-2.25-5.57c-2.9-7.18-5.9-14.62-8.9-21.8C172.58,42.63,163.61,21.69,152.31,0h.12c11,21.08,19.92,41.59,27.19,58.88l.56,1.36c3.55,8.62,7.15,17.36,10.73,26.15,7.8,19.25,15.62,37.77,25.53,52.84,9.86,14.89,22.48,26.37,36.52,33.18,14.94,7.24,33.61,10.91,55.47,10.91l3.09,0c3.19-.05,6.59-.19,10.1-.41v.56c-4.19.27-8.23.43-12,.48Z"/>
      <path class="c" d="M309.7,180.87c-1.28,0-2.55,0-3.81,0-22-.56-41.27-5.36-55.82-13.88-12.85-7.53-24.2-19.26-33.71-34.89s-17-33.77-24.3-51.4c-3.41-8.33-7-16.62-10.41-24.64l-1.87-4.35C170.8,31,163.22,15.08,155.24,0h.19c7.78,14.62,15.43,30.6,24.06,50.28,3.94,9,7.82,18.19,12.44,29.15l.57,1.35c7.7,18.29,15,35.57,24.11,50.58,9.7,15.82,21.24,27.66,34.31,35.2,15,8.59,34.58,13.32,56.78,13.66l2.66,0c3.65,0,7.44-.11,11.26-.31v.57C317.5,180.75,313.49,180.87,309.7,180.87Z"/>
      <path class="c" d="M312.7,177.48c-3,0-6-.07-8.83-.23-21.25-1.05-40-6.59-54.26-16-26.24-17.4-40-49.21-54.59-82.89l-3.13-7.24c-3.87-9-7.53-17.48-11.45-25.94-8-17.65-15-32-22.07-45.14h.17c6.91,12.83,13.77,26.75,21.59,43.79,4.08,9,8.39,18.72,13.56,30.57l1.31,3c14.81,34,28.79,66.07,55.41,83.46,14.4,9.4,33.49,14.87,55.19,15.82,2.31.1,4.71.15,7.14.15,2.86,0,5.84-.07,8.88-.2v.64C318.59,177.41,315.59,177.48,312.7,177.48Z"/>
      <path class="c" d="M315.39,173.85c-20.7,0-38.5-3.54-52.91-10.53-14.14-6.84-27.14-18.65-37.59-34.14C214.59,113.8,206.17,95,197.26,75.07l-.79-1.78-3-6.71c-3.9-8.67-7.58-16.85-11.4-25.07C174.26,24.92,167.87,12.11,161.34,0h.25c6.28,11.6,12.68,24.36,20.14,40.16,4.92,10.54,9.72,21.13,14.6,31.94,9.28,20.81,18,40.46,28.88,56.47C235.74,144.17,249,156.05,263.48,163s31.86,10.26,52,10.26c1.93,0,3.9,0,5.87-.1h.27v.63l-.51,0-1.68.05C318.08,173.83,316.73,173.85,315.39,173.85Z"/>
      <path class="c" d="M317.23,170.29c-20,0-37.28-3.44-51.51-10.22s-26.77-17.88-37.39-33c-10.88-15.48-19.85-34.9-28.52-53.68q-2.28-4.94-4.52-9.8c-3.7-8-7.19-15.63-10.85-23.25-7.72-16.24-14-28.69-20.29-40.33h.19c6.06,11.18,12.17,23.22,19.79,39,5.94,12.45,10.89,23,15.56,33.23l.23.49c9.27,19.85,18,38.59,28.75,53.74,10.57,15,23.73,26.48,38.06,33.17,14.09,6.6,31.22,9.94,50.9,9.94,1.32,0,2.66,0,4-.05v.66C320.15,170.27,318.69,170.29,317.23,170.29Z"/>
      <path class="c" d="M319.11,166.65c-18.07,0-34.05-2.91-47.52-8.66-14.33-6.14-27.61-16.83-38.41-30.92-11.37-14.93-20.73-33.76-29.34-51.77-3.53-7.28-7-14.55-10.29-21.58q-3-6.37-6-12.69c-5.9-12.2-13-26.59-20.8-41H167c7.55,13.92,14.47,27.9,20.25,39.75,3.1,6.39,6.1,12.69,9.28,19.36q3.55,7.47,7.22,15.1c9.7,20,18.63,37.82,29.82,52.3,10.83,14.14,24.35,24.88,39.09,31.05,13.35,5.57,29.1,8.39,46.82,8.39h2.15v.67Z"/>
      <path class="c" d="M319.17,162.89c-18.08-.22-34.12-3.52-47.69-9.83-22.39-10.45-41.1-32.1-60.66-70.2-4.84-9.42-9.28-18.7-13.56-27.66q-2.55-5.34-5.1-10.63C185.08,29.9,177.77,14.73,169.94,0h.22c7.31,13.69,13.9,27.19,21.76,43.4l3.39,7.06c4.88,10.16,9.92,20.67,15.48,31.41,19.59,38,39.21,60.49,61.74,70.78,13.78,6.27,30.08,9.48,48.47,9.53h.62v.69h-2.45Z"/>
      <path class="c" d="M321.62,159.06c-1.19,0-2.38,0-3.55-.07-16.44-.53-31.12-3.7-43.65-9.41-21.25-9.65-40.35-30.26-58.41-63-6.69-12.24-12.61-24.38-18.33-36.12L193.56,42c-7.06-14.49-13.73-28.19-21.09-42h.22c7.47,14,14.26,27.84,21.46,42.52l1.72,3.51c1.17,2.38,2.33,4.76,3.5,7.15,5.17,10.57,10.52,21.51,16.65,32.48,18.34,33.1,37.79,53.86,59.46,63.49,12.82,5.66,27.75,8.74,44.39,9.15l1.41,0h.34Z"/>
      <path class="c" d="M321.62,155.12l-2.22-.07c-15.06-.56-28.78-3.42-40.77-8.49-20.86-8.84-40-27.72-57-56.12C214.13,78,207.81,65.3,201.7,53l-1.57-3.14q-2.41-4.87-4.79-9.71C188.53,26.37,182.1,13.31,175,0h.16c6.8,12.67,13,25.13,19.56,38.31q2.59,5.24,5.24,10.52c6.45,13.08,13.43,27,21.68,40.73,17.34,28.77,36.89,47.8,58.1,56.56,12.13,5,26.09,7.79,41.47,8.23h.41Z"/>
      <path class="c" d="M321.62,150.9a118.12,118.12,0,0,1-37.77-7.26C263,135.65,244.08,119,227.58,94c-9.06-13.76-16.48-28.12-23.31-41.64-2.76-5.44-5.45-10.83-8.14-16.18C189.92,23.77,184,12,177.6,0h.21c6.41,11.9,12.26,23.52,18.46,35.82,2.6,5.14,5.2,10.31,7.86,15.53,7.72,15.05,14.81,28.58,23.55,41.84,16.86,25.3,36.15,42.12,57.34,50a118.45,118.45,0,0,0,36.6,6.93Z"/>
      <path class="c" d="M321.62,146.64a120.85,120.85,0,0,1-32.23-5.95c-20.55-7-39.86-22.16-55.85-43.95-10.29-14-18.22-28.84-25.45-42.81-3.72-7.12-7.38-14.29-10.91-21.22C191.72,22,186.07,10.93,180.19,0h.2c5.82,10.74,11.43,21.66,16.85,32.21C200.72,39,204.32,46,208,53c7.28,14,15.26,28.82,25.7,43,16.29,22.07,36,37.37,56.94,44.25a120.89,120.89,0,0,0,31,5.61Z"/>
      <path class="c" d="M321.62,142.14a121.21,121.21,0,0,1-26.8-4.55c-21-6.21-40.62-20.31-56.65-40.78C227.41,83,218.88,67.57,211.73,54.18,207.38,46,203.12,37.81,199,29.87,193.94,20.08,188.7,10,183.3,0h.23c5.39,9.91,10.65,20,15.73,29.73,4,7.7,8.17,15.66,12.41,23.57,8,14.86,16.09,29.32,26.7,42.81,16.38,20.76,36.34,34.93,57.73,41a122.67,122.67,0,0,0,25.52,4.23Z"/>
      <path class="c" d="M321.62,137.7a119.7,119.7,0,0,1-21.88-3.3c-21.68-5.47-41.75-19-58-39.06-10.64-13.1-19-27.88-26.72-41.89-4.34-8-8.7-16.29-12.91-24.28-5-9.52-10.19-19.36-15.55-29.15h.16c5,9.18,9.95,18.4,14.69,27.33,4.43,8.34,9,17,13.61,25.33,7.7,14.12,16.3,29,27,42,16.51,20.26,36.94,33.8,59.1,39.17a121.28,121.28,0,0,0,20.57,3.05Z"/>
      <path class="c" d="M321.62,133.44a122.26,122.26,0,0,1-17.25-2.36c-22.23-4.77-42.76-17.75-59.35-37.52C234.13,80.48,225.24,65.31,218,52.19c-4.74-8.56-9.48-17.39-14.06-25.92S194.54,8.81,189.68,0h.24c4.77,8.58,9.45,17.25,14,25.63S213.26,43,218,51.51C227.13,67.8,235.26,81.08,245.33,93c16.86,19.92,37.74,32.9,60.36,37.54a122.17,122.17,0,0,0,15.93,2.12Z"/>
      <path class="c" d="M321.62,129.09a121.61,121.61,0,0,1-13-1.6c-22.79-4.19-43.73-16.72-60.55-36.26C237.44,78.83,228.58,64.1,220.58,50c-5-8.81-10-17.9-14.79-26.68C201.6,15.72,197.26,7.82,192.89,0h.3c4.41,7.83,8.78,15.76,13,23.43,4.73,8.56,9.61,17.41,14.47,26,9.42,16.39,17.74,29.67,27.79,41.27,17.1,19.66,38.38,32.18,61.54,36.19a116.83,116.83,0,0,0,11.62,1.39Z"/>
      <path class="c" d="M321.62,124.84c-3.18-.24-6.24-.59-9.1-1-23.26-3.61-44.6-15.8-61.71-35.23-11.42-13.08-20.64-28.27-28.16-41.41-4.74-8.27-9.5-16.78-14.1-25C204.49,14.92,200.29,7.42,196.08,0h.7c3.41,6.07,6.77,12.19,10,18.1,5.44,9.89,10.58,19.24,16,28.55,7.1,12.4,16.76,28.32,28.43,41.46,17.29,19.49,39,31.62,62.67,35.09,2.31.33,4.84.6,7.73.83Z"/>
      <path class="c" d="M321.62,120.67c-2.27-.18-4.47-.41-6.52-.7-24.76-3.42-47.34-16.69-65.32-38.35-8.54-10.24-16.86-22.69-27-40.4-4.13-7.12-8.29-14.4-12.31-21.45Q204.84,9.9,199.16,0h.34Q205.29,10,211,20c3.91,6.83,7.95,13.89,11.95,20.78,7.58,12.94,16.74,27.87,27.24,40.42,18.3,21.73,41.21,34.93,66.26,38.17,1.68.21,3.42.39,5.18.54Z"/>
      <path class="c" d="M321.62,116.26c-.85-.07-1.7-.15-2.55-.25-25.06-2.78-48.86-16.12-67-37.57-10.72-12.74-20.26-28.18-28.18-41.61q-4.53-7.72-9.14-15.66c-4-6.9-8.17-14-12.36-21.15h.3q5.67,9.6,11.28,19.2,5.06,8.63,10.11,17.22C232,49.86,241.62,65.3,252.51,78.05c18.46,21.49,42.57,34.75,67.9,37.32l1,.08.25,0Z"/>
      <path class="c" d="M321.62,111.9c-25.23-2.46-49.15-15.46-67.38-36.6-11-12.75-20.74-28.27-29.6-43.14L219,22.69c-4.38-7.4-8.9-15-13.48-22.67h.25q5.92,9.83,11.68,19.5,3.72,6.21,7.37,12.31c8.34,13.92,18.4,29.93,29.86,43.1,18.13,20.77,41.89,33.61,66.91,36.18Z"/>
      <path class="c" d="M321.62,107.36c-24.42-2.75-47.53-15.25-65.12-35.22-11.74-13.31-22-29.5-31.36-45-3.5-5.8-6.94-11.61-10.58-17.76L209,0h.29l5,8.39c3.81,6.39,7.41,12.41,11.06,18.43,9,14.74,19.61,31.58,31.63,45,17.47,19.56,40.41,31.9,64.62,34.75Z"/>
      <path class="c" d="M321.62,103a93.18,93.18,0,0,1-32.71-9.68c-11.93-6.25-23.49-16-34.34-29C243,50.38,232.38,33.38,223.32,18.54l-5.11-8.44L212.11,0h.29l4.35,7.14,6.81,11.15c9.67,15.81,20.18,32.29,31.5,45.68,10.87,12.95,22.56,22.66,34.75,28.86a94.53,94.53,0,0,0,31.81,9.32Z"/>
      <path class="c" d="M321.62,98c-2.76-.29-5.21-.64-7.49-1.07-20.87-3.87-40.65-16.1-57.2-35.36-12.44-14.43-24-32.76-33.94-48.81q-2.85-4.58-5.73-9.23L215.11,0h.35s6.18,9.93,7.79,12.5c10.58,17,21.94,34.69,34.2,48.72,16.67,19.17,36.65,31.29,57.79,35,1.88.34,3.91.62,6.38.89Z"/>
      <path class="c" d="M321.62,93.56c-2-.24-3.67-.48-5.22-.75-20.92-3.68-40.8-15.64-57.48-34.59-12.82-14.54-24.34-32.34-37-52.41L218.28,0h.33l3.58,5.63c12.19,19.2,24.21,37.65,37.26,52.29,16.82,18.87,36.9,30.72,58.08,34.25,1.24.21,2.58.4,4.09.58Z"/>
      <path class="c" d="M321.42,89.19c-.91-.12-1.81-.23-2.7-.38-21-3.42-41-15.15-58-33.93C246.73,39.4,233.83,19.4,221.36,0h.36c14.22,22,26.17,39.92,39.57,54.59,17,18.68,37.3,30.28,58.54,33.56l1.22.16.57.07v.82Z"/>
      <path class="c" d="M321.62,84.85c-21.47-3.12-41.87-14.63-59.08-33.29-13.12-14.18-25-31.73-38.06-51.54h.38c13.08,19.68,25,37.12,38.24,51.27C280.23,69.56,300.47,80.87,321.62,84Z"/>
      <path class="c" d="M321.62,79.16a87.38,87.38,0,0,1-8.88-1.82c-16.54-4.34-32.21-14-46.57-28.66C252.36,34.53,239.5,16.17,228.51,0h.43C240.52,16.9,253,34.53,266.76,48.41c14.56,14.62,30.37,24.15,47,28.35,2.45.61,5.09,1.14,7.84,1.58Z"/>
      <path class="c" d="M321.62,73.11a88.65,88.65,0,0,1-11.37-2.73C296.34,66,283,57.83,270.6,46c-13.71-13-26.2-29.78-37.66-46h.43C244.72,16,257.13,32.49,271,45.54l.12.11.11.1c12.52,11.73,26,19.83,40,24.07a88.78,88.78,0,0,0,10.36,2.45Z"/>
      <path class="c" d="M321.62,66.86c-2.21-.42-4.33-.9-6.31-1.43-14.09-3.75-27.56-11.23-40.05-22.24C261.1,30.78,248.33,14.43,237.69,0h.47c10.47,14.05,23.09,30.06,37.32,42.49l.14.11a1.14,1.14,0,0,1,.28.25c12.68,11,26.28,18.33,40.45,22,1.65.42,3.42.81,5.27,1.16Z"/>
      <path class="c" d="M321.38,60.64c-.29-.06-.58-.11-.86-.18-14.29-3.14-27.95-9.92-40.59-20.16C268.39,31,256.84,18.57,242.49,0H243C257.27,18.19,268.66,30.36,280,39.46l.16.11.5.41c12.85,10.19,26.63,16.87,41,19.86h0v.85Z"/>
      <path class="c" d="M321.62,54.46a97.69,97.69,0,0,1-36.9-17.21C273.16,28.7,261.35,16.87,247.59,0h.57c13.84,16.76,25.7,28.48,37.3,36.9a99,99,0,0,0,36.16,16.67Z"/>
      <path class="c" d="M321.62,48A98.06,98.06,0,0,1,289.75,34l-.71-.48C277.69,25.76,266.27,15.12,253.14,0h.6c13.16,15,24.62,25.47,36.08,33.12l.27.18.45.29a98.41,98.41,0,0,0,31.08,13.54Z"/>
      <path class="c" d="M321.62,41.72a96.79,96.79,0,0,1-26.84-11.15,5.55,5.55,0,0,1-.48-.29l-.36-.22c-11.11-6.84-22.58-16.67-35.05-30h.64c12.76,13.53,24.56,23.4,36.07,30.16a97.7,97.7,0,0,0,26,10.66Z"/>
      <path class="c" d="M321.62,35.39A95.32,95.32,0,0,1,299.94,27C288.72,21,277.31,12.18,265.06,0h.78c12.05,11.76,23.28,20.32,34.32,26.19l.4.21.24.12a96.56,96.56,0,0,0,20.82,8Z"/>
      <path class="c" d="M321.62,28.91A94.53,94.53,0,0,1,305.34,23a.59.59,0,0,0-.16-.07.68.68,0,0,1-.15-.08c-10.72-5.07-21.5-12.55-33-22.87h.84c11.45,10.1,22.25,17.43,33,22.39l.17.08a.59.59,0,0,1,.16.07A93.46,93.46,0,0,0,321.62,28Z"/>
      <path class="c" d="M321.62,22.52A88.27,88.27,0,0,1,310.74,19l-.14-.05c-10.16-4.13-20.33-10.3-31-18.88h1c10.7,8.38,20.83,14.39,31,18.38l.12.05a91.11,91.11,0,0,0,9.93,3.19Z"/>
      <path class="c" d="M321.62,16.08c-1.77-.49-3.53-1-5.24-1.6A115.39,115.39,0,0,1,288.37,0h1.27a114.21,114.21,0,0,0,27.73,13.9c1.29.42,2.68.83,4.25,1.26Z"/>
      <path class="c" d="M321.61,9.71A100.58,100.58,0,0,1,298.86,0h1.65a99.68,99.68,0,0,0,21.11,8.79v.9Z"/>
      <path class="c" d="M321.62,3a95.35,95.35,0,0,1-9.24-3h2.37c2.21.79,4.54,1.5,6.87,2.12Z"/>
    </g>
  </g>
</svg>
